<?xml version="1.0" encoding="utf-8"?>
<!-- Generator: Adobe Illustrator 26.0.2, SVG Export Plug-In . SVG Version: 6.00 Build 0)  -->
<svg version="1.1" id="레이어_1" xmlns="http://www.w3.org/2000/svg" xmlns:xlink="http://www.w3.org/1999/xlink" x="0px"
	 y="0px" viewBox="0 0 34.98 33.72" style="enable-background:new 0 0 34.98 33.72;" xml:space="preserve">
<style type="text/css">
	.st0{fill:#131111;}
	.st1{fill:#191615;}
</style>
<g>
	<path class="st0" d="M34.97,8.79c0.09-2.36-0.82-2.93-3.02-2.89C25.13,6.01,18.3,5.94,11.47,5.94c-3.17,0-3.15,0-3.23-3.29
		c-0.03-1.01,0.32-2.4-1.21-2.54c-2.04-0.18-4.1-0.08-6.16-0.09C0.29,0.02-0.02,0.3,0,0.93C0.01,1.55,0.05,2.1,0.87,2.1
		c0.99,0,1.99,0.13,2.96-0.02c1.96-0.32,2.26,0.56,2.23,2.31c-0.11,5.92,0.02,11.84-0.07,17.75c-0.04,1.98,0.48,2.82,2.63,2.73
		c3.95-0.15,7.9-0.04,11.85-0.04c3.86,0,7.73-0.13,11.59,0.05c2.38,0.11,2.96-0.84,2.9-3.01C34.84,17.51,34.81,13.14,34.97,8.79z
		 M32.73,21c0.04,1.48-0.53,1.77-1.86,1.76c-6.92-0.05-13.83-0.07-20.75,0.01c-1.57,0.02-1.95-0.49-1.91-1.97
		c0.1-3.62,0.1-7.24,0-10.86c-0.04-1.46,0.27-2.01,1.87-1.95c3.45,0.13,6.91,0.04,10.37,0.04c3.54,0,7.08,0.06,10.62-0.03
		c1.29-0.03,1.69,0.33,1.66,1.65C32.64,13.43,32.63,17.22,32.73,21z"/>
	<path class="st1" d="M10.76,26.73C8.8,26.62,7.07,28.17,7,30.08c-0.06,1.96,1.5,3.6,3.48,3.64c1.92,0.05,3.67-1.6,3.68-3.48
		C14.17,28.47,12.58,26.82,10.76,26.73z M10.64,31.6c-0.82-0.1-1.42-0.42-1.39-1.38c0.02-0.88,0.49-1.4,1.36-1.41
		c0.77,0,1.21,0.51,1.28,1.25C11.98,30.95,11.49,31.43,10.64,31.6z"/>
	<path class="st1" d="M30.11,26.73c-1.86,0.1-3.38,1.7-3.34,3.52c0.04,1.98,1.66,3.52,3.65,3.47c1.92-0.04,3.6-1.8,3.5-3.65
		C33.81,28.15,32.08,26.63,30.11,26.73z M30.2,31.56c-0.73-0.06-1.2-0.49-1.19-1.3c0.01-0.89,0.47-1.44,1.33-1.45
		c0.87,0,1.3,0.59,1.32,1.37C31.58,31.17,31.06,31.62,30.2,31.56z"/>
</g>
</svg>
