<?xml version="1.0" encoding="utf-8"?>
<!-- Generator: Adobe Illustrator 26.0.2, SVG Export Plug-In . SVG Version: 6.00 Build 0)  -->
<svg version="1.1" id="레이어_1" xmlns="http://www.w3.org/2000/svg" xmlns:xlink="http://www.w3.org/1999/xlink" x="0px"
	 y="0px" viewBox="0 0 373.8 144.8" style="enable-background:new 0 0 373.8 144.8;" xml:space="preserve">
<style type="text/css">
	
		.st0{clip-path:url(#SVGID_00000100383961242870888020000005109689929882527672_);fill:#01147B;stroke:#01147B;stroke-miterlimit:10;}
	
		.st1{clip-path:url(#SVGID_00000064330557479610089170000017343913684732766851_);fill:#01147B;stroke:#01147B;stroke-miterlimit:10;}
	.st2{clip-path:url(#SVGID_00000127739291422391942460000015104861009509980816_);stroke:#000000;stroke-miterlimit:10;}
	
		.st3{clip-path:url(#SVGID_00000108995368448740181940000000699846958075568304_);fill:#01147B;stroke:#01147B;stroke-miterlimit:10;}
	
		.st4{clip-path:url(#SVGID_00000176743116246772908030000004224080810146807953_);fill:#01147B;stroke:#01147B;stroke-miterlimit:10;}
	
		.st5{clip-path:url(#SVGID_00000037677740868070847890000003044146217099203474_);fill:#FFD800;stroke:#FFD800;stroke-miterlimit:10;}
	.st6{clip-path:url(#SVGID_00000005982398576474582040000018210347450529143474_);stroke:#000000;stroke-miterlimit:10;}
	.st7{fill:none;}
	.st8{fill:#01147B;}
	
		.st9{clip-path:url(#SVGID_00000145030362260512029710000002314280130216955069_);fill:#01147B;stroke:#01147B;stroke-miterlimit:10;}
	.st10{clip-path:url(#SVGID_00000133512416722847501540000003086417900523738034_);stroke:#000000;stroke-miterlimit:10;}
	
		.st11{clip-path:url(#SVGID_00000029031794152823932050000007930396074405351098_);fill:#261E3C;stroke:#261E3C;stroke-miterlimit:10;}
	
		.st12{clip-path:url(#SVGID_00000109736624781702009900000014047239310526810813_);fill:#01147B;stroke:#01147B;stroke-miterlimit:10;}
	.st13{clip-path:url(#SVGID_00000113350930232069975500000008420044722950539449_);fill:none;stroke:#101C50;stroke-miterlimit:10;}
	.st14{fill:#101C50;}
	.st15{clip-path:url(#SVGID_00000060018901791545943840000004784886382699875232_);fill:none;stroke:#101C50;stroke-miterlimit:10;}
	.st16{clip-path:url(#SVGID_00000078734347817236656030000010647462316969185428_);fill:none;stroke:#101C50;stroke-miterlimit:10;}
	.st17{clip-path:url(#SVGID_00000121989972655028045100000017730822367536360066_);fill:none;stroke:#101C50;stroke-miterlimit:10;}
	.st18{clip-path:url(#SVGID_00000071527103004125440430000009084902576940137868_);fill:none;stroke:#101C50;stroke-miterlimit:10;}
	.st19{clip-path:url(#SVGID_00000031186120999825402950000017667693980361750943_);fill:none;stroke:#101C50;stroke-miterlimit:10;}
	.st20{clip-path:url(#SVGID_00000034057820180543848770000004247024992434386563_);fill:none;stroke:#101C50;stroke-miterlimit:10;}
	.st21{clip-path:url(#SVGID_00000119822413439615001180000012643422964602304688_);fill:none;stroke:#101C50;stroke-miterlimit:10;}
	
		.st22{clip-path:url(#SVGID_00000155856245977079142760000006812643253068765860_);fill:none;stroke:url(#SVGID_00000129903777885323225770000011194405848956979337_);stroke-miterlimit:10;}
	.st23{fill:none;stroke:#000000;stroke-width:2;stroke-linecap:round;stroke-linejoin:round;stroke-miterlimit:10;}
	
		.st24{clip-path:url(#SVGID_00000000941942661949481300000009241989852744849853_);fill:#261E3C;stroke:#261E3C;stroke-miterlimit:10;}
	
		.st25{clip-path:url(#SVGID_00000022535201796930302620000008115840441764339853_);fill:url(#SVGID_00000124882201294345907540000018133319814104586403_);stroke:url(#SVGID_00000145777318543394504300000006061308966701174919_);stroke-miterlimit:10;}
	
		.st26{clip-path:url(#SVGID_00000017492627454803091220000003418677280682316721_);fill:#FF0000;stroke:#FF0000;stroke-miterlimit:10;}
	
		.st27{clip-path:url(#SVGID_00000051378473473812195240000007981745027023113661_);fill:#FFFFFF;stroke:#FFFFFF;stroke-miterlimit:10;}
</style>
<g>
	<defs>
		<path id="SVGID_1_" d="M191,135.7h-4.5c-0.1-1.5-0.3-3-0.6-4.5c0-0.2-0.2-0.3-0.3-0.3h-1c-0.1,0-0.2,0-0.2,0.1
			c-0.1,0.1-0.1,0.2-0.1,0.3c0.3,1.5,0.5,2.9,0.6,4.5h-4.3c-0.2,0-0.4,0.2-0.4,0.4v0.9c0,0.2,0.2,0.4,0.4,0.4h4.4c0,0.2,0,0.4,0,0.6
			c0,1.3-0.1,2.5-0.2,3.7c0,0.1,0,0.2,0.1,0.3c0.1,0.1,0.2,0.1,0.2,0.1h1c0.2,0,0.3-0.1,0.4-0.3c0.1-1.3,0.2-2.4,0.2-3.8
			c0-0.2,0-0.4,0-0.6h4.4c0.2,0,0.4-0.2,0.4-0.4V136C191.3,135.8,191.2,135.7,191,135.7z"/>
	</defs>
	<clipPath id="SVGID_00000011016493017757335210000016301406215217448066_">
		<use xlink:href="#SVGID_1_"  style="overflow:visible;"/>
	</clipPath>
	
		<line style="clip-path:url(#SVGID_00000011016493017757335210000016301406215217448066_);fill:#01147B;stroke:#01147B;stroke-miterlimit:10;" x1="176.6" y1="135.9" x2="194.1" y2="135.9"/>
</g>
<g>
	<defs>
		<path id="SVGID_00000057840835651845454960000010107268181453325744_" d="M58.1,135.7h-4.5c-0.1-1.5-0.3-3-0.6-4.5
			c0-0.2-0.2-0.3-0.3-0.3h-1c-0.1,0-0.2,0-0.2,0.1c-0.1,0.1-0.1,0.2-0.1,0.3c0.3,1.5,0.5,2.9,0.6,4.5h-4.3c-0.2,0-0.4,0.2-0.4,0.4
			v0.9c0,0.2,0.2,0.4,0.4,0.4H52c0,0.2,0,0.4,0,0.6c0,1.3-0.1,2.5-0.2,3.7c0,0.1,0,0.2,0.1,0.3c0.1,0.1,0.2,0.1,0.2,0.1h1
			c0.2,0,0.3-0.1,0.4-0.3c0.1-1.3,0.2-2.4,0.2-3.8c0-0.2,0-0.4,0-0.6h4.4c0.2,0,0.4-0.2,0.4-0.4V136
			C58.4,135.8,58.3,135.7,58.1,135.7z"/>
	</defs>
	<clipPath id="SVGID_00000121273750383107549130000017326349249059585717_">
		<use xlink:href="#SVGID_00000057840835651845454960000010107268181453325744_"  style="overflow:visible;"/>
	</clipPath>
	
		<line style="clip-path:url(#SVGID_00000121273750383107549130000017326349249059585717_);fill:#01147B;stroke:#01147B;stroke-miterlimit:10;" x1="44.8" y1="135.9" x2="60.9" y2="135.9"/>
</g>
<g>
	<defs>
		<path id="SVGID_00000002359872544353544150000013529497037818308012_" d="M104.7,136.1c0.8-0.5,1.4-1.3,1.4-1.9
			c0-0.6-0.3-1-0.9-1.3c-0.7-0.3-1.8-0.3-2.9-0.3l-2.3,0l0.1,0.5c0.2,0,0.8,0.1,1.1,0.1c0,0.4,0,2,0,2.4v0.6c0,1,0,2.7,0,3.2
			c-0.3,0.1-0.9,0.1-1,0.1l-0.1,0.5c0.6-0.1,1.3-0.1,1.9-0.1c0.6,0,1.2,0,1.8,0.1l-0.1-0.5c-0.3,0-0.8-0.1-1-0.1c0-0.5,0-2,0-2.7
			c0.2,0,0.5,0,0.8-0.1c0.4,0.5,2.9,3.3,3.6,3.6l0.7-0.1C106.6,139.1,105.1,136.7,104.7,136.1z M103.6,135.9c-0.3,0.1-0.6,0.2-1,0.2
			c0-0.7,0-2.4,0-3c1.5,0,2.1,0.7,2.1,1.3C104.6,135.4,103.8,135.8,103.6,135.9z M98,139.5c-0.3,0-0.6-0.1-0.9-0.1
			c-0.3-0.6-0.8-1.7-1.3-3.3c-0.3-0.8-0.8-2.3-1-2.9c0.2,0,0.5-0.1,0.7-0.1l0.1-0.5c-0.6,0-1.2,0-1.8,0c-0.5,0-1,0-1.5-0.1l0,0.5
			c0.2,0,0.6,0.1,0.7,0.1c-0.3,0.8-2,5.4-2.4,6.2c-0.3,0.1-0.6,0.1-0.9,0.1l-0.1,0.5c0.4,0,0.8-0.1,1.2-0.1c0.6,0,1.2,0,1.7,0.1
			l-0.1-0.5c-0.3,0-0.6-0.1-0.8-0.1c0.1-0.7,0.5-2.2,0.7-2.6c0.4,0,1.7-0.1,2.1-0.1c0.2,0.4,0.7,2,0.9,2.7c-0.3,0.1-0.7,0.1-0.9,0.1
			l-0.1,0.5c0.6,0,1.2-0.1,1.8-0.1c0.6,0,1.3,0,1.9,0.1L98,139.5z M92.6,136c0.1-0.3,0.3-0.7,0.4-1.2l0,0c0.1-0.4,0.3-0.8,0.4-1.2
			c0.1,0.4,0.3,1,0.5,1.5l0,0c0.1,0.4,0.2,0.7,0.3,1L92.6,136z M74.8,139.9l0.1-0.5c0.1,0,0.8-0.1,1-0.1c0-0.6,0-2.2,0-3.1v-0.6
			c0-0.2,0-1.9,0-2.4c-0.3,0-0.9-0.1-1-0.1l-0.1-0.5c0.7,0.1,1.4,0.1,2.1,0.1c0.6,0,1.1,0,1.7-0.1l-0.1,0.5c-0.1,0-0.8,0.1-1,0.1
			c0,0.3,0,1.1,0,2.5v0.6c0,1.6,0,2.7,0,3.1c0.3,0.1,0.9,0.1,1,0.1l0.1,0.5c-0.7-0.1-1.4-0.1-2.1-0.1
			C76,139.9,75.4,139.9,74.8,139.9z M85.5,132.6c0.5,0,1,0.1,1.5,0.1c0.4,0,0.8,0,1.1-0.1l0,0.5c-0.1,0-0.6,0.1-0.7,0.2
			c-0.2,0.1-1.6,1.8-2.1,2.5c1.1,1.5,2.1,3,3.2,4.5l-0.7,0.2c-0.8-0.6-1.5-1.4-2.2-2.2l0,0c-0.5-0.6-1-1.2-1.2-1.5
			c-0.4,0.5-1.2,1.9-1.7,2.7c0.2,0,0.6,0.1,0.8,0.1l0.1,0.5c-0.2,0-1,0-1.6,0c-0.4,0-0.9,0-1.3,0.1l0.2-0.5c0.2,0,0.5-0.1,0.7-0.1
			c0.3-0.2,2-2.4,2.5-3.2c-0.3-0.4-0.6-0.8-1-1.3c-0.5-0.7-1-1.4-1.3-1.7c-0.1,0-0.5-0.1-0.7-0.1l-0.1-0.5c0.5,0.1,1.1,0.1,1.6,0.1
			c0.6,0,1.2,0,1.8,0l-0.1,0.5c-0.3,0-0.6,0.1-0.7,0.1c0.3,0.4,1,1.6,1.4,2c0.3-0.4,1-1.5,1.3-2c-0.2,0-0.5-0.1-0.6-0.1L85.5,132.6
			L85.5,132.6z M72.2,135.9c-0.7,0.7-2.1,1-2.5,1l0.1-0.5c0.7-0.2,1.7-0.6,1.7-1.8c0-0.6-0.3-1-0.7-1.2c-0.2-0.1-0.7-0.2-1.3-0.2
			c0,0.4,0,1.6,0,2.4v0.4c0,0.9,0,2.8,0,3.3c0.3,0,1,0.1,1.3,0.1l0.1,0.5c-0.7,0-1.4-0.1-2-0.1c-0.6,0-1.3,0-1.9,0.1l0.1-0.5
			c0.2,0,0.8-0.1,1-0.1c0-0.6,0-2.6,0-3.4v-0.4c0-0.2,0-1.9,0-2.4c-0.2-0.1-0.9-0.1-1.1-0.1l-0.1-0.5c0.1,0,0.7,0,1.1,0
			c0.5,0,1.1,0,1.3,0c1.4,0,2.2,0.1,2.7,0.3c1,0.4,1.1,1.1,1.1,1.4C73,134.9,72.7,135.4,72.2,135.9z"/>
	</defs>
	<clipPath id="SVGID_00000006697030826698909440000011502404414230309802_">
		<use xlink:href="#SVGID_00000002359872544353544150000013529497037818308012_"  style="overflow:visible;"/>
	</clipPath>
	
		<line style="clip-path:url(#SVGID_00000006697030826698909440000011502404414230309802_);stroke:#000000;stroke-miterlimit:10;" x1="63.3" y1="135.9" x2="109.4" y2="135.9"/>
</g>
<g>
	<defs>
		<path id="SVGID_00000148648604055187364190000005738455263610940323_" d="M126.8,135.7h-4.5c-0.1-1.5-0.3-3-0.6-4.5
			c0-0.2-0.2-0.3-0.3-0.3h-1c-0.1,0-0.2,0-0.2,0.1c-0.1,0.1-0.1,0.2-0.1,0.3c0.3,1.5,0.5,2.9,0.6,4.5h-4.3c-0.2,0-0.4,0.2-0.4,0.4
			v0.9c0,0.2,0.2,0.4,0.4,0.4h4.4c0,0.2,0,0.4,0,0.6c0,1.3-0.1,2.5-0.2,3.7c0,0.1,0,0.2,0.1,0.3c0.1,0.1,0.2,0.1,0.2,0.1h1
			c0.2,0,0.3-0.1,0.4-0.3c0.1-1.3,0.2-2.4,0.2-3.8c0-0.2,0-0.4,0-0.6h4.4c0.2,0,0.4-0.2,0.4-0.4V136
			C127.2,135.8,127,135.7,126.8,135.7z"/>
	</defs>
	<clipPath id="SVGID_00000121267520962261466680000010109653393320401836_">
		<use xlink:href="#SVGID_00000148648604055187364190000005738455263610940323_"  style="overflow:visible;"/>
	</clipPath>
	
		<line style="clip-path:url(#SVGID_00000121267520962261466680000010109653393320401836_);fill:#01147B;stroke:#01147B;stroke-miterlimit:10;" x1="113.5" y1="135.9" x2="129.6" y2="135.9"/>
</g>
<g>
	<defs>
		<path id="SVGID_00000104668249198776608590000010959471566730349486_" d="M252.3,135.7h-4.5c-0.1-1.5-0.3-3-0.6-4.5
			c0-0.2-0.2-0.3-0.3-0.3h-1c-0.1,0-0.2,0-0.2,0.1c-0.1,0.1-0.1,0.2-0.1,0.3c0.3,1.5,0.5,2.9,0.6,4.5h-4.3c-0.2,0-0.4,0.2-0.4,0.4
			v0.9c0,0.2,0.2,0.4,0.4,0.4h4.4c0,0.2,0,0.4,0,0.6c0,1.3-0.1,2.5-0.2,3.7c0,0.1,0,0.2,0.1,0.3c0.1,0.1,0.2,0.1,0.2,0.1h1
			c0.2,0,0.3-0.1,0.4-0.3c0.1-1.3,0.2-2.4,0.2-3.8c0-0.2,0-0.4,0-0.6h4.4c0.2,0,0.4-0.2,0.4-0.4V136
			C252.7,135.8,252.5,135.7,252.3,135.7z"/>
	</defs>
	<clipPath id="SVGID_00000029732919627695377020000010489373647589581193_">
		<use xlink:href="#SVGID_00000104668249198776608590000010959471566730349486_"  style="overflow:visible;"/>
	</clipPath>
	
		<line style="clip-path:url(#SVGID_00000029732919627695377020000010489373647589581193_);fill:#01147B;stroke:#01147B;stroke-miterlimit:10;" x1="237.9" y1="135.9" x2="255.4" y2="135.9"/>
</g>
<g>
	<defs>
		<path id="SVGID_00000044887626695584765680000004475738079222851713_" d="M269.4,142v-11.1h-6.9V142H269.4z M261.1,143.4v-13.9
			h9.7v13.9H261.1z"/>
	</defs>
	<clipPath id="SVGID_00000153684134489692684760000013909188181101238718_">
		<use xlink:href="#SVGID_00000044887626695584765680000004475738079222851713_"  style="overflow:visible;"/>
	</clipPath>
	
		<line style="clip-path:url(#SVGID_00000153684134489692684760000013909188181101238718_);fill:#FFD800;stroke:#FFD800;stroke-miterlimit:10;" x1="259.7" y1="135.9" x2="271.8" y2="135.9"/>
</g>
<g>
	<defs>
		<path id="SVGID_00000054983960340794760080000002948127814400684219_" d="M276.6,130.9h0.7v4.9h-0.6c-0.8-1.1-1.6-2.2-2.4-3.5h0
			v3.5h-0.7v-4.9h0.6c0.8,1.1,1.6,2.2,2.3,3.5h0V130.9z M280.5,135.7l-0.4-1.3h-1.5l-0.4,1.3h-0.7l1.7-4.9h0.7l1.5,4.9H280.5z
			 M280,133.8c-0.2-0.6-0.4-1.2-0.5-2h0c-0.2,0.7-0.4,1.3-0.6,2H280z M282.2,135.7h0.8v-4.2h1.3v-0.7h-3.4v0.7h1.3V135.7z
			 M285.4,130.9h-0.8v4.9h0.8V130.9z M285.9,133.2c0-1.4,0.9-2.4,2.1-2.4c1.2,0,2.1,1.1,2.1,2.4c0,1.4-0.8,2.6-2.1,2.6
			C286.7,135.8,285.9,134.7,285.9,133.2z M286.8,133.2c0,0.9,0.3,1.9,1.2,1.9c0.9,0,1.2-1,1.2-1.9c0-0.9-0.3-1.7-1.2-1.7
			C287.1,131.5,286.8,132.3,286.8,133.2z M291.2,132.3L291.2,132.3c0.8,1.3,1.6,2.4,2.4,3.5h0.6v-4.9h-0.7v3.5h0
			c-0.8-1.2-1.6-2.3-2.3-3.5h-0.6v4.9h0.7V132.3z M295.1,135.7h-0.7l1.7-4.9h0.7l1.5,4.9h-0.9l-0.4-1.3h-1.5L295.1,135.7z
			 M295.7,133.8h1.1c-0.2-0.6-0.4-1.2-0.5-2h0C296.1,132.6,295.9,133.2,295.7,133.8z M301,135.1h-1.6v-4.2h-0.8v4.9h2.5V135.1z
			 M275.9,141.3c-0.2,0.1-0.4,0.1-0.6,0.1c-0.7,0-1.4-0.7-1.4-1.8c0-1.1,0.6-1.8,1.5-1.8c0.3,0,0.7,0.1,0.9,0.3l0.3-0.6
			c-0.3-0.2-0.7-0.4-1.2-0.4c-1.5,0-2.4,1.2-2.4,2.5c0,1.4,0.9,2.5,2.3,2.5c0.5,0,0.9-0.1,1.4-0.3v-2h-0.8V141.3z M278.3,139.8h1.4
			v-0.7h-1.4v-1.3h1.4v-0.7h-2.2v4.9h2.5v-0.7h-1.6V139.8z M284.3,139.5c0,1.4-0.8,2.6-2.1,2.6c-1.3,0-2.1-1.1-2.1-2.6
			c0-1.4,0.9-2.4,2.1-2.4C283.5,137.1,284.3,138.2,284.3,139.5z M283.5,139.5c0-0.9-0.3-1.7-1.2-1.7c-0.8,0-1.2,0.9-1.2,1.7
			c0,0.9,0.3,1.9,1.2,1.9C283.2,141.4,283.5,140.4,283.5,139.5z M287.5,141.3c-0.2,0.1-0.4,0.1-0.6,0.1c-0.7,0-1.4-0.7-1.4-1.8
			c0-1.1,0.6-1.8,1.5-1.8c0.3,0,0.7,0.1,0.9,0.3l0.3-0.6c-0.3-0.2-0.7-0.4-1.2-0.4c-1.5,0-2.4,1.2-2.4,2.5c0,1.4,0.9,2.5,2.3,2.5
			c0.5,0,0.9-0.1,1.4-0.3v-2h-0.8V141.3z M291.1,140l1,2h-0.9l-0.8-1.8h0h-0.4v1.8h-0.8v-4.9h1.3c0.9,0,1.5,0.5,1.5,1.4
			C291.9,139.1,291.6,139.7,291.1,140z M291.1,138.6c0-0.5-0.3-0.8-0.8-0.8h-0.4v1.8c0.1,0,0.3,0,0.3,0
			C290.7,139.5,291.1,139.2,291.1,138.6z M294.4,137.2l1.5,4.9H295l-0.4-1.3h-1.5l-0.4,1.3h-0.7l1.7-4.9H294.4z M294.5,140.1
			c-0.2-0.6-0.4-1.2-0.5-2h0c-0.2,0.7-0.4,1.3-0.6,2H294.5z M299,138.6c0,0.8-0.6,1.6-1.6,1.6h-0.4v1.8h-0.8v-4.9h1.3
			C298.5,137.2,299,137.6,299,138.6z M298.2,138.6c0-0.5-0.3-0.8-0.8-0.8h-0.4v1.8c0.1,0,0.3,0,0.3,0
			C297.8,139.5,298.2,139.2,298.2,138.6z M302.1,139h-1.7v-1.9h-0.8v4.9h0.8v-2.3h1.7v2.3h0.8v-4.8h-0.8V139z M303.7,142h0.8v-4.9
			h-0.8V142z M307.4,141.4c-0.8,0-1.5-0.7-1.5-1.8c0-1.1,0.6-1.8,1.5-1.8c0.3,0,0.7,0.1,0.9,0.3l0.3-0.6c-0.3-0.2-0.7-0.4-1.1-0.4
			c-1.4,0-2.3,1.2-2.3,2.5c0,1.4,0.9,2.5,2.3,2.5c0.4,0,0.8-0.2,1.1-0.3l-0.2-0.6C308,141.3,307.7,141.4,307.4,141.4z"/>
	</defs>
	<clipPath id="SVGID_00000049192978779142313000000012982189471810894744_">
		<use xlink:href="#SVGID_00000054983960340794760080000002948127814400684219_"  style="overflow:visible;"/>
	</clipPath>
	
		<line style="clip-path:url(#SVGID_00000049192978779142313000000012982189471810894744_);stroke:#000000;stroke-miterlimit:10;" x1="273.1" y1="135.9" x2="310.4" y2="135.9"/>
</g>
<path class="st7" d="M148.1,138.7h-1.2l0.6-5.2L148.1,138.7z M152.7,132.5C152.7,132.5,152.7,132.5,152.7,132.5l0,3.9
	c0.2,0,0.3-0.1,0.5-0.1c0.5-0.2,1-0.9,1-1.9C154.2,132.6,152.9,132.5,152.7,132.5z M171.7,129.2v14.6h-36.2v-14.6H171.7z
	 M166.2,130.3H160l-1,7.4l-1-7.4h-2.2l0.2,2c-0.3-0.5-1.2-2-3.2-2c0,0-2.2,0-2.2,0l0,10.8l-1.6-10.8H146l-1.7,11.2v-11.2h-2.8
	l-1,6.3l-1-6.3h-2.8v12.2h2.2v-5.9l1,5.9h1.2l1-5.9v5.9h4.3l0.3-1.9h1.7l0.3,1.9h4.2v-4l0.5-0.1l1.1,4h2.2l-1.4-4.7
	c0.7-0.5,1.4-1.7,1.3-2.9c0.1,0.5,0.4,2.1,0.6,3.8c0.3,2,0.6,3.9,0.6,3.9h2.6l1.8-11.1v11.1h4.2v-2.2h-2v-2.8h2v-2.2h-2v-2.8h2
	V130.3z M170.6,140.4h-1.9v-10h-2.2v12.2h4.1V140.4z"/>
<path class="st8" d="M29.2,139.9c0,0,0.2,0.2,0.2,0.2c0,0,0,0,0,0c0,0,0,0,0,0"/>
<g>
	<defs>
		<path id="SVGID_00000052063707687016158800000017118524690475871678_" d="M16.3,133.6c0,0-0.1,0.2-0.1,0.3c0,0-0.1,0.1-0.1,0.1
			c-0.1,0.1-0.2,0.1-0.3,0c-0.2-0.1-0.3-0.4-0.3-0.6c0-0.1,0-0.2,0-0.3c0-0.1-0.2-0.3-0.2-0.4c-0.1-0.2-0.2-0.4-0.2-0.6
			c0-0.5,0.3-1,0.6-1.4c0.4-0.4,0.8-0.7,1.4-0.9c0.5-0.2,1.2-0.3,1.8-0.2c0.2,0.1,0.4,0.2,0.5,0.4c0,0,0,0.1,0.1,0.1
			c0,0,0.1,0,0.1,0c0.2,0,0.4,0.2,0.5,0.2c0.2,0.2,0.3,0.3,0.4,0.6c0.1,0.5-0.2,1-0.5,1.3c-0.6,0.6-1.1,1-1.8,1.2
			c-0.3,0.1-0.8,0.2-1.1,0.2c-0.1,0-0.2,0-0.3,0C16.5,133.7,16.3,133.6,16.3,133.6C16.3,133.6,16.3,133.5,16.3,133.6 M17.4,132.7
			c0.5,0,0.9-0.2,1.3-0.4c0.4-0.2,1-0.6,0.9-1.1c0-0.2-0.1-0.3-0.3-0.3c-0.2-0.1-0.3-0.1-0.5,0c-0.2,0-0.2,0.1-0.4,0.2
			c-0.5,0.3-1.1,0.8-1.4,1.3c-0.1,0.1-0.2,0.2-0.2,0.3c0,0-0.1,0.1-0.1,0.1C16.8,132.7,17.2,132.7,17.4,132.7 M15.8,132.3
			c0,0,0.2-0.2,0.3-0.4c0.2-0.3,0.7-0.8,1-1c0.1-0.1,0.2-0.2,0.2-0.2s-0.2,0-0.3,0c-0.2,0-0.6,0.3-0.8,0.4c-0.3,0.2-0.6,0.7-0.5,1
			C15.8,132.2,15.8,132.3,15.8,132.3 M16.9,134.5c-0.2,0-0.2,0.2-0.3,0.3c-0.1,0.3-0.2,1.1-0.2,1.3c-0.1,0.7-0.1,2.4,0,3.2
			c0.1,0.4,0.2,0.6,0.5,0.7c0.1,0,0.4,0,0.5,0c0.1-0.1,0.2-0.2,0.2-0.3c0.1-0.3,0-0.7,0-1c0-0.4,0-0.7,0-1.1c0-0.5-0.1-1.8-0.2-2.4
			C17.4,134.9,17.3,134.6,16.9,134.5C17,134.5,16.9,134.5,16.9,134.5 M15.7,137.5c0,0-0.1,0.2-0.1,0.3c-0.1,0.2-0.2,0.4-0.3,0.6
			c-0.2,0.3-0.6,0.8-0.8,1c-0.9,0.8-2.3,1.2-3.6,1.4c-0.8,0.1-1.8,0.1-2.7-0.1c-0.3-0.1-0.8-0.2-0.8-0.2s0,0.2,0,0.3
			c0,0.1-0.1,0.2-0.1,0.3c-0.1,0.1-0.2,0.2-0.3,0.2c-0.2,0-0.4,0-0.5,0c-0.3-0.1-0.4-0.4-0.4-0.7c0-0.2-0.1-0.7-0.1-0.7
			s-0.2-0.1-0.4-0.2c-0.5-0.3-1-0.6-1.5-0.9c-0.1-0.1-0.7-0.5-0.8-0.6c-0.3-0.3-0.6-0.6-0.8-1c-0.2-0.3-0.2-0.6-0.1-0.9
			c0.2-0.5,0.8-0.8,1.3-1c0.3-0.1,1.4-0.5,1.8-0.5c0.2,0,0.5-0.1,0.5-0.1c0,0,0,0,0,0c0,0,0-0.5,0-0.6c0-0.2,0.1-1.2,0.2-1.4
			c0-0.1,0.1-0.6,0.2-0.7c0.1-0.1,0.2-0.1,0.3,0c0.5,0.3,0.6,1.3,0.7,1.9c0,0.3,0,0.8,0,0.8s0.6,0,0.9,0c0.3,0,0.7,0.1,1,0.1
			c0.4,0.1,1.3,0.3,1.8,0.5c0.4,0.2,0.8,0.6,0.9,0.9c0.1,0.3,0.1,0.6-0.1,0.9c-0.2,0.3-0.6,0.6-0.9,0.6c-0.1,0-0.5,0-0.7-0.1
			c-0.1,0,0-0.1,0-0.2c0,0,0.2-0.1,0.3-0.2c0.1,0,0.1-0.1,0.2-0.1c0.1-0.1,0.2-0.2,0.2-0.3c0-0.1-0.2-0.2-0.3-0.3
			c-0.7-0.3-2-0.5-2.7-0.5c-0.3,0-0.6,0-0.6,0l0.1,3.6c0,0,0.3,0.1,0.5,0.1c0.1,0,0.7,0.1,0.9,0.1c1.2,0,2.5-0.1,3.5-0.6
			c0.5-0.2,0.9-0.5,1.2-0.9c0.4-0.5,0.7-1.2,0.6-1.9c-0.1-0.8-0.6-1.7-1-2.2c-1.1-1.5-3.1-2.7-4.8-3.4c-1.8-0.7-3.5-1.1-5.4-1.2
			c-0.5,0-1.5,0-2.1,0.2c-0.1,0-0.2,0-0.2,0.1c-0.1,0-0.1,0-0.2,0.1c0,0,0,0,0,0s0,0,0.1,0c0.1,0,0.3,0,0.4,0.1
			c0.1,0,0.2,0.1,0.3,0.2c0,0.1,0,0.1,0,0.2c-0.1,0.1-0.6,0.1-0.8,0.1c-0.2,0-0.5-0.1-0.5-0.3c-0.1-0.2,0-0.4,0.2-0.6
			c0.2-0.4,0.5-0.6,1-0.7c0.7-0.2,1.5-0.3,2.1-0.3c1.4-0.1,2.7,0.2,4.1,0.6c0.8,0.2,1.8,0.6,2.5,1c0.5,0.3,1.4,0.7,1.8,1
			c0.1,0.1,1,0.7,1.2,0.8c0.3,0.2,0.7,0.6,0.9,0.8c0.5,0.5,1.2,1.3,1.5,1.9c0.1,0.1,0.1,0.3,0.2,0.5c0,0.1,0.2,0.5,0.2,0.5
			C15.7,135.6,16,136.6,15.7,137.5z M6,135.9c0,0-0.5,0-0.9,0.1c-0.5,0.1-1.3,0.2-1.9,0.4c-0.2,0.1-0.5,0.2-0.5,0.3
			c0,0.2,0.1,0.3,0.2,0.4c0.1,0.1,0.4,0.4,0.5,0.5c0.4,0.4,1.3,0.9,1.9,1.2C5.7,138.9,6,139,6,139s0-1,0-2C6,136.4,6,135.9,6,135.9
			 M21.6,136.4l-2-0.2c0,0,0,0-0.1,0c-0.1,0-0.5-0.1-0.3-0.2c0,0,0.2-0.1,0.2-0.1c0.9-0.2,2-0.2,3-0.3c0.2,0,0.7,0,0.9-0.1
			c0.2-0.1,0.4-0.2,0.5-0.5c0-0.1,0-0.2-0.2-0.3c-0.8-0.4-2.1-0.4-2.9-0.3c-0.8,0.1-1.9,0.4-2.4,1c-0.2,0.3-0.3,0.6-0.2,1
			c0,0.2,0.2,0.3,0.4,0.4c0.2,0.1,0.4,0.1,0.5,0.1c0.2,0,0.9,0.1,1.4,0.1c0.5,0,1.3,0.1,1.8,0.3c0.2,0.1,0.4,0.2,0.4,0.4
			c0,0.1-0.1,0.2-0.2,0.3c-0.7,0.5-1.7,0.6-2.5,0.6c-0.3,0-0.5,0-0.8-0.2c-0.1-0.1-0.3-0.2-0.3-0.3c0-0.3,0.3-0.3,0.6-0.3
			c0.1,0,0.3,0.1,0.5,0.1c0.5,0.2,0.8,0.4,1.3,0.3c0.2,0,0.8-0.2,0.9-0.4c0-0.1,0-0.1-0.1-0.2c-0.1-0.1-0.4-0.2-0.5-0.2
			c-0.4-0.1-1.1-0.2-1.5-0.3c-0.5,0-1.2,0.1-1.5,0.5c-0.2,0.3-0.2,0.6,0,0.9c0.2,0.4,0.7,0.7,1,0.9c0.6,0.3,1.3,0.4,2,0.4
			c0.4,0,0.7-0.1,1.1-0.3c0.3-0.2,0.7-0.5,0.9-0.8c0.2-0.5,0.2-1.1,0-1.5c-0.2-0.3-0.3-0.5-0.6-0.6
			C22.5,136.5,22.1,136.5,21.6,136.4C21.6,136.4,21.6,136.4,21.6,136.4 M24.3,139.9c0.1,0.1,0.2,0.1,0.4,0c0.2-0.1,0.2-0.2,0.3-0.4
			c0.1-0.3,0.1-0.9,0.1-1.1c0,0,0-1.4,0.1-1.7c0,0,0-0.1,0.1-0.1c0,0,0.1,0,0.1,0.1c0.1,0.1,0.6,1.1,0.9,1.7
			c0.1,0.2,0.6,1.1,0.9,1.2c0.3,0.2,0.7,0,0.9-0.2c0.1-0.1,0.3-0.4,0.4-0.6c0.2-0.5,0.3-1.2,0.2-1.7c0-0.5-0.1-1-0.3-1.4
			c0-0.1-0.2-0.6-0.3-0.7c-0.1-0.3-0.7-1.1-1-1.3c-0.2-0.1-0.3,0-0.3,0.2c0,0.1,0,0.3,0.1,0.4c0.1,0.4,0.2,0.9,0.4,1.3
			c0.1,0.4,0.2,1,0.3,1.4c0,0.1,0,0.3,0,0.4c0,0.1,0,0.6,0,0.6c0,0-0.1,0-0.1,0c0,0-0.1-0.1-0.1-0.1c-0.3-0.4-0.6-0.8-0.8-1.3
			c-0.3-0.4-0.7-1-0.9-1.4c-0.1-0.2-0.3-0.3-0.5-0.3c-0.3,0-0.4,0.4-0.5,0.7c-0.3,0.9-0.6,2.3-0.5,3.3
			C23.9,139.2,24,139.8,24.3,139.9 M29.5,140.1L29.5,140.1C29.5,140.1,29.5,140.1,29.5,140.1C29.5,140.1,29.5,140.1,29.5,140.1
			c0,0,0.2,0.1,0.3,0.1c0.3,0.1,0.3,0.1,0.7,0.1c0.7-0.1,1.6-0.5,2.1-0.9c0.2-0.1,0.3-0.2,0.3-0.4c0-0.2-0.1-0.3-0.2-0.5
			c-0.1-0.2-0.3-0.2-0.5-0.1c-0.5,0.1-1.1,0.2-1.5,0.2c-0.1,0-0.2,0-0.3,0c-0.1,0-0.1,0-0.1,0s0.1-0.3,0.2-0.5
			c0.1-0.3,0.2-0.5,0.2-0.5s0.1,0,0.2,0c0.2,0,1.5,0,1.6,0c0.2,0,0.3-0.2,0.3-0.5c0-0.2-0.1-0.4-0.3-0.5c-0.1,0-0.2,0-0.3,0
			c-0.4,0-1.2,0-1.2,0l0.2-0.7c0,0,0.4,0,0.8,0c0.2,0,1.3,0,1.6-0.2c0.2-0.1,0.1-0.4,0-0.6c-0.3-0.4-0.6-0.6-1-0.6
			c-0.3,0-1.3,0.1-1.5,0.1c-0.2,0-0.5,0.1-0.7,0.1c-0.2,0-0.8,0.1-0.9,0.2c-0.2,0.1-0.3,0.2-0.2,0.4c0.1,0.2,0.2,0.3,0.4,0.3
			c0.2,0.1,0.5,0.1,0.5,0.1s-0.1,0.3-0.2,0.6c-0.1,0.2-0.1,0.4-0.2,0.4c0,0,0,0-0.1,0c-0.3,0-0.4,0.2-0.4,0.4c0,0.1,0.1,0.5,0.1,0.6
			c0,0,0,0,0,0.1c-0.2,0.4-0.2,0.5-0.3,0.8c-0.1,0.3-0.1,0.7,0.1,1c0,0,0,0.1,0.1,0.1c0,0.1,0.2,0.3,0.2,0.3 M35,140.2
			c0,0-0.1,0.3-0.2,0.6c-0.1,0.4-0.4,1.6-0.5,2c-0.1,0.5-0.4,1.9-0.4,2c0,0,0,0.1-0.1,0.1c-0.1,0.1-0.2,0-0.3,0
			c-0.2-0.1-0.4-0.2-0.5-0.4c-0.3-0.4-0.2-1.1-0.2-1.5c0.2-1.5,0.4-2.1,1-3.6c0,0,0,0,0-0.1c-0.2-0.4-0.3-0.8-0.3-1.2
			c0-1.1,0.7-2.3,1.4-3.2c0.1-0.1,0.4-0.5,0.6-0.5c0.2,0,0.2,0.2,0.2,0.4c-0.1,0.5-0.5,1.1-0.7,1.5c-0.3,0.5-0.4,0.7-0.5,1.2
			c0,0.1-0.1,0.4-0.1,0.4c0,0.1,0,0.3,0,0.3s0.5-0.7,0.8-1.1c0.2-0.2,0.3-0.4,0.4-0.5c0.1-0.2,0.7-0.7,0.9-0.9
			c0.3-0.3,0.5-0.4,0.8-0.6c0.3-0.1,0.5-0.2,0.8,0c0.4,0.3,0.6,0.9,0.7,1.4c0.1,0.6-0.1,1.3-0.3,1.8c-0.3,0.6-0.7,1-1.3,1.4
			c-0.6,0.4-1.3,0.7-2,0.6C35.1,140.2,35,140.2,35,140.2 M37.8,136c-0.3,0.3-0.8,0.9-1,1.2c-0.3,0.4-0.6,0.9-0.8,1.2
			c-0.1,0.1-0.2,0.4-0.2,0.4c0,0,0.2,0,0.3,0c0.4-0.1,0.9-0.3,1.1-0.5c0.4-0.3,0.7-0.8,0.8-1.3c0.1-0.2,0.1-0.7-0.1-0.9
			C37.9,136,37.8,135.9,37.8,136"/>
	</defs>
	<clipPath id="SVGID_00000136387179224744508520000007950194277854540991_">
		<use xlink:href="#SVGID_00000052063707687016158800000017118524690475871678_"  style="overflow:visible;"/>
	</clipPath>
	
		<line style="clip-path:url(#SVGID_00000136387179224744508520000007950194277854540991_);fill:#01147B;stroke:#01147B;stroke-miterlimit:10;" x1="0" y1="135.9" x2="42.2" y2="135.9"/>
</g>
<g>
	<defs>
		<path id="SVGID_00000111892756448508468480000001211795382837748121_" d="M205.8,143.7C205.8,143.7,205.8,143.7,205.8,143.7
			l-0.8-2.6c0,0,0,0,0,0c0,0,0,0,0,0l0,0c0,0-0.8,2.6-0.8,2.6c0,0,0,0,0,0c0,0-2.3,0-2.3,0c0,0,0,0,0,0c0,0-2.1-6.9-2.1-6.9s0,0,0,0
			c0,0,0,0,0,0c0,0,2.8,0,2.8,0c0,0,0,0,0,0l0.5,1.8c0,0,0,0,0,0c0,0,0,0,0,0c0,0,0.5-1.8,0.5-1.8c0,0,0,0,0,0c0,0,2.8,0,2.8,0
			c0,0,0,0,0,0l0.6,1.8c0,0,0,0,0,0c0,0,0,0,0,0c0,0,0.5-1.8,0.5-1.8c0,0,0,0,0,0c0,0,2.6,0,2.6,0c0,0,0,0,0,0c0,0-2.1,6.9-2.1,6.9
			c0,0,0,0,0,0C208.1,143.7,205.8,143.7,205.8,143.7z M217.5,143.6C217.5,143.6,217.4,143.7,217.5,143.6c-0.1,0.1-2.5,0.1-2.5,0.1
			c0,0,0,0,0,0l-0.3-0.9c0,0,0,0-0.1,0l-2.3,0c0,0,0,0-0.1,0l-0.3,0.9c0,0,0,0,0,0l-2.5,0c0,0-0.1,0-0.1-0.1c0,0,2.1-6.8,2.1-6.8
			c0,0,0-0.1,0.1-0.1l3.7,0c0,0,0.1,0,0.1,0.1C215.3,136.8,217.5,143.6,217.5,143.6z M214,140.7c0,0-0.5-1.8-0.5-1.8
			c0-0.1,0-0.1,0-0.1l0,0c0,0,0,0,0,0.1c0,0-0.5,1.7-0.5,1.8c0,0,0,0.1,0.1,0.1L214,140.7C214,140.8,214,140.7,214,140.7z
			 M229.6,139C229.6,139,229.6,139.1,229.6,139c0.1,0.2,0.7,0.8,0.9,1c0.2,0.2,0.6,0.6,0.6,1.5c0,0.9-0.5,1.4-0.6,1.5
			c-0.1,0.1-0.6,0.6-1.6,0.6l-5.3,0c0,0-0.8,0-1.3-0.5l-1.4-1.4c0,0-0.1,0-0.1,0v1.9c0,0-2.7,0-2.7,0c0,0,0,0,0,0c0,0,0-6.9,0-6.9
			h4.9c0,0,0.9,0,1.6,0.6c0.7,0.6,0.7,1.3,0.7,1.7c0,0.4-0.1,1.1-0.8,1.6c0,0-0.3,0.2-0.5,0.3c0,0-0.1,0-0.1,0.1c0,0,0,0.2,0.4,0.2
			l3.4,0c0,0,0.1,0,0.1-0.1c0,0,0,0,0-0.1c0,0-0.6-0.6-0.9-0.9c0,0-0.5-0.6-0.5-1.4c0-0.8,0.5-1.3,0.8-1.6c0.3-0.2,0.9-0.5,1.3-0.5
			h4.4v2.3L229.6,139C229.6,139,229.6,139,229.6,139z M222.7,139.1c0-0.4-0.3-0.5-0.5-0.5h-1.4c0,0,0,0,0,0.1l0,0.8c0,0,0,0.1,0,0.1
			l1.5,0C222.4,139.6,222.7,139.5,222.7,139.1z M206.2,129.2c-0.4,0-1,0.2-1.3,0.5c-0.3,0.2-0.8,0.8-0.8,1.6c0,0.8,0.5,1.4,0.5,1.4
			c0.2,0.3,0.9,0.9,0.9,0.9c0,0,0,0,0,0.1c0,0,0,0.1-0.1,0.1c0,0-5.6,0-5.6,0v2.5h6.7c0.9,0,1.4-0.5,1.6-0.6
			c0.1-0.1,0.6-0.7,0.6-1.5c0-0.9-0.4-1.3-0.6-1.5c-0.1-0.2-0.7-0.8-0.9-0.9c0,0,0,0,0-0.1c0,0,0-0.1,0-0.1l3.2,0v4.7h2.5v-4.7h3
			v-2.3H206.2z M233.1,133.7v2.5h-4.2c0,0-0.8,0-1.3-0.5l-1.4-1.4c0,0-0.1,0-0.1,0v1.9c0,0-2.7,0-2.7,0c0,0,0,0,0,0c0,0,0-6.9,0-6.9
			h4.9c0,0,0.9,0,1.6,0.6c0.7,0.6,0.7,1.3,0.7,1.7c0,0.4-0.1,1.1-0.8,1.6c0,0-0.3,0.2-0.5,0.3c0,0-0.1,0-0.1,0.1c0,0,0,0.2,0.4,0.2
			H233.1z M228.1,131.7c0-0.4-0.3-0.5-0.5-0.5h-1.4c0,0,0,0,0,0.1l0,0.8c0,0,0,0.1,0,0.1l1.5,0C227.7,132.1,228.1,132,228.1,131.7z
			 M222.9,136.1C222.9,136.2,222.9,136.2,222.9,136.1c-0.1,0.1-2.5,0.1-2.5,0.1c0,0,0,0,0,0l-0.3-0.9c0,0,0,0-0.1,0l-2.3,0
			c0,0,0,0-0.1,0l-0.3,0.9c0,0,0,0,0,0l-2.5,0c0,0-0.1,0-0.1-0.1c0,0,2.1-6.8,2.1-6.8c0,0,0-0.1,0.1-0.1l3.7,0c0,0,0.1,0,0.1,0.1
			C220.8,129.3,222.9,136.1,222.9,136.1z M219.5,133.2c0,0-0.5-1.8-0.5-1.8c0-0.1,0-0.1,0-0.1l0,0c0,0,0,0,0,0.1
			c0,0-0.5,1.7-0.5,1.8c0,0,0,0.1,0.1,0.1L219.5,133.2C219.5,133.3,219.5,133.3,219.5,133.2z"/>
	</defs>
	<clipPath id="SVGID_00000073708035381246447930000008852727646248586417_">
		<use xlink:href="#SVGID_00000111892756448508468480000001211795382837748121_"  style="overflow:visible;"/>
	</clipPath>
	
		<line style="clip-path:url(#SVGID_00000073708035381246447930000008852727646248586417_);stroke:#000000;stroke-miterlimit:10;" x1="196.5" y1="135.9" x2="236.1" y2="135.9"/>
</g>
<g>
	<defs>
		<path id="SVGID_00000078039229218806834500000000376949117373187503_" d="M351.4,131.2h-7.1v2.2h2.3v8.6h2.4v-8.6h2.3V131.2z
			 M339.8,135.1c-0.7-0.3-1-0.7-1-1.1c0-0.5,0.4-0.9,1.1-0.9c0.6,0,1,0.3,1.4,1.1l2.1-0.9c-0.6-1.4-1.7-2.3-3.6-2.3
			c-2,0-3.4,1.3-3.4,3c0,1.2,0.6,2.1,2,2.9l1.4,0.7c0.8,0.4,1.2,0.7,1.2,1.3c0,0.6-0.5,1.1-1.2,1.1c-0.7,0-1.4-0.4-1.7-1.3l-2.2,0.6
			c0.5,1.8,2,2.8,3.9,2.8c2.1,0,3.6-1.3,3.6-3.2c0-1.5-0.8-2.4-2.3-3.2L339.8,135.1z"/>
	</defs>
	<clipPath id="SVGID_00000037670397639634829660000008791524898386240933_">
		<use xlink:href="#SVGID_00000078039229218806834500000000376949117373187503_"  style="overflow:visible;"/>
	</clipPath>
	
		<line style="clip-path:url(#SVGID_00000037670397639634829660000008791524898386240933_);fill:#261E3C;stroke:#261E3C;stroke-miterlimit:10;" x1="334.8" y1="135.9" x2="352.3" y2="135.9"/>
</g>
<g>
	<defs>
		<path id="SVGID_00000011752183420368710090000003832916792572132492_" d="M327.7,135.7h-4.5c-0.1-1.5-0.3-3-0.6-4.5
			c0-0.2-0.2-0.3-0.3-0.3h-1c-0.1,0-0.2,0-0.2,0.1c-0.1,0.1-0.1,0.2-0.1,0.3c0.3,1.5,0.5,2.9,0.6,4.5h-4.3c-0.2,0-0.4,0.2-0.4,0.4
			v0.9c0,0.2,0.2,0.4,0.4,0.4h4.4c0,0.2,0,0.4,0,0.6c0,1.3-0.1,2.5-0.2,3.7c0,0.1,0,0.2,0.1,0.3c0.1,0.1,0.2,0.1,0.2,0.1h1
			c0.2,0,0.3-0.1,0.4-0.3c0.1-1.3,0.2-2.4,0.2-3.8c0-0.2,0-0.4,0-0.6h4.4c0.2,0,0.4-0.2,0.4-0.4V136
			C328.1,135.8,327.9,135.7,327.7,135.7z"/>
	</defs>
	<clipPath id="SVGID_00000008135886450636550900000017821301859693469854_">
		<use xlink:href="#SVGID_00000011752183420368710090000003832916792572132492_"  style="overflow:visible;"/>
	</clipPath>
	
		<line style="clip-path:url(#SVGID_00000008135886450636550900000017821301859693469854_);fill:#01147B;stroke:#01147B;stroke-miterlimit:10;" x1="313.3" y1="135.9" x2="330.8" y2="135.9"/>
</g>
<g>
	<defs>
		<path id="SVGID_00000122707594941113826540000006716378072728274617_" d="M177,79.4h0.3c1.8,0.2,3.6,0.6,5.3,1.3
			c1.3,0.5,2.3,1.5,2.9,2.7c2.1,3.7,0.8,8.4-2.9,10.4c-0.2,0.1-0.5,0.3-0.8,0.4c-1.5,0.7-3.1,1.2-4.8,1.3c-3.1,0.3-6.3-0.3-9.1-1.6
			c-1.9-0.8-3.5-2.2-4.6-3.9c-0.8-1.3-0.7-2.9,0.2-4.2c1.4-2,4.5-2.4,6.8-2.3c2.2,0.1,4.4,0.5,6.6,1.2c0.9,0.3,1.7,0.7,2.5,1.1
			c0.2,0.2,0.3,0.5,0.2,0.8c-0.4,1.2-3.2,1.8-4,1.9c-2.2,0.3-3.3-0.5-5.8-1.5c-0.7-0.3-1.4-0.5-2.1-0.6c-1.1-0.1-2.5,0.2-2.7,1.4
			c-0.1,0.6,0.6,1.2,1.2,1.5c1.2,0.5,2.4,0.8,3.7,0.8c3.9,0.1,8.2-0.6,11.4-2.8c0.5-0.3,0.8-0.8,0.9-1.3c0-1.2-2-1.9-2-1.9
			c-2.1-0.9-6.1-1.3-8.1-1.5s-5.5-0.5-6.3-0.6c-0.8-0.1-1.7-0.3-2.5-0.6c-0.8-0.4-1.4-1-1.6-1.9c-0.3-1.5,0-3.1,0.9-4.4
			c2.1-3,7.1-4.2,10.8-4.7s9.4-0.4,12.9,1.4c0.5,0.3,0.8,0.6,0.7,1.1c-0.2,1-1,1.8-2,2.1c-1.4,0.3-2.8,0.5-4.2,0.5
			c-4.2,0.2-9.4,0.1-13.5,1.2c-0.4,0.1-0.7,0.2-1,0.4c-0.6,0.7,1.2,0.9,1.6,1h0.3l9,1.1"/>
	</defs>
	<clipPath id="SVGID_00000111893264590410400000000017376203499256846223_">
		<use xlink:href="#SVGID_00000122707594941113826540000006716378072728274617_"  style="overflow:visible;"/>
	</clipPath>
	
		<path style="clip-path:url(#SVGID_00000111893264590410400000000017376203499256846223_);fill:none;stroke:#101C50;stroke-miterlimit:10;" d="
		M188.7,72.9c0,0-26.4-3.4-24.8,6.4c0,0,3.3,1.9,6.9,1.7c3.6-0.3,22,1.3,9.8,11.1c0,0-10.9,4.8-16.8-4c0,0,0.2-6.7,14.7-0.5"/>
</g>
<path class="st14" d="M151.9,60.4L151.9,60.4C151.8,60.4,151.8,60.4,151.9,60.4C151.9,60.4,151.9,60.4,151.9,60.4z"/>
<g>
	<defs>
		<path id="SVGID_00000150071844787444732190000010751447785187833760_" d="M172.5,54.4c-0.2-1.1-0.8-2-1.7-2.7
			c-0.7-0.5-1.5-0.9-2.4-1.1c-0.2,0-0.4-0.1-0.6-0.1c-0.1-0.1-0.2-0.2-0.3-0.4c-0.7-0.8-1.5-1.3-2.5-1.7c-2.4-0.8-5.7-0.2-7.9,0.7
			c-2.3,1-4.4,2.4-6.2,4.2c-1.8,1.6-2.8,3.9-2.8,6.4c0.1,0.9,0.3,1.8,0.7,2.7c0.4,0.5,0.8,1.2,1.1,1.8c0,0.4,0,0.8,0,1.3
			c0,1,0.5,2,1.2,2.6c0,0,0,0,0,0c0.4,0.4,1.1,0.4,1.5,0c0.2-0.2,0.4-0.4,0.5-0.6c0.2-0.4,0.4-0.8,0.7-1.2l0,0c0,0,0.2,0,0.3,0.1
			c0.4,0.2,0.8,0.2,1.2,0.3c0.5,0,1,0.2,1.5,0.2c1.8,0,3.5-0.3,5.2-0.9c3.1-1.2,5.9-3.1,8.1-5.6C171.7,59.1,173,56.6,172.5,54.4z
			 M153.1,58.6c-0.5,0.8-1.2,1.7-1.2,1.8c-0.1-0.1-0.2-0.3-0.2-0.5c-0.7-1.6,0.8-3.5,2.1-4.6c1-0.9,2.2-1.6,3.5-2
			c0.5-0.1,1.3-0.2,1.3-0.2l-1,0.8C155.9,55.3,154.4,56.9,153.1,58.6z M165.1,60.7c-1.8,1-3.8,1.6-5.9,1.8l0,0
			c-0.8,0.1-2.9,0.1-3-0.2c0-0.1,0-0.1,0.3-0.5s0.6-0.9,1-1.4c1.9-2.3,4-4.2,6.5-5.8c0.5-0.3,1.1-0.6,1.8-0.8c0.7-0.3,1.5-0.3,2.2,0
			c0.6,0.3,1.1,0.9,1.2,1.6C169.5,57.8,166.9,59.7,165.1,60.7z"/>
	</defs>
	<clipPath id="SVGID_00000018938643152826509430000013991989136427914173_">
		<use xlink:href="#SVGID_00000150071844787444732190000010751447785187833760_"  style="overflow:visible;"/>
	</clipPath>
	
		<path style="clip-path:url(#SVGID_00000018938643152826509430000013991989136427914173_);fill:none;stroke:#101C50;stroke-miterlimit:10;" d="
		M150.9,70.3c0,0,3.5-19,18.3-18.3c0,0,5.7,4.9-4.7,10.4c-10.4,5.5-15.4,0.2-15-3.9s9-10.9,15.4-8.1s1.3,6.8,1.3,6.8"/>
</g>
<g>
	<defs>
		<path id="SVGID_00000082358315859165941810000016582475991699070655_" d="M156.8,71.3c0.1,0,0.3,0.1,0.4,0.1
			c1,0.5,1.7,1.5,1.9,2.6c0.6,3.6,0.9,7.2,1,10.8c0.1,1.7,0.1,3.4,0.2,5.1c0.1,1.6,0.1,3.1-0.1,4.7c-0.1,0.5-0.4,1-0.9,1.3
			c-0.8,0.3-1.6,0.4-2.4,0.2c-1.6-0.3-2.2-1.4-2.4-3c-0.4-4.9-0.4-9.8,0-14.6c0.2-2,0.5-3.9,1.1-5.9C155.6,72.1,156,71.2,156.8,71.3
			"/>
	</defs>
	<clipPath id="SVGID_00000062904262068857997240000013861909394207521963_">
		<use xlink:href="#SVGID_00000082358315859165941810000016582475991699070655_"  style="overflow:visible;"/>
	</clipPath>
	
		<line style="clip-path:url(#SVGID_00000062904262068857997240000013861909394207521963_);fill:none;stroke:#101C50;stroke-miterlimit:10;" x1="157.2" y1="69.6" x2="157.2" y2="100.2"/>
</g>
<g>
	<defs>
		<path id="SVGID_00000137846549218581434790000001840659594899665300_" d="M151.5,79.5c-0.1-0.7-0.2-1.5-0.3-2.2
			c0,0-0.2-0.7-0.3-1.2c-0.2-0.8-0.5-1.6-0.9-2.3c-0.4-0.8-0.7-1.5-1-2.1c-1.8-3.2-4.1-6.2-6.7-8.8c-1.2-1.2-2.9-2.7-4.2-3.8
			c-0.6-0.5-4.6-3.4-5.3-3.9c-2.7-1.7-5.5-3.3-8.4-4.7c-3.7-1.8-7.6-3.3-11.5-4.5c-6-2-12.3-2.9-18.6-2.8c-3.2,0.2-6.4,0.7-9.6,1.5
			c-1.9,0.4-3.6,1.6-4.5,3.2c-0.6,0.8-0.8,1.8-0.7,2.8c0.2,0.8,1.4,1.1,2.3,1.3c0.9,0.2,3,0.3,3.5-0.4c0.2-0.3,0.2-0.6,0-0.9
			c-0.3-0.4-0.7-0.7-1.2-0.7c-0.6-0.1-1.6-0.2-1.9-0.3l-0.3-0.1l0.1-0.1c0.2-0.1,0.5-0.2,0.8-0.3c0.3-0.1,0.6-0.2,1-0.3
			c3.1-0.6,6.3-0.8,9.4-0.7c8.4,0.3,16.8,2.2,24.5,5.5c7.9,3.2,16.8,8.8,22.1,15.5c2,2.5,4.5,6.7,4.8,10.2c0.3,3.1-0.7,6.2-2.7,8.6
			c-1.6,1.7-3.5,3.1-5.6,4c-4.9,2.3-10.8,2.8-16.2,2.7c-0.7,0-3.4-0.3-4-0.3c-1.1-0.2-2.5-0.4-2.5-0.4l-0.4-16.5
			c0,0,1.7,0.1,2.8,0.1c4.2,0.3,8.3,1.1,12.3,2.4c0.7,0.3,1.3,0.7,1.4,1.3c0,0.5-0.4,0.9-0.8,1.3c-0.2,0.2-0.5,0.4-0.7,0.5
			c-0.5,0.3-1.4,0.8-1.5,0.8c-0.2,0.2-0.2,0.5,0,0.7c0.9,0.5,2,0.7,3,0.7c1.8-0.2,3.4-1.2,4.3-2.8c0.8-1.2,0.9-2.7,0.3-4
			c-0.8-1.8-2.2-3.3-4-4.1c-2.6-1.1-5.4-1.9-8.2-2.3c-1.6-0.3-3.2-0.5-4.8-0.5c-1.6-0.1-4.1,0-4.1,0s-0.1-2.2-0.2-3.7
			c-0.2-2.4-0.8-7.2-3.1-8.6c-0.4-0.3-0.9-0.2-1.2,0.1c-0.5,1-0.8,2.1-1,3.3c-0.2,1-0.7,5.9-0.7,6.6s-0.1,2.8-0.1,2.9l-0.1,0.1
			c-0.1,0-1.5,0.3-2.4,0.4c-2.8,0.6-5.5,1.4-8.1,2.5c-2,0.9-5,2.5-5.9,4.5c-0.6,1.4-0.4,2.9,0.4,4.2c1,1.7,2.3,3.3,3.9,4.6
			c0.5,0.5,2.9,2.5,3.5,2.9c2.1,1.6,4.4,3,6.8,4.1c0.8,0.4,1.8,0.9,1.8,0.9s0.2,1.9,0.4,3c0.3,1.4,0.7,2.6,2,3.1
			c0.8,0.3,1.7,0.3,2.5,0.1c0.6-0.1,1.2-0.4,1.5-1c0.2-0.4,0.3-0.8,0.3-1.2c0.1-0.6,0.1-1.4,0.1-1.4s2,0.5,3.4,0.7
			c4,0.7,8.1,0.8,12.1,0.3c5.6-0.7,12.1-2.7,16.2-6.4c1.5-1.4,2.8-3,3.8-4.7c0.5-0.9,1-1.8,1.4-2.7c0.3-0.9,0.6-1.7,0.8-2.6
			c0.2-1.3,0.3-2.7,0.2-4L151.5,79.5z M104.3,91c-3.2-1.4-6.1-3.2-8.9-5.4c-0.4-0.3-2.1-2-2.4-2.3c-0.6-0.5-0.9-1.2-0.8-1.9
			c0.1-0.7,1.5-1.3,2.2-1.5c2.8-0.9,5.6-1.4,8.5-1.8c1.7-0.2,4.1-0.4,4.1-0.4c0,0.2-0.1,2.5-0.1,4.9c0,4.7,0.1,9.4,0.1,9.4
			S105.3,91.5,104.3,91z"/>
	</defs>
	<clipPath id="SVGID_00000088092537372064060200000005970761205990159748_">
		<use xlink:href="#SVGID_00000137846549218581434790000001840659594899665300_"  style="overflow:visible;"/>
	</clipPath>
	
		<path style="clip-path:url(#SVGID_00000088092537372064060200000005970761205990159748_);fill:none;stroke:#101C50;stroke-miterlimit:10;" d="
		M88,51.1c0,0-11.5,0.8-6.3-3.1c5.3-3.9,60.5-5.6,66.4,35.7c0,0-8.2,27.1-50.7,5.5c0,0-21.9-14.4,16.7-15.3c0,0,32.9,4.7,11.5,10.9
		l-11.5-31.2h-5l0.6,57.5"/>
</g>
<g>
	<defs>
		<path id="SVGID_00000099627329277678408870000005250024147941484966_" d="M231.7,75.8c-3.6,0.6-7.2,0.9-10.8,1.1l-1,3.1
			c2.3-0.2,4.5-0.2,6.8,0c0,0,0.9-0.1,1,1c0,0.7,0,1.5-0.1,2.2c0,0-0.1,0.7-1,0.9s-8.5,0.5-8.5,0.5l-1.2,4c0,0-0.4,0.9,0.5,0.7
			s8.7-1.7,9.7-1.5c1.3,0.4,2.1,1.7,1.9,3c-0.4,1.6-8.1,6.5-12.8,6.2c0,0-2.5,0.2-4.6-3.2c-1.9-3.2,0.7-9.2,0.7-9.2
			s-1.2-2.8-0.3-3.8c0.6-0.4,1.3-0.6,2.1-0.6l1.9-3.9c-1.3,0.1-2.6-0.5-3.4-1.4c-1.2-1.5-1.3-2.2-0.4-2.6s10-2.1,16.1-1.9
			c0,0,2.2-0.2,4,3.5C232.3,73.9,233.2,75.4,231.7,75.8"/>
	</defs>
	<clipPath id="SVGID_00000029043080222939213000000001092870056733223552_">
		<use xlink:href="#SVGID_00000099627329277678408870000005250024147941484966_"  style="overflow:visible;"/>
	</clipPath>
	
		<path style="clip-path:url(#SVGID_00000029043080222939213000000001092870056733223552_);fill:none;stroke:#101C50;stroke-miterlimit:10;" d="
		M210.9,74.1l23.2-1.8l-16.6,2.3c0,0-7.1,19.4-1.5,19.4c5.5,0,13.3-5.4,13.3-5.4l-19.7,4.7l0.9-10.5l18.6-1.3"/>
</g>
<g>
	<defs>
		<path id="SVGID_00000036949634905453672920000004061974482765915070_" d="M208.4,90.7c-0.8,1.9-2.9,3.9-5.5,2.6s-6.6-9.6-6.6-9.6
			s-1.5-3.1-1.9-3c0,0-0.3-0.6-0.5,2.8s0,10-1.3,11c-1,0.9-2.5,0.8-3.4-0.2c-0.1-0.1-0.2-0.2-0.3-0.4c-0.7-1.2-1-4-0.6-9.1
			s1.6-10.4,3.1-12c0.6-0.9,1.8-1.1,2.7-0.5c0.2,0.1,0.3,0.3,0.5,0.5c0,0,2,1.8,5.3,7.1l0.6,1c0,0,3,5,3.3,5c0,0,0.2,0.2,0.5,0.1
			s0.2-1.7,0.2-1.7c-0.7-5-1.8-9.9-3.3-14.7c-0.2-0.7-0.3-1.5-0.1-2.2c0.3-1.1,1.4-0.6,1.4-0.6s4.2,2.1,6.3,9S209.2,88.9,208.4,90.7
			"/>
	</defs>
	<clipPath id="SVGID_00000036945970682676194500000003407705177457295805_">
		<use xlink:href="#SVGID_00000036949634905453672920000004061974482765915070_"  style="overflow:visible;"/>
	</clipPath>
	
		<path style="clip-path:url(#SVGID_00000036945970682676194500000003407705177457295805_);fill:none;stroke:#101C50;stroke-miterlimit:10;" d="
		M191.4,97.7c0,0-2.7-14.5,1.8-22.6L204.4,92c0,0,8.6-12.3-4.5-26.6"/>
</g>
<g>
	<defs>
		<path id="SVGID_00000172401077428966522060000012077183879101123466_" d="M253.1,72.7c-5.1-3.5-13.4,7.7-17,13.3
			c-0.5-2.8,1.4-6.4,1.4-6.4s3.1-5.3,3.5-6.4c0.4-1.1,0.6-3.3,0.1-3.5c-0.5-0.2-1.3,0.5-1.3,0.5c-6.9,6.2-7.9,13.1-7.9,13.1
			c-0.6,2.8-0.2,5.7,1.2,8.1c-3.8,8.2-5.7,15.3-5.2,19.5c0.5,3.2,2.8,5.4,4.2,6c1.4,0.6,1.7-1.1,1.7-1.1c0.9-7,2.7-13.8,5.5-20.3
			c7.2,1.7,12.6-5.4,14.6-8.7l0,0c1.2-2.2,1.8-4.7,1.7-7.2C255.6,76.6,254.8,74,253.1,72.7z M248.4,86.7c-1.9,1.4-4.1,2.3-6.4,2.6
			c2.2-4,4.8-7.8,7.9-11.2c2.2-2.5,2.5-0.2,2.5-0.2l0,0C252.8,82.2,249.7,85.5,248.4,86.7z"/>
	</defs>
	<clipPath id="SVGID_00000160174445694767963300000010822640197949765557_">
		<use xlink:href="#SVGID_00000172401077428966522060000012077183879101123466_"  style="overflow:visible;"/>
	</clipPath>
	
		<path style="clip-path:url(#SVGID_00000160174445694767963300000010822640197949765557_);fill:none;stroke:#101C50;stroke-miterlimit:10;" d="
		M242,66.8c0,0-7.5,10.1-7.9,16.4s2.9,13.9,13.1,7.7c10.2-6.2,5.2-16.4,5.2-16.4s-7.2-1.8-17.7,23.2s-4.8,27.4-4.8,27.4"/>
</g>
<g>
	<defs>
		<path id="SVGID_00000125567228917222250900000010607468754051523468_" d="M293.5,77.4h-13.2c-0.3-4.5-0.9-8.9-1.8-13.3
			c-0.1-0.5-0.5-0.8-1-0.8h-3c-0.5,0-0.9,0.4-0.9,0.9c0,0.1,0,0.1,0,0.2c0.9,4.3,1.4,8.7,1.7,13.1h-12.7c-0.6,0-1.1,0.5-1.1,1.1l0,0
			v2.8c0,0.6,0.5,1.1,1.1,1.1l0,0h12.8c0,0.7,0,1.3,0,1.9c0,3.6-0.2,7.3-0.6,10.9c-0.1,0.5,0.3,1,0.9,1.1c0,0,0.1,0,0.1,0h2.8
			c0.6,0,1-0.4,1.1-1c0.4-3.7,0.6-7.3,0.5-11c0-0.6,0-1.2,0-1.9h13c0.6,0,1.1-0.5,1.1-1.1v-2.8c0-0.6-0.5-1.1-1.1-1.1l0,0"/>
	</defs>
	<clipPath id="SVGID_00000039833641753908255810000010687194591731659924_">
		<use xlink:href="#SVGID_00000125567228917222250900000010607468754051523468_"  style="overflow:visible;"/>
	</clipPath>
	
		<path style="clip-path:url(#SVGID_00000039833641753908255810000010687194591731659924_);fill:none;stroke:#101C50;stroke-miterlimit:10;" d="
		M259.2,80.2l39.2-0.4l-23-19.3c0,0,5,17.4,1.5,42.6"/>
</g>
<g>
	<defs>
		<path id="SVGID_00000085968843521792220750000015703415199227660956_" d="M116.9,40.7c-0.2,0.3-0.2,0.6-0.1,0.9
			c0.1,0.3,0.4,0.6,0.7,0.7l2.4,0.8c0.1,0,0.3,0.1,0.4,0.1c0.4,0,0.8-0.2,1.1-0.6c16-23.6,42.7-37.8,71.3-37.8
			c34.6,0,65.9,20.7,79.4,52.6c0.2,0.5,0.6,0.8,1.1,0.8h2.8c0.6,0,1-0.5,1-1c0-0.1,0-0.2-0.1-0.3c-19-46.5-72.1-68.9-118.6-50
			C141.4,13.7,126.9,25.5,116.9,40.7"/>
	</defs>
	<clipPath id="SVGID_00000088125993301802492770000002642561343302586782_">
		<use xlink:href="#SVGID_00000085968843521792220750000015703415199227660956_"  style="overflow:visible;"/>
	</clipPath>
	
		<linearGradient id="SVGID_00000106120309145158143010000007802545747427320451_" gradientUnits="userSpaceOnUse" x1="279.1842" y1="39.4846" x2="120.8568" y2="18.0804">
		<stop  offset="0" style="stop-color:#101C50"/>
		<stop  offset="0.24" style="stop-color:#0D267A"/>
		<stop  offset="0.5" style="stop-color:#085AA4"/>
		<stop  offset="0.65" style="stop-color:#058BBF"/>
		<stop  offset="1" style="stop-color:#B1FFFF"/>
	</linearGradient>
	
		<path style="clip-path:url(#SVGID_00000088125993301802492770000002642561343302586782_);fill:none;stroke:url(#SVGID_00000106120309145158143010000007802545747427320451_);stroke-miterlimit:10;" d="
		M117.4,44.4c0.4,0,3.7-4.4,3.9-4.8c16-23.6,42.7-37.8,71.3-37.8c34.6,0,66.5,20.8,80,52.7c0.2,0.5,2.3,3.8,3.5,5.4"/>
</g>
<g>
	<defs>
		<path id="SVGID_00000078747279913156874370000012076988908780155049_" d="M370.6,137.6c1.5-0.2,2.8-1.5,2.8-3.2
			c0-2.1-1.5-3.3-3.8-3.3h-3.9V142h2.4v-4.3l2.9,4.3h2.8L370.6,137.6z M369.5,135.8h-1.4v-2.6h1.4c0.9,0,1.4,0.5,1.4,1.2
			C371,135.3,370.4,135.8,369.5,135.8z"/>
	</defs>
	<clipPath id="SVGID_00000158003876503940309880000003659753643220046220_">
		<use xlink:href="#SVGID_00000078747279913156874370000012076988908780155049_"  style="overflow:visible;"/>
	</clipPath>
	
		<line style="clip-path:url(#SVGID_00000158003876503940309880000003659753643220046220_);fill:#261E3C;stroke:#261E3C;stroke-miterlimit:10;" x1="361" y1="135.9" x2="378.5" y2="135.9"/>
</g>
<g>
	<defs>
		<path id="SVGID_00000075850089307645474540000015663679296745414840_" d="M360.5,137.9l1.7,5.1l-4.4-3.2c0,0-0.1,0-0.2,0l-4.4,3.2
			l0.5-1.4c0-0.1,0.1-0.1,0.1-0.2c2.3-2.9,5.7-5.5,5.7-5.5c-2.2,0.6-3.3,1.1-4.5,1.9c0,0-0.1,0-0.2,0l-4.4-3.2h5.4
			c0.1,0,0.1,0,0.1-0.1l1.7-5.1l1.7,5.1c0,0.1,0.1,0.1,0.1,0.1h5.4l-4.4,3.2C360.5,137.8,360.5,137.9,360.5,137.9z"/>
	</defs>
	<clipPath id="SVGID_00000085938802985429455390000013455556156754144148_">
		<use xlink:href="#SVGID_00000075850089307645474540000015663679296745414840_"  style="overflow:visible;"/>
	</clipPath>
	
		<linearGradient id="SVGID_00000157290014167308672030000015176007176198672024_" gradientUnits="userSpaceOnUse" x1="348.9853" y1="135.8749" x2="366.4939" y2="135.8749">
		<stop  offset="0.28" style="stop-color:#FA1660"/>
		<stop  offset="0.78" style="stop-color:#FF6E00"/>
	</linearGradient>
	
		<linearGradient id="SVGID_00000044174792179642585000000004870016305388373159_" gradientUnits="userSpaceOnUse" x1="348.9853" y1="135.8749" x2="366.4939" y2="135.8749">
		<stop  offset="0.28" style="stop-color:#FA1660"/>
		<stop  offset="0.78" style="stop-color:#FF6E00"/>
	</linearGradient>
	
		<line style="clip-path:url(#SVGID_00000085938802985429455390000013455556156754144148_);fill:url(#SVGID_00000157290014167308672030000015176007176198672024_);stroke:url(#SVGID_00000044174792179642585000000004870016305388373159_);stroke-miterlimit:10;" x1="349" y1="135.9" x2="366.5" y2="135.9"/>
</g>
<g>
	<defs>
		<path id="SVGID_00000043427020552821103240000003524428149158834825_" d="M147.4,133.5l-0.6,5.2h1.2L147.4,133.5z M152.7,132.5
			C152.7,132.5,152.7,132.5,152.7,132.5l0,3.9c0.2,0,0.3-0.1,0.5-0.1c0.5-0.2,1-0.9,1-1.9C154.2,132.6,152.9,132.5,152.7,132.5z
			 M147.4,133.5l-0.6,5.2h1.2L147.4,133.5z M152.7,132.5C152.7,132.5,152.7,132.5,152.7,132.5l0,3.9c0.2,0,0.3-0.1,0.5-0.1
			c0.5-0.2,1-0.9,1-1.9C154.2,132.6,152.9,132.5,152.7,132.5z M152.7,132.5C152.7,132.5,152.7,132.5,152.7,132.5l0,3.9
			c0.2,0,0.3-0.1,0.5-0.1c0.5-0.2,1-0.9,1-1.9C154.2,132.6,152.9,132.5,152.7,132.5z M146.8,138.7h1.2l-0.6-5.2L146.8,138.7z
			 M135.6,129.2v14.6h36.2v-14.6H135.6z M166.2,132.6h-2v2.8h2v2.2h-2v2.8h2v2.2H162v-11.1l-1.8,11.1h-2.6c0,0-0.3-2-0.6-3.9
			c-0.3-1.6-0.5-3.2-0.6-3.8c0.1,1.2-0.7,2.4-1.3,2.9l1.4,4.7h-2.2l-1.1-4l-0.5,0.1v4h-4.2l-0.3-1.9h-1.7l-0.3,1.9h-4.3v-5.9l-1,5.9
			h-1.2l-1-5.9v5.9h-2.2v-12.2h2.8l1,6.3l1-6.3h2.8v11.2l1.7-11.2h2.9l1.6,10.8l0-10.8c0,0,2.2,0,2.2,0c2,0,2.9,1.5,3.2,2l-0.2-2
			h2.2l1,7.4l1-7.4h6.2V132.6z M170.6,142.6h-4.1v-12.2h2.2v10h1.9V142.6z M152.7,132.5C152.7,132.5,152.7,132.5,152.7,132.5l0,3.9
			c0.2,0,0.3-0.1,0.5-0.1c0.5-0.2,1-0.9,1-1.9C154.2,132.6,152.9,132.5,152.7,132.5z M146.8,138.7h1.2l-0.6-5.2L146.8,138.7z
			 M147.4,133.5l-0.6,5.2h1.2L147.4,133.5z M152.7,132.5C152.7,132.5,152.7,132.5,152.7,132.5l0,3.9c0.2,0,0.3-0.1,0.5-0.1
			c0.5-0.2,1-0.9,1-1.9C154.2,132.6,152.9,132.5,152.7,132.5z"/>
	</defs>
	<clipPath id="SVGID_00000134231452636385388090000012565550100870069423_">
		<use xlink:href="#SVGID_00000043427020552821103240000003524428149158834825_"  style="overflow:visible;"/>
	</clipPath>
	
		<line style="clip-path:url(#SVGID_00000134231452636385388090000012565550100870069423_);fill:#FF0000;stroke:#FF0000;stroke-miterlimit:10;" x1="134.2" y1="135.9" x2="174.5" y2="135.9"/>
</g>
<g>
	<defs>
		<path id="SVGID_00000088099553174231827220000013684374443443167123_" d="M170.6,140.4v2.2h-4.1v-12.2h2.2v10H170.6z M164.2,132.6
			v2.8h2v2.2h-2v2.8h2v2.2H162v-11.1l-1.8,11.1h-2.6c0,0-0.3-2-0.6-3.9c-0.3-1.6-0.5-3.2-0.6-3.8c0.1,1.2-0.7,2.4-1.3,2.9l1.4,4.7
			h-2.2l-1.1-4l-0.5,0.1v4h-4.2l-0.3-1.9h-1.7l-0.3,1.9h-4.3v-5.9l-1,5.9h-1.2l-1-5.9v5.9h-2.2v-12.2h2.8l1,6.3l1-6.3h2.8v11.2
			l1.7-11.2h2.9l1.6,10.8l0-10.8c0,0,2.2,0,2.2,0c2,0,2.9,1.5,3.2,2l-0.2-2h2.2l1,7.4l1-7.4h6.2v2.2H164.2z M148.1,138.7l-0.6-5.2
			l-0.6,5.2H148.1z M154.2,134.5c0-1.9-1.3-1.9-1.5-1.9c0,0,0,0,0,0v3.9c0.2,0,0.3-0.1,0.5-0.1C153.8,136.1,154.2,135.5,154.2,134.5
			z"/>
	</defs>
	<clipPath id="SVGID_00000052811454149877585400000012034994249148550051_">
		<use xlink:href="#SVGID_00000088099553174231827220000013684374443443167123_"  style="overflow:visible;"/>
	</clipPath>
	
		<line style="clip-path:url(#SVGID_00000052811454149877585400000012034994249148550051_);fill:#FFFFFF;stroke:#FFFFFF;stroke-miterlimit:10;" x1="134.2" y1="135.9" x2="174.5" y2="135.9"/>
</g>
</svg>
