# Blender v3.0.1 OBJ File: 'Card1.blend'
# www.blender.org
mtllib Card1.mtl
o Card_Mesh
v -0.240000 -0.450000 0.000000
v 0.240000 -0.450000 -0.000000
v -0.285000 -0.405000 0.000000
v -0.285000 0.405000 0.000000
v 0.285000 -0.405000 -0.000000
v 0.285000 0.405000 -0.000000
v 0.240000 0.450000 -0.000000
v -0.240000 0.450000 0.000000
v -0.256564 -0.446840 0.000000
v -0.271820 -0.436820 0.000000
v -0.281840 -0.421564 0.000000
v 0.256564 -0.446840 -0.000000
v 0.271820 -0.436820 -0.000000
v 0.281841 -0.421564 -0.000000
v 0.281840 0.421564 -0.000000
v 0.271820 0.436820 -0.000000
v 0.256564 0.446840 -0.000000
v -0.281841 0.421564 0.000000
v -0.271820 0.436820 0.000000
v -0.256564 0.446840 0.000000
v -0.256564 0.405000 -0.008400
v -0.240000 0.405000 -0.008400
v -0.271820 0.405000 -0.008400
v 0.240000 0.405000 -0.008400
v -0.256564 -0.405000 -0.008400
v -0.240000 -0.405000 -0.008400
v -0.271820 -0.405000 -0.008400
v 0.240000 -0.405000 -0.008400
v 0.271820 0.405000 -0.008400
v 0.271820 -0.405000 -0.008400
v 0.256564 -0.405000 -0.008400
v 0.256564 0.405000 -0.008400
v -0.240000 -0.450000 -0.008400
v 0.240000 -0.450000 -0.008400
v -0.285000 -0.405000 -0.008400
v -0.285000 0.405000 -0.008400
v 0.285000 -0.405000 -0.008400
v 0.285000 0.405000 -0.008400
v 0.240000 0.450000 -0.008400
v -0.240000 0.450000 -0.008400
v -0.256564 -0.446840 -0.008400
v -0.271820 -0.436820 -0.008400
v -0.281840 -0.421564 -0.008400
v 0.256564 -0.446840 -0.008400
v 0.271820 -0.436820 -0.008400
v 0.281841 -0.421564 -0.008400
v 0.281840 0.421564 -0.008400
v 0.271820 0.436820 -0.008400
v 0.256564 0.446840 -0.008400
v -0.281841 0.421564 -0.008400
v -0.271820 0.436820 -0.008400
v -0.256564 0.446840 -0.008400
v -0.256564 0.405000 0.000000
v -0.240000 0.405000 0.000000
v -0.271820 0.405000 0.000000
v 0.240000 0.405000 -0.000000
v -0.256564 -0.405000 0.000000
v -0.240000 -0.405000 0.000000
v -0.271820 -0.405000 0.000000
v 0.240000 -0.405000 -0.000000
v 0.271820 0.405000 -0.000000
v 0.271820 -0.405000 -0.000000
v 0.256564 -0.405000 -0.000000
v 0.256564 0.405000 -0.000000
vt 0.543189 0.040941
vt 0.528837 0.040941
vt 0.528837 0.004691
vt 0.543189 0.001953
vt 0.543189 0.742722
vt 0.528837 0.742722
vt 0.515620 0.742722
vt 0.515620 0.040941
vt 0.986628 0.040941
vt 0.986628 0.013372
vt 0.995309 0.026590
vt 0.998047 0.040941
vt 0.973410 0.040941
vt 0.986628 0.742722
vt 0.973410 0.742722
vt 0.515620 0.013372
vt 0.504201 0.040941
vt 0.506938 0.026590
vt 0.543189 0.781710
vt 0.528837 0.778973
vt 0.959059 0.040941
vt 0.959059 0.001953
vt 0.515620 0.770291
vt 0.959059 0.742722
vt 0.504201 0.742722
vt 0.973410 0.004691
vt 0.998047 0.742722
vt 0.995309 0.757074
vt 0.986628 0.770291
vt 0.959059 0.781710
vt 0.506938 0.757074
vt 0.973410 0.778973
vt 0.040941 0.781710
vt 0.026590 0.778973
vt 0.026590 0.742722
vt 0.040941 0.742722
vt 0.026590 0.040941
vt 0.040941 0.040941
vt 0.013372 0.742722
vt 0.013372 0.040941
vt 0.495799 0.742722
vt 0.493062 0.757074
vt 0.484380 0.770291
vt 0.484380 0.742722
vt 0.471163 0.040941
vt 0.484380 0.040941
vt 0.471163 0.742722
vt 0.013372 0.770291
vt 0.004691 0.757074
vt 0.001953 0.742722
vt 0.026590 0.004691
vt 0.040941 0.001953
vt 0.456811 0.781710
vt 0.456811 0.742722
vt 0.013372 0.013372
vt 0.456811 0.040941
vt 0.001953 0.040941
vt 0.471163 0.778973
vt 0.484380 0.013372
vt 0.493062 0.026590
vt 0.495799 0.040941
vt 0.456811 0.001953
vt 0.004691 0.026590
vt 0.471163 0.004691
vt 0.748941 0.821984
vt 0.748941 0.814706
vt 0.763551 0.814706
vt 0.763551 0.821984
vt 0.286833 0.821984
vt 0.286833 0.814706
vt 0.302647 0.814706
vt 0.302647 0.821984
vt 0.272223 0.821984
vt 0.272223 0.814706
vt 0.779365 0.814706
vt 0.779365 0.821984
vt 0.795179 0.821984
vt 0.795179 0.814706
vt 0.809789 0.814706
vt 0.809789 0.821984
vt 0.733127 0.915842
vt 0.733127 0.923120
vt 0.718517 0.923120
vt 0.718517 0.915842
vt 0.333071 0.821984
vt 0.333071 0.814706
vt 0.748941 0.915842
vt 0.748941 0.923120
vt 0.877492 0.846525
vt 0.877492 0.853802
vt 0.175711 0.853802
vt 0.175711 0.846525
vt 0.318461 0.814706
vt 0.318461 0.821984
vt 0.177120 0.892173
vt 0.177120 0.884895
vt 0.191730 0.884895
vt 0.191730 0.892173
vt 0.161306 0.892173
vt 0.161306 0.884895
vt 0.302647 0.923120
vt 0.302647 0.915842
vt 0.764755 0.915842
vt 0.764755 0.923120
vt 0.779365 0.915842
vt 0.779365 0.923120
vt 0.893511 0.884895
vt 0.893511 0.892173
vt 0.145493 0.892173
vt 0.145493 0.884895
vt 0.130883 0.892173
vt 0.130883 0.884895
vn -0.0000 -0.0000 -1.0000
vn 0.0000 0.0000 1.0000
vn -0.0941 0.9956 0.0000
vn -0.3754 0.9269 0.0000
vn 0.9269 0.3754 0.0000
vn 0.7071 0.7071 0.0000
vn 0.9956 0.0941 0.0000
vn -0.7071 0.7071 0.0000
vn -0.9269 0.3754 0.0000
vn -0.9956 0.0941 0.0000
vn -0.3754 -0.9269 0.0000
vn -0.0941 -0.9956 0.0000
vn 0.0941 0.9956 0.0000
vn -0.7071 -0.7071 0.0000
vn -0.9956 -0.0941 0.0000
vn 0.3754 0.9269 0.0000
vn 0.9269 -0.3754 0.0000
vn 0.9956 -0.0941 0.0000
vn 0.7071 -0.7071 0.0000
vn 0.0941 -0.9956 0.0000
vn -0.9269 -0.3754 0.0000
vn 0.3754 -0.9269 0.0000
usemtl Material
s 1
f 22/1/1 21/2/1 52/3/1 40/4/1
f 22/1/1 26/5/1 25/6/1 21/2/1
f 21/2/1 25/6/1 27/7/1 23/8/1
f 29/9/1 48/10/1 47/11/1 38/12/1
f 32/13/1 29/9/1 30/14/1 31/15/1
f 21/2/1 23/8/1 51/16/1 52/3/1
f 23/8/1 36/17/1 50/18/1 51/16/1
f 26/5/1 33/19/1 41/20/1 25/6/1
f 24/21/1 22/1/1 40/4/1 39/22/1
f 25/6/1 41/20/1 42/23/1 27/7/1
f 32/13/1 31/15/1 28/24/1 24/21/1
f 24/21/1 28/24/1 26/5/1 22/1/1
f 23/8/1 27/7/1 35/25/1 36/17/1
f 29/9/1 32/13/1 49/26/1 48/10/1
f 30/14/1 37/27/1 46/28/1 45/29/1
f 28/24/1 34/30/1 33/19/1 26/5/1
f 27/7/1 42/23/1 43/31/1 35/25/1
f 29/9/1 38/12/1 37/27/1 30/14/1
f 45/29/1 44/32/1 31/15/1 30/14/1
f 32/13/1 24/21/1 39/22/1 49/26/1
f 44/32/1 34/30/1 28/24/1 31/15/1
f 8/33/2 20/34/2 53/35/2 54/36/2
f 53/35/2 57/37/2 58/38/2 54/36/2
f 55/39/2 59/40/2 57/37/2 53/35/2
f 6/41/2 15/42/2 16/43/2 61/44/2
f 63/45/2 62/46/2 61/44/2 64/47/2
f 20/34/2 19/48/2 55/39/2 53/35/2
f 19/48/2 18/49/2 4/50/2 55/39/2
f 57/37/2 9/51/2 1/52/2 58/38/2
f 7/53/2 8/33/2 54/36/2 56/54/2
f 59/40/2 10/55/2 9/51/2 57/37/2
f 56/54/2 60/56/2 63/45/2 64/47/2
f 54/36/2 58/38/2 60/56/2 56/54/2
f 4/50/2 3/57/2 59/40/2 55/39/2
f 16/43/2 17/58/2 64/47/2 61/44/2
f 13/59/2 14/60/2 5/61/2 62/46/2
f 58/38/2 1/52/2 2/62/2 60/56/2
f 3/57/2 11/63/2 10/55/2 59/40/2
f 62/46/2 5/61/2 6/41/2 61/44/2
f 62/46/2 63/45/2 12/64/2 13/59/2
f 17/58/2 7/53/2 56/54/2 64/47/2
f 63/45/2 60/56/2 2/62/2 12/64/2
f 8/65/3 40/66/3 52/67/4 20/68/4
f 15/69/5 47/70/5 48/71/6 16/72/6
f 6/73/7 38/74/7 47/70/5 15/69/5
f 20/68/4 52/67/4 51/75/8 19/76/8
f 18/77/9 50/78/9 36/79/10 4/80/10
f 19/76/8 51/75/8 50/78/9 18/77/9
f 9/81/11 41/82/11 33/83/12 1/84/12
f 7/85/13 39/86/13 40/66/3 8/65/3
f 10/87/14 42/88/14 41/82/11 9/81/11
f 4/89/10 36/90/10 35/91/15 3/92/15
f 16/72/6 48/71/6 49/93/16 17/94/16
f 14/95/17 46/96/17 37/97/18 5/98/18
f 13/99/19 45/100/19 46/96/17 14/95/17
f 1/84/12 33/83/12 34/101/20 2/102/20
f 11/103/21 43/104/21 42/88/14 10/87/14
f 3/105/15 35/106/15 43/104/21 11/103/21
f 5/98/18 37/97/18 38/107/7 6/108/7
f 12/109/22 44/110/22 45/100/19 13/99/19
f 17/94/16 49/93/16 39/86/13 7/85/13
f 2/111/20 34/112/20 44/110/22 12/109/22
