<?xml version="1.0" encoding="utf-8"?>
<!-- Generator: Adobe Illustrator 26.0.2, SVG Export Plug-In . SVG Version: 6.00 Build 0)  -->
<svg version="1.1" id="레이어_1" xmlns="http://www.w3.org/2000/svg" xmlns:xlink="http://www.w3.org/1999/xlink" x="0px"
	 y="0px" viewBox="0 0 373.8 144.8" style="enable-background:new 0 0 373.8 144.8;" xml:space="preserve">
<style type="text/css">
	
		.st0{clip-path:url(#SVGID_00000068637176711111680610000004565637046616229296_);fill:#01147B;stroke:#01147B;stroke-miterlimit:10;}
	
		.st1{clip-path:url(#SVGID_00000160168087132411507050000015380710363057917079_);fill:#01147B;stroke:#01147B;stroke-miterlimit:10;}
	.st2{clip-path:url(#SVGID_00000156547657804379093670000012958240833376667281_);stroke:#000000;stroke-miterlimit:10;}
	
		.st3{clip-path:url(#SVGID_00000152253173415916376230000008750042808608144555_);fill:#01147B;stroke:#01147B;stroke-miterlimit:10;}
	
		.st4{clip-path:url(#SVGID_00000111906173611634241510000005856544429809982879_);fill:#01147B;stroke:#01147B;stroke-miterlimit:10;}
	
		.st5{clip-path:url(#SVGID_00000082360915287162744850000004597504150684151941_);fill:#FFD800;stroke:#FFD800;stroke-miterlimit:10;}
	.st6{clip-path:url(#SVGID_00000178179988479888357860000001391391833560875950_);stroke:#000000;stroke-miterlimit:10;}
	.st7{fill:none;}
	.st8{fill:#01147B;}
	
		.st9{clip-path:url(#SVGID_00000075163485016460670310000006894290961288242585_);fill:#01147B;stroke:#01147B;stroke-miterlimit:10;}
	.st10{clip-path:url(#SVGID_00000066500034817071494190000012691914456493506695_);stroke:#000000;stroke-miterlimit:10;}
	
		.st11{clip-path:url(#SVGID_00000170259134732842378310000010461759547935451267_);fill:#261E3C;stroke:#261E3C;stroke-miterlimit:10;}
	
		.st12{clip-path:url(#SVGID_00000056413413801842835540000014173838980499205003_);fill:#01147B;stroke:#01147B;stroke-miterlimit:10;}
	.st13{clip-path:url(#SVGID_00000098930119279116208080000012705950018021411765_);fill:none;stroke:#101C50;stroke-miterlimit:10;}
	.st14{fill:#101C50;}
	.st15{clip-path:url(#SVGID_00000102504077520621591110000016491272298244507019_);fill:none;stroke:#101C50;stroke-miterlimit:10;}
	.st16{clip-path:url(#SVGID_00000054982036453257470570000005551337883196241827_);fill:none;stroke:#101C50;stroke-miterlimit:10;}
	.st17{clip-path:url(#SVGID_00000140012456772896916320000001618412203514986166_);fill:none;stroke:#101C50;stroke-miterlimit:10;}
	.st18{clip-path:url(#SVGID_00000139259436323306786560000016144255973013765039_);fill:none;stroke:#101C50;stroke-miterlimit:10;}
	.st19{clip-path:url(#SVGID_00000031180347763424026090000003649796326708236454_);fill:none;stroke:#101C50;stroke-miterlimit:10;}
	.st20{clip-path:url(#SVGID_00000080907285993728042100000001436633797371851906_);fill:none;stroke:#101C50;stroke-miterlimit:10;}
	.st21{clip-path:url(#SVGID_00000119838106223753555890000010603452053931426703_);fill:none;stroke:#101C50;stroke-miterlimit:10;}
	
		.st22{clip-path:url(#SVGID_00000013187536575923534370000012978901609556722606_);fill:none;stroke:url(#SVGID_00000079446984028269034980000008189485622781490604_);stroke-miterlimit:10;}
	.st23{fill:none;stroke:#000000;stroke-width:2;stroke-linecap:round;stroke-linejoin:round;stroke-miterlimit:10;}
	
		.st24{clip-path:url(#SVGID_00000026876449770696097270000017007409496080438433_);fill:#261E3C;stroke:#261E3C;stroke-miterlimit:10;}
	
		.st25{clip-path:url(#SVGID_00000169523025777510685200000010188926751273062323_);fill:url(#SVGID_00000119840357740297472840000013033222235672892558_);stroke:url(#SVGID_00000020371791778995159570000003028866997178702225_);stroke-miterlimit:10;}
	
		.st26{clip-path:url(#SVGID_00000148659991362900534520000008686727506660656820_);fill:#FF0000;stroke:#FF0000;stroke-miterlimit:10;}
	
		.st27{clip-path:url(#SVGID_00000111178615344054410190000005764206778732597435_);fill:#FFFFFF;stroke:#FFFFFF;stroke-miterlimit:10;}
</style>
<g>
	<defs>
		<path id="SVGID_1_" d="M191,135.7h-4.5c-0.1-1.5-0.3-3-0.6-4.5c0-0.2-0.2-0.3-0.3-0.3h-1c-0.1,0-0.2,0-0.2,0.1
			c-0.1,0.1-0.1,0.2-0.1,0.3c0.3,1.5,0.5,2.9,0.6,4.5h-4.3c-0.2,0-0.4,0.2-0.4,0.4v0.9c0,0.2,0.2,0.4,0.4,0.4h4.4c0,0.2,0,0.4,0,0.6
			c0,1.3-0.1,2.5-0.2,3.7c0,0.1,0,0.2,0.1,0.3c0.1,0.1,0.2,0.1,0.2,0.1h1c0.2,0,0.3-0.1,0.4-0.3c0.1-1.3,0.2-2.4,0.2-3.8
			c0-0.2,0-0.4,0-0.6h4.4c0.2,0,0.4-0.2,0.4-0.4V136C191.3,135.8,191.2,135.7,191,135.7z"/>
	</defs>
	<clipPath id="SVGID_00000134215819733133641630000015293691643655685282_">
		<use xlink:href="#SVGID_1_"  style="overflow:visible;"/>
	</clipPath>
	
		<line style="clip-path:url(#SVGID_00000134215819733133641630000015293691643655685282_);fill:#01147B;stroke:#01147B;stroke-miterlimit:10;" x1="176.6" y1="135.9" x2="194.1" y2="135.9"/>
</g>
<g>
	<defs>
		<path id="SVGID_00000168797528582135425800000005351793905448044717_" d="M58.1,135.7h-4.5c-0.1-1.5-0.3-3-0.6-4.5
			c0-0.2-0.2-0.3-0.3-0.3h-1c-0.1,0-0.2,0-0.2,0.1c-0.1,0.1-0.1,0.2-0.1,0.3c0.3,1.5,0.5,2.9,0.6,4.5h-4.3c-0.2,0-0.4,0.2-0.4,0.4
			v0.9c0,0.2,0.2,0.4,0.4,0.4H52c0,0.2,0,0.4,0,0.6c0,1.3-0.1,2.5-0.2,3.7c0,0.1,0,0.2,0.1,0.3c0.1,0.1,0.2,0.1,0.2,0.1h1
			c0.2,0,0.3-0.1,0.4-0.3c0.1-1.3,0.2-2.4,0.2-3.8c0-0.2,0-0.4,0-0.6h4.4c0.2,0,0.4-0.2,0.4-0.4V136
			C58.4,135.8,58.3,135.7,58.1,135.7z"/>
	</defs>
	<clipPath id="SVGID_00000104674751123365835330000009160906528921175717_">
		<use xlink:href="#SVGID_00000168797528582135425800000005351793905448044717_"  style="overflow:visible;"/>
	</clipPath>
	
		<line style="clip-path:url(#SVGID_00000104674751123365835330000009160906528921175717_);fill:#01147B;stroke:#01147B;stroke-miterlimit:10;" x1="44.8" y1="135.9" x2="60.9" y2="135.9"/>
</g>
<g>
	<defs>
		<path id="SVGID_00000056388133091730747220000006630777744903010982_" d="M104.7,136.1c0.8-0.5,1.4-1.3,1.4-1.9
			c0-0.6-0.3-1-0.9-1.3c-0.7-0.3-1.8-0.3-2.9-0.3l-2.3,0l0.1,0.5c0.2,0,0.8,0.1,1.1,0.1c0,0.4,0,2,0,2.4v0.6c0,1,0,2.7,0,3.2
			c-0.3,0.1-0.9,0.1-1,0.1l-0.1,0.5c0.6-0.1,1.3-0.1,1.9-0.1c0.6,0,1.2,0,1.8,0.1l-0.1-0.5c-0.3,0-0.8-0.1-1-0.1c0-0.5,0-2,0-2.7
			c0.2,0,0.5,0,0.8-0.1c0.4,0.5,2.9,3.3,3.6,3.6l0.7-0.1C106.6,139.1,105.1,136.7,104.7,136.1z M103.6,135.9c-0.3,0.1-0.6,0.2-1,0.2
			c0-0.7,0-2.4,0-3c1.5,0,2.1,0.7,2.1,1.3C104.6,135.4,103.8,135.8,103.6,135.9z M98,139.5c-0.3,0-0.6-0.1-0.9-0.1
			c-0.3-0.6-0.8-1.7-1.3-3.3c-0.3-0.8-0.8-2.3-1-2.9c0.2,0,0.5-0.1,0.7-0.1l0.1-0.5c-0.6,0-1.2,0-1.8,0c-0.5,0-1,0-1.5-0.1l0,0.5
			c0.2,0,0.6,0.1,0.7,0.1c-0.3,0.8-2,5.4-2.4,6.2c-0.3,0.1-0.6,0.1-0.9,0.1l-0.1,0.5c0.4,0,0.8-0.1,1.2-0.1c0.6,0,1.2,0,1.7,0.1
			l-0.1-0.5c-0.3,0-0.6-0.1-0.8-0.1c0.1-0.7,0.5-2.2,0.7-2.6c0.4,0,1.7-0.1,2.1-0.1c0.2,0.4,0.7,2,0.9,2.7c-0.3,0.1-0.7,0.1-0.9,0.1
			l-0.1,0.5c0.6,0,1.2-0.1,1.8-0.1c0.6,0,1.3,0,1.9,0.1L98,139.5z M92.6,136c0.1-0.3,0.3-0.7,0.4-1.2l0,0c0.1-0.4,0.3-0.8,0.4-1.2
			c0.1,0.4,0.3,1,0.5,1.5l0,0c0.1,0.4,0.2,0.7,0.3,1L92.6,136z M74.8,139.9l0.1-0.5c0.1,0,0.8-0.1,1-0.1c0-0.6,0-2.2,0-3.1v-0.6
			c0-0.2,0-1.9,0-2.4c-0.3,0-0.9-0.1-1-0.1l-0.1-0.5c0.7,0.1,1.4,0.1,2.1,0.1c0.6,0,1.1,0,1.7-0.1l-0.1,0.5c-0.1,0-0.8,0.1-1,0.1
			c0,0.3,0,1.1,0,2.5v0.6c0,1.6,0,2.7,0,3.1c0.3,0.1,0.9,0.1,1,0.1l0.1,0.5c-0.7-0.1-1.4-0.1-2.1-0.1
			C76,139.9,75.4,139.9,74.8,139.9z M85.5,132.6c0.5,0,1,0.1,1.5,0.1c0.4,0,0.8,0,1.1-0.1l0,0.5c-0.1,0-0.6,0.1-0.7,0.2
			c-0.2,0.1-1.6,1.8-2.1,2.5c1.1,1.5,2.1,3,3.2,4.5l-0.7,0.2c-0.8-0.6-1.5-1.4-2.2-2.2l0,0c-0.5-0.6-1-1.2-1.2-1.5
			c-0.4,0.5-1.2,1.9-1.7,2.7c0.2,0,0.6,0.1,0.8,0.1l0.1,0.5c-0.2,0-1,0-1.6,0c-0.4,0-0.9,0-1.3,0.1l0.2-0.5c0.2,0,0.5-0.1,0.7-0.1
			c0.3-0.2,2-2.4,2.5-3.2c-0.3-0.4-0.6-0.8-1-1.3c-0.5-0.7-1-1.4-1.3-1.7c-0.1,0-0.5-0.1-0.7-0.1l-0.1-0.5c0.5,0.1,1.1,0.1,1.6,0.1
			c0.6,0,1.2,0,1.8,0l-0.1,0.5c-0.3,0-0.6,0.1-0.7,0.1c0.3,0.4,1,1.6,1.4,2c0.3-0.4,1-1.5,1.3-2c-0.2,0-0.5-0.1-0.6-0.1L85.5,132.6
			L85.5,132.6z M72.2,135.9c-0.7,0.7-2.1,1-2.5,1l0.1-0.5c0.7-0.2,1.7-0.6,1.7-1.8c0-0.6-0.3-1-0.7-1.2c-0.2-0.1-0.7-0.2-1.3-0.2
			c0,0.4,0,1.6,0,2.4v0.4c0,0.9,0,2.8,0,3.3c0.3,0,1,0.1,1.3,0.1l0.1,0.5c-0.7,0-1.4-0.1-2-0.1c-0.6,0-1.3,0-1.9,0.1l0.1-0.5
			c0.2,0,0.8-0.1,1-0.1c0-0.6,0-2.6,0-3.4v-0.4c0-0.2,0-1.9,0-2.4c-0.2-0.1-0.9-0.1-1.1-0.1l-0.1-0.5c0.1,0,0.7,0,1.1,0
			c0.5,0,1.1,0,1.3,0c1.4,0,2.2,0.1,2.7,0.3c1,0.4,1.1,1.1,1.1,1.4C73,134.9,72.7,135.4,72.2,135.9z"/>
	</defs>
	<clipPath id="SVGID_00000025437437446727732990000003499997896275138442_">
		<use xlink:href="#SVGID_00000056388133091730747220000006630777744903010982_"  style="overflow:visible;"/>
	</clipPath>
	
		<line style="clip-path:url(#SVGID_00000025437437446727732990000003499997896275138442_);stroke:#000000;stroke-miterlimit:10;" x1="63.3" y1="135.9" x2="109.4" y2="135.9"/>
</g>
<g>
	<defs>
		<path id="SVGID_00000077282218533738401500000010276178247195753918_" d="M126.8,135.7h-4.5c-0.1-1.5-0.3-3-0.6-4.5
			c0-0.2-0.2-0.3-0.3-0.3h-1c-0.1,0-0.2,0-0.2,0.1c-0.1,0.1-0.1,0.2-0.1,0.3c0.3,1.5,0.5,2.9,0.6,4.5h-4.3c-0.2,0-0.4,0.2-0.4,0.4
			v0.9c0,0.2,0.2,0.4,0.4,0.4h4.4c0,0.2,0,0.4,0,0.6c0,1.3-0.1,2.5-0.2,3.7c0,0.1,0,0.2,0.1,0.3c0.1,0.1,0.2,0.1,0.2,0.1h1
			c0.2,0,0.3-0.1,0.4-0.3c0.1-1.3,0.2-2.4,0.2-3.8c0-0.2,0-0.4,0-0.6h4.4c0.2,0,0.4-0.2,0.4-0.4V136
			C127.2,135.8,127,135.7,126.8,135.7z"/>
	</defs>
	<clipPath id="SVGID_00000028292090690624592260000008828295793059466116_">
		<use xlink:href="#SVGID_00000077282218533738401500000010276178247195753918_"  style="overflow:visible;"/>
	</clipPath>
	
		<line style="clip-path:url(#SVGID_00000028292090690624592260000008828295793059466116_);fill:#01147B;stroke:#01147B;stroke-miterlimit:10;" x1="113.5" y1="135.9" x2="129.6" y2="135.9"/>
</g>
<g>
	<defs>
		<path id="SVGID_00000000208875210450946240000015384523875846863792_" d="M252.3,135.7h-4.5c-0.1-1.5-0.3-3-0.6-4.5
			c0-0.2-0.2-0.3-0.3-0.3h-1c-0.1,0-0.2,0-0.2,0.1c-0.1,0.1-0.1,0.2-0.1,0.3c0.3,1.5,0.5,2.9,0.6,4.5h-4.3c-0.2,0-0.4,0.2-0.4,0.4
			v0.9c0,0.2,0.2,0.4,0.4,0.4h4.4c0,0.2,0,0.4,0,0.6c0,1.3-0.1,2.5-0.2,3.7c0,0.1,0,0.2,0.1,0.3c0.1,0.1,0.2,0.1,0.2,0.1h1
			c0.2,0,0.3-0.1,0.4-0.3c0.1-1.3,0.2-2.4,0.2-3.8c0-0.2,0-0.4,0-0.6h4.4c0.2,0,0.4-0.2,0.4-0.4V136
			C252.7,135.8,252.5,135.7,252.3,135.7z"/>
	</defs>
	<clipPath id="SVGID_00000095330923930601422240000017432021530553106330_">
		<use xlink:href="#SVGID_00000000208875210450946240000015384523875846863792_"  style="overflow:visible;"/>
	</clipPath>
	
		<line style="clip-path:url(#SVGID_00000095330923930601422240000017432021530553106330_);fill:#01147B;stroke:#01147B;stroke-miterlimit:10;" x1="237.9" y1="135.9" x2="255.4" y2="135.9"/>
</g>
<g>
	<defs>
		<path id="SVGID_00000111157347371734549090000006130820575659637134_" d="M269.4,142v-11.1h-6.9V142H269.4z M261.1,143.4v-13.9
			h9.7v13.9H261.1z"/>
	</defs>
	<clipPath id="SVGID_00000083778182632985416560000006587191962921869214_">
		<use xlink:href="#SVGID_00000111157347371734549090000006130820575659637134_"  style="overflow:visible;"/>
	</clipPath>
	
		<line style="clip-path:url(#SVGID_00000083778182632985416560000006587191962921869214_);fill:#FFD800;stroke:#FFD800;stroke-miterlimit:10;" x1="259.7" y1="135.9" x2="271.8" y2="135.9"/>
</g>
<g>
	<defs>
		<path id="SVGID_00000102516755707711947190000010934243870924008333_" d="M276.6,130.9h0.7v4.9h-0.6c-0.8-1.1-1.6-2.2-2.4-3.5h0
			v3.5h-0.7v-4.9h0.6c0.8,1.1,1.6,2.2,2.3,3.5h0V130.9z M280.5,135.7l-0.4-1.3h-1.5l-0.4,1.3h-0.7l1.7-4.9h0.7l1.5,4.9H280.5z
			 M280,133.8c-0.2-0.6-0.4-1.2-0.5-2h0c-0.2,0.7-0.4,1.3-0.6,2H280z M282.2,135.7h0.8v-4.2h1.3v-0.7h-3.4v0.7h1.3V135.7z
			 M285.4,130.9h-0.8v4.9h0.8V130.9z M285.9,133.2c0-1.4,0.9-2.4,2.1-2.4c1.2,0,2.1,1.1,2.1,2.4c0,1.4-0.8,2.6-2.1,2.6
			C286.7,135.8,285.9,134.7,285.9,133.2z M286.8,133.2c0,0.9,0.3,1.9,1.2,1.9c0.9,0,1.2-1,1.2-1.9c0-0.9-0.3-1.7-1.2-1.7
			C287.1,131.5,286.8,132.3,286.8,133.2z M291.2,132.3L291.2,132.3c0.8,1.3,1.6,2.4,2.4,3.5h0.6v-4.9h-0.7v3.5h0
			c-0.8-1.2-1.6-2.3-2.3-3.5h-0.6v4.9h0.7V132.3z M295.1,135.7h-0.7l1.7-4.9h0.7l1.5,4.9h-0.9l-0.4-1.3h-1.5L295.1,135.7z
			 M295.7,133.8h1.1c-0.2-0.6-0.4-1.2-0.5-2h0C296.1,132.6,295.9,133.2,295.7,133.8z M301,135.1h-1.6v-4.2h-0.8v4.9h2.5V135.1z
			 M275.9,141.3c-0.2,0.1-0.4,0.1-0.6,0.1c-0.7,0-1.4-0.7-1.4-1.8c0-1.1,0.6-1.8,1.5-1.8c0.3,0,0.7,0.1,0.9,0.3l0.3-0.6
			c-0.3-0.2-0.7-0.4-1.2-0.4c-1.5,0-2.4,1.2-2.4,2.5c0,1.4,0.9,2.5,2.3,2.5c0.5,0,0.9-0.1,1.4-0.3v-2h-0.8V141.3z M278.3,139.8h1.4
			v-0.7h-1.4v-1.3h1.4v-0.7h-2.2v4.9h2.5v-0.7h-1.6V139.8z M284.3,139.5c0,1.4-0.8,2.6-2.1,2.6c-1.3,0-2.1-1.1-2.1-2.6
			c0-1.4,0.9-2.4,2.1-2.4C283.5,137.1,284.3,138.2,284.3,139.5z M283.5,139.5c0-0.9-0.3-1.7-1.2-1.7c-0.8,0-1.2,0.9-1.2,1.7
			c0,0.9,0.3,1.9,1.2,1.9C283.2,141.4,283.5,140.4,283.5,139.5z M287.5,141.3c-0.2,0.1-0.4,0.1-0.6,0.1c-0.7,0-1.4-0.7-1.4-1.8
			c0-1.1,0.6-1.8,1.5-1.8c0.3,0,0.7,0.1,0.9,0.3l0.3-0.6c-0.3-0.2-0.7-0.4-1.2-0.4c-1.5,0-2.4,1.2-2.4,2.5c0,1.4,0.9,2.5,2.3,2.5
			c0.5,0,0.9-0.1,1.4-0.3v-2h-0.8V141.3z M291.1,140l1,2h-0.9l-0.8-1.8h0h-0.4v1.8h-0.8v-4.9h1.3c0.9,0,1.5,0.5,1.5,1.4
			C291.9,139.1,291.6,139.7,291.1,140z M291.1,138.6c0-0.5-0.3-0.8-0.8-0.8h-0.4v1.8c0.1,0,0.3,0,0.3,0
			C290.7,139.5,291.1,139.2,291.1,138.6z M294.4,137.2l1.5,4.9H295l-0.4-1.3h-1.5l-0.4,1.3h-0.7l1.7-4.9H294.4z M294.5,140.1
			c-0.2-0.6-0.4-1.2-0.5-2h0c-0.2,0.7-0.4,1.3-0.6,2H294.5z M299,138.6c0,0.8-0.6,1.6-1.6,1.6h-0.4v1.8h-0.8v-4.9h1.3
			C298.5,137.2,299,137.6,299,138.6z M298.2,138.6c0-0.5-0.3-0.8-0.8-0.8h-0.4v1.8c0.1,0,0.3,0,0.3,0
			C297.8,139.5,298.2,139.2,298.2,138.6z M302.1,139h-1.7v-1.9h-0.8v4.9h0.8v-2.3h1.7v2.3h0.8v-4.8h-0.8V139z M303.7,142h0.8v-4.9
			h-0.8V142z M307.4,141.4c-0.8,0-1.5-0.7-1.5-1.8c0-1.1,0.6-1.8,1.5-1.8c0.3,0,0.7,0.1,0.9,0.3l0.3-0.6c-0.3-0.2-0.7-0.4-1.1-0.4
			c-1.4,0-2.3,1.2-2.3,2.5c0,1.4,0.9,2.5,2.3,2.5c0.4,0,0.8-0.2,1.1-0.3l-0.2-0.6C308,141.3,307.7,141.4,307.4,141.4z"/>
	</defs>
	<clipPath id="SVGID_00000050648641239974452700000006818298710116172418_">
		<use xlink:href="#SVGID_00000102516755707711947190000010934243870924008333_"  style="overflow:visible;"/>
	</clipPath>
	
		<line style="clip-path:url(#SVGID_00000050648641239974452700000006818298710116172418_);stroke:#000000;stroke-miterlimit:10;" x1="273.1" y1="135.9" x2="310.4" y2="135.9"/>
</g>
<path class="st7" d="M148.1,138.7h-1.2l0.6-5.2L148.1,138.7z M152.7,132.5C152.7,132.5,152.7,132.5,152.7,132.5l0,3.9
	c0.2,0,0.3-0.1,0.5-0.1c0.5-0.2,1-0.9,1-1.9C154.2,132.6,152.9,132.5,152.7,132.5z M171.7,129.2v14.6h-36.2v-14.6H171.7z
	 M166.2,130.3H160l-1,7.4l-1-7.4h-2.2l0.2,2c-0.3-0.5-1.2-2-3.2-2c0,0-2.2,0-2.2,0l0,10.8l-1.6-10.8H146l-1.7,11.2v-11.2h-2.8
	l-1,6.3l-1-6.3h-2.8v12.2h2.2v-5.9l1,5.9h1.2l1-5.9v5.9h4.3l0.3-1.9h1.7l0.3,1.9h4.2v-4l0.5-0.1l1.1,4h2.2l-1.4-4.7
	c0.7-0.5,1.4-1.7,1.3-2.9c0.1,0.5,0.4,2.1,0.6,3.8c0.3,2,0.6,3.9,0.6,3.9h2.6l1.8-11.1v11.1h4.2v-2.2h-2v-2.8h2v-2.2h-2v-2.8h2
	V130.3z M170.6,140.4h-1.9v-10h-2.2v12.2h4.1V140.4z"/>
<path class="st8" d="M29.2,139.9c0,0,0.2,0.2,0.2,0.2c0,0,0,0,0,0c0,0,0,0,0,0"/>
<g>
	<defs>
		<path id="SVGID_00000049915266259805001750000001569484682875490180_" d="M16.3,133.6c0,0-0.1,0.2-0.1,0.3c0,0-0.1,0.1-0.1,0.1
			c-0.1,0.1-0.2,0.1-0.3,0c-0.2-0.1-0.3-0.4-0.3-0.6c0-0.1,0-0.2,0-0.3c0-0.1-0.2-0.3-0.2-0.4c-0.1-0.2-0.2-0.4-0.2-0.6
			c0-0.5,0.3-1,0.6-1.4c0.4-0.4,0.8-0.7,1.4-0.9c0.5-0.2,1.2-0.3,1.8-0.2c0.2,0.1,0.4,0.2,0.5,0.4c0,0,0,0.1,0.1,0.1
			c0,0,0.1,0,0.1,0c0.2,0,0.4,0.2,0.5,0.2c0.2,0.2,0.3,0.3,0.4,0.6c0.1,0.5-0.2,1-0.5,1.3c-0.6,0.6-1.1,1-1.8,1.2
			c-0.3,0.1-0.8,0.2-1.1,0.2c-0.1,0-0.2,0-0.3,0C16.5,133.7,16.3,133.6,16.3,133.6C16.3,133.6,16.3,133.5,16.3,133.6 M17.4,132.7
			c0.5,0,0.9-0.2,1.3-0.4c0.4-0.2,1-0.6,0.9-1.1c0-0.2-0.1-0.3-0.3-0.3c-0.2-0.1-0.3-0.1-0.5,0c-0.2,0-0.2,0.1-0.4,0.2
			c-0.5,0.3-1.1,0.8-1.4,1.3c-0.1,0.1-0.2,0.2-0.2,0.3c0,0-0.1,0.1-0.1,0.1C16.8,132.7,17.2,132.7,17.4,132.7 M15.8,132.3
			c0,0,0.2-0.2,0.3-0.4c0.2-0.3,0.7-0.8,1-1c0.1-0.1,0.2-0.2,0.2-0.2s-0.2,0-0.3,0c-0.2,0-0.6,0.3-0.8,0.4c-0.3,0.2-0.6,0.7-0.5,1
			C15.8,132.2,15.8,132.3,15.8,132.3 M16.9,134.5c-0.2,0-0.2,0.2-0.3,0.3c-0.1,0.3-0.2,1.1-0.2,1.3c-0.1,0.7-0.1,2.4,0,3.2
			c0.1,0.4,0.2,0.6,0.5,0.7c0.1,0,0.4,0,0.5,0c0.1-0.1,0.2-0.2,0.2-0.3c0.1-0.3,0-0.7,0-1c0-0.4,0-0.7,0-1.1c0-0.5-0.1-1.8-0.2-2.4
			C17.4,134.9,17.3,134.6,16.9,134.5C17,134.5,16.9,134.5,16.9,134.5 M15.7,137.5c0,0-0.1,0.2-0.1,0.3c-0.1,0.2-0.2,0.4-0.3,0.6
			c-0.2,0.3-0.6,0.8-0.8,1c-0.9,0.8-2.3,1.2-3.6,1.4c-0.8,0.1-1.8,0.1-2.7-0.1c-0.3-0.1-0.8-0.2-0.8-0.2s0,0.2,0,0.3
			c0,0.1-0.1,0.2-0.1,0.3c-0.1,0.1-0.2,0.2-0.3,0.2c-0.2,0-0.4,0-0.5,0c-0.3-0.1-0.4-0.4-0.4-0.7c0-0.2-0.1-0.7-0.1-0.7
			s-0.2-0.1-0.4-0.2c-0.5-0.3-1-0.6-1.5-0.9c-0.1-0.1-0.7-0.5-0.8-0.6c-0.3-0.3-0.6-0.6-0.8-1c-0.2-0.3-0.2-0.6-0.1-0.9
			c0.2-0.5,0.8-0.8,1.3-1c0.3-0.1,1.4-0.5,1.8-0.5c0.2,0,0.5-0.1,0.5-0.1c0,0,0,0,0,0c0,0,0-0.5,0-0.6c0-0.2,0.1-1.2,0.2-1.4
			c0-0.1,0.1-0.6,0.2-0.7c0.1-0.1,0.2-0.1,0.3,0c0.5,0.3,0.6,1.3,0.7,1.9c0,0.3,0,0.8,0,0.8s0.6,0,0.9,0c0.3,0,0.7,0.1,1,0.1
			c0.4,0.1,1.3,0.3,1.8,0.5c0.4,0.2,0.8,0.6,0.9,0.9c0.1,0.3,0.1,0.6-0.1,0.9c-0.2,0.3-0.6,0.6-0.9,0.6c-0.1,0-0.5,0-0.7-0.1
			c-0.1,0,0-0.1,0-0.2c0,0,0.2-0.1,0.3-0.2c0.1,0,0.1-0.1,0.2-0.1c0.1-0.1,0.2-0.2,0.2-0.3c0-0.1-0.2-0.2-0.3-0.3
			c-0.7-0.3-2-0.5-2.7-0.5c-0.3,0-0.6,0-0.6,0l0.1,3.6c0,0,0.3,0.1,0.5,0.1c0.1,0,0.7,0.1,0.9,0.1c1.2,0,2.5-0.1,3.5-0.6
			c0.5-0.2,0.9-0.5,1.2-0.9c0.4-0.5,0.7-1.2,0.6-1.9c-0.1-0.8-0.6-1.7-1-2.2c-1.1-1.5-3.1-2.7-4.8-3.4c-1.8-0.7-3.5-1.1-5.4-1.2
			c-0.5,0-1.5,0-2.1,0.2c-0.1,0-0.2,0-0.2,0.1c-0.1,0-0.1,0-0.2,0.1c0,0,0,0,0,0s0,0,0.1,0c0.1,0,0.3,0,0.4,0.1
			c0.1,0,0.2,0.1,0.3,0.2c0,0.1,0,0.1,0,0.2c-0.1,0.1-0.6,0.1-0.8,0.1c-0.2,0-0.5-0.1-0.5-0.3c-0.1-0.2,0-0.4,0.2-0.6
			c0.2-0.4,0.5-0.6,1-0.7c0.7-0.2,1.5-0.3,2.1-0.3c1.4-0.1,2.7,0.2,4.1,0.6c0.8,0.2,1.8,0.6,2.5,1c0.5,0.3,1.4,0.7,1.8,1
			c0.1,0.1,1,0.7,1.2,0.8c0.3,0.2,0.7,0.6,0.9,0.8c0.5,0.5,1.2,1.3,1.5,1.9c0.1,0.1,0.1,0.3,0.2,0.5c0,0.1,0.2,0.5,0.2,0.5
			C15.7,135.6,16,136.6,15.7,137.5z M6,135.9c0,0-0.5,0-0.9,0.1c-0.5,0.1-1.3,0.2-1.9,0.4c-0.2,0.1-0.5,0.2-0.5,0.3
			c0,0.2,0.1,0.3,0.2,0.4c0.1,0.1,0.4,0.4,0.5,0.5c0.4,0.4,1.3,0.9,1.9,1.2C5.7,138.9,6,139,6,139s0-1,0-2C6,136.4,6,135.9,6,135.9
			 M21.6,136.4l-2-0.2c0,0,0,0-0.1,0c-0.1,0-0.5-0.1-0.3-0.2c0,0,0.2-0.1,0.2-0.1c0.9-0.2,2-0.2,3-0.3c0.2,0,0.7,0,0.9-0.1
			c0.2-0.1,0.4-0.2,0.5-0.5c0-0.1,0-0.2-0.2-0.3c-0.8-0.4-2.1-0.4-2.9-0.3c-0.8,0.1-1.9,0.4-2.4,1c-0.2,0.3-0.3,0.6-0.2,1
			c0,0.2,0.2,0.3,0.4,0.4c0.2,0.1,0.4,0.1,0.5,0.1c0.2,0,0.9,0.1,1.4,0.1c0.5,0,1.3,0.1,1.8,0.3c0.2,0.1,0.4,0.2,0.4,0.4
			c0,0.1-0.1,0.2-0.2,0.3c-0.7,0.5-1.7,0.6-2.5,0.6c-0.3,0-0.5,0-0.8-0.2c-0.1-0.1-0.3-0.2-0.3-0.3c0-0.3,0.3-0.3,0.6-0.3
			c0.1,0,0.3,0.1,0.5,0.1c0.5,0.2,0.8,0.4,1.3,0.3c0.2,0,0.8-0.2,0.9-0.4c0-0.1,0-0.1-0.1-0.2c-0.1-0.1-0.4-0.2-0.5-0.2
			c-0.4-0.1-1.1-0.2-1.5-0.3c-0.5,0-1.2,0.1-1.5,0.5c-0.2,0.3-0.2,0.6,0,0.9c0.2,0.4,0.7,0.7,1,0.9c0.6,0.3,1.3,0.4,2,0.4
			c0.4,0,0.7-0.1,1.1-0.3c0.3-0.2,0.7-0.5,0.9-0.8c0.2-0.5,0.2-1.1,0-1.5c-0.2-0.3-0.3-0.5-0.6-0.6
			C22.5,136.5,22.1,136.5,21.6,136.4C21.6,136.4,21.6,136.4,21.6,136.4 M24.3,139.9c0.1,0.1,0.2,0.1,0.4,0c0.2-0.1,0.2-0.2,0.3-0.4
			c0.1-0.3,0.1-0.9,0.1-1.1c0,0,0-1.4,0.1-1.7c0,0,0-0.1,0.1-0.1c0,0,0.1,0,0.1,0.1c0.1,0.1,0.6,1.1,0.9,1.7
			c0.1,0.2,0.6,1.1,0.9,1.2c0.3,0.2,0.7,0,0.9-0.2c0.1-0.1,0.3-0.4,0.4-0.6c0.2-0.5,0.3-1.2,0.2-1.7c0-0.5-0.1-1-0.3-1.4
			c0-0.1-0.2-0.6-0.3-0.7c-0.1-0.3-0.7-1.1-1-1.3c-0.2-0.1-0.3,0-0.3,0.2c0,0.1,0,0.3,0.1,0.4c0.1,0.4,0.2,0.9,0.4,1.3
			c0.1,0.4,0.2,1,0.3,1.4c0,0.1,0,0.3,0,0.4c0,0.1,0,0.6,0,0.6c0,0-0.1,0-0.1,0c0,0-0.1-0.1-0.1-0.1c-0.3-0.4-0.6-0.8-0.8-1.3
			c-0.3-0.4-0.7-1-0.9-1.4c-0.1-0.2-0.3-0.3-0.5-0.3c-0.3,0-0.4,0.4-0.5,0.7c-0.3,0.9-0.6,2.3-0.5,3.3
			C23.9,139.2,24,139.8,24.3,139.9 M29.5,140.1L29.5,140.1C29.5,140.1,29.5,140.1,29.5,140.1C29.5,140.1,29.5,140.1,29.5,140.1
			c0,0,0.2,0.1,0.3,0.1c0.3,0.1,0.3,0.1,0.7,0.1c0.7-0.1,1.6-0.5,2.1-0.9c0.2-0.1,0.3-0.2,0.3-0.4c0-0.2-0.1-0.3-0.2-0.5
			c-0.1-0.2-0.3-0.2-0.5-0.1c-0.5,0.1-1.1,0.2-1.5,0.2c-0.1,0-0.2,0-0.3,0c-0.1,0-0.1,0-0.1,0s0.1-0.3,0.2-0.5
			c0.1-0.3,0.2-0.5,0.2-0.5s0.1,0,0.2,0c0.2,0,1.5,0,1.6,0c0.2,0,0.3-0.2,0.3-0.5c0-0.2-0.1-0.4-0.3-0.5c-0.1,0-0.2,0-0.3,0
			c-0.4,0-1.2,0-1.2,0l0.2-0.7c0,0,0.4,0,0.8,0c0.2,0,1.3,0,1.6-0.2c0.2-0.1,0.1-0.4,0-0.6c-0.3-0.4-0.6-0.6-1-0.6
			c-0.3,0-1.3,0.1-1.5,0.1c-0.2,0-0.5,0.1-0.7,0.1c-0.2,0-0.8,0.1-0.9,0.2c-0.2,0.1-0.3,0.2-0.2,0.4c0.1,0.2,0.2,0.3,0.4,0.3
			c0.2,0.1,0.5,0.1,0.5,0.1s-0.1,0.3-0.2,0.6c-0.1,0.2-0.1,0.4-0.2,0.4c0,0,0,0-0.1,0c-0.3,0-0.4,0.2-0.4,0.4c0,0.1,0.1,0.5,0.1,0.6
			c0,0,0,0,0,0.1c-0.2,0.4-0.2,0.5-0.3,0.8c-0.1,0.3-0.1,0.7,0.1,1c0,0,0,0.1,0.1,0.1c0,0.1,0.2,0.3,0.2,0.3 M35,140.2
			c0,0-0.1,0.3-0.2,0.6c-0.1,0.4-0.4,1.6-0.5,2c-0.1,0.5-0.4,1.9-0.4,2c0,0,0,0.1-0.1,0.1c-0.1,0.1-0.2,0-0.3,0
			c-0.2-0.1-0.4-0.2-0.5-0.4c-0.3-0.4-0.2-1.1-0.2-1.5c0.2-1.5,0.4-2.1,1-3.6c0,0,0,0,0-0.1c-0.2-0.4-0.3-0.8-0.3-1.2
			c0-1.1,0.7-2.3,1.4-3.2c0.1-0.1,0.4-0.5,0.6-0.5c0.2,0,0.2,0.2,0.2,0.4c-0.1,0.5-0.5,1.1-0.7,1.5c-0.3,0.5-0.4,0.7-0.5,1.2
			c0,0.1-0.1,0.4-0.1,0.4c0,0.1,0,0.3,0,0.3s0.5-0.7,0.8-1.1c0.2-0.2,0.3-0.4,0.4-0.5c0.1-0.2,0.7-0.7,0.9-0.9
			c0.3-0.3,0.5-0.4,0.8-0.6c0.3-0.1,0.5-0.2,0.8,0c0.4,0.3,0.6,0.9,0.7,1.4c0.1,0.6-0.1,1.3-0.3,1.8c-0.3,0.6-0.7,1-1.3,1.4
			c-0.6,0.4-1.3,0.7-2,0.6C35.1,140.2,35,140.2,35,140.2 M37.8,136c-0.3,0.3-0.8,0.9-1,1.2c-0.3,0.4-0.6,0.9-0.8,1.2
			c-0.1,0.1-0.2,0.4-0.2,0.4c0,0,0.2,0,0.3,0c0.4-0.1,0.9-0.3,1.1-0.5c0.4-0.3,0.7-0.8,0.8-1.3c0.1-0.2,0.1-0.7-0.1-0.9
			C37.9,136,37.8,135.9,37.8,136"/>
	</defs>
	<clipPath id="SVGID_00000062191503406738275840000010493291164935630497_">
		<use xlink:href="#SVGID_00000049915266259805001750000001569484682875490180_"  style="overflow:visible;"/>
	</clipPath>
	
		<line style="clip-path:url(#SVGID_00000062191503406738275840000010493291164935630497_);fill:#01147B;stroke:#01147B;stroke-miterlimit:10;" x1="0" y1="135.9" x2="42.2" y2="135.9"/>
</g>
<g>
	<defs>
		<path id="SVGID_00000128469654223935791630000017746891480971937159_" d="M205.8,143.7C205.8,143.7,205.8,143.7,205.8,143.7
			l-0.8-2.6c0,0,0,0,0,0c0,0,0,0,0,0l0,0c0,0-0.8,2.6-0.8,2.6c0,0,0,0,0,0c0,0-2.3,0-2.3,0c0,0,0,0,0,0c0,0-2.1-6.9-2.1-6.9s0,0,0,0
			c0,0,0,0,0,0c0,0,2.8,0,2.8,0c0,0,0,0,0,0l0.5,1.8c0,0,0,0,0,0c0,0,0,0,0,0c0,0,0.5-1.8,0.5-1.8c0,0,0,0,0,0c0,0,2.8,0,2.8,0
			c0,0,0,0,0,0l0.6,1.8c0,0,0,0,0,0c0,0,0,0,0,0c0,0,0.5-1.8,0.5-1.8c0,0,0,0,0,0c0,0,2.6,0,2.6,0c0,0,0,0,0,0c0,0-2.1,6.9-2.1,6.9
			c0,0,0,0,0,0C208.1,143.7,205.8,143.7,205.8,143.7z M217.5,143.6C217.5,143.6,217.4,143.7,217.5,143.6c-0.1,0.1-2.5,0.1-2.5,0.1
			c0,0,0,0,0,0l-0.3-0.9c0,0,0,0-0.1,0l-2.3,0c0,0,0,0-0.1,0l-0.3,0.9c0,0,0,0,0,0l-2.5,0c0,0-0.1,0-0.1-0.1c0,0,2.1-6.8,2.1-6.8
			c0,0,0-0.1,0.1-0.1l3.7,0c0,0,0.1,0,0.1,0.1C215.3,136.8,217.5,143.6,217.5,143.6z M214,140.7c0,0-0.5-1.8-0.5-1.8
			c0-0.1,0-0.1,0-0.1l0,0c0,0,0,0,0,0.1c0,0-0.5,1.7-0.5,1.8c0,0,0,0.1,0.1,0.1L214,140.7C214,140.8,214,140.7,214,140.7z
			 M229.6,139C229.6,139,229.6,139.1,229.6,139c0.1,0.2,0.7,0.8,0.9,1c0.2,0.2,0.6,0.6,0.6,1.5c0,0.9-0.5,1.4-0.6,1.5
			c-0.1,0.1-0.6,0.6-1.6,0.6l-5.3,0c0,0-0.8,0-1.3-0.5l-1.4-1.4c0,0-0.1,0-0.1,0v1.9c0,0-2.7,0-2.7,0c0,0,0,0,0,0c0,0,0-6.9,0-6.9
			h4.9c0,0,0.9,0,1.6,0.6c0.7,0.6,0.7,1.3,0.7,1.7c0,0.4-0.1,1.1-0.8,1.6c0,0-0.3,0.2-0.5,0.3c0,0-0.1,0-0.1,0.1c0,0,0,0.2,0.4,0.2
			l3.4,0c0,0,0.1,0,0.1-0.1c0,0,0,0,0-0.1c0,0-0.6-0.6-0.9-0.9c0,0-0.5-0.6-0.5-1.4c0-0.8,0.5-1.3,0.8-1.6c0.3-0.2,0.9-0.5,1.3-0.5
			h4.4v2.3L229.6,139C229.6,139,229.6,139,229.6,139z M222.7,139.1c0-0.4-0.3-0.5-0.5-0.5h-1.4c0,0,0,0,0,0.1l0,0.8c0,0,0,0.1,0,0.1
			l1.5,0C222.4,139.6,222.7,139.5,222.7,139.1z M206.2,129.2c-0.4,0-1,0.2-1.3,0.5c-0.3,0.2-0.8,0.8-0.8,1.6c0,0.8,0.5,1.4,0.5,1.4
			c0.2,0.3,0.9,0.9,0.9,0.9c0,0,0,0,0,0.1c0,0,0,0.1-0.1,0.1c0,0-5.6,0-5.6,0v2.5h6.7c0.9,0,1.4-0.5,1.6-0.6
			c0.1-0.1,0.6-0.7,0.6-1.5c0-0.9-0.4-1.3-0.6-1.5c-0.1-0.2-0.7-0.8-0.9-0.9c0,0,0,0,0-0.1c0,0,0-0.1,0-0.1l3.2,0v4.7h2.5v-4.7h3
			v-2.3H206.2z M233.1,133.7v2.5h-4.2c0,0-0.8,0-1.3-0.5l-1.4-1.4c0,0-0.1,0-0.1,0v1.9c0,0-2.7,0-2.7,0c0,0,0,0,0,0c0,0,0-6.9,0-6.9
			h4.9c0,0,0.9,0,1.6,0.6c0.7,0.6,0.7,1.3,0.7,1.7c0,0.4-0.1,1.1-0.8,1.6c0,0-0.3,0.2-0.5,0.3c0,0-0.1,0-0.1,0.1c0,0,0,0.2,0.4,0.2
			H233.1z M228.1,131.7c0-0.4-0.3-0.5-0.5-0.5h-1.4c0,0,0,0,0,0.1l0,0.8c0,0,0,0.1,0,0.1l1.5,0C227.7,132.1,228.1,132,228.1,131.7z
			 M222.9,136.1C222.9,136.2,222.9,136.2,222.9,136.1c-0.1,0.1-2.5,0.1-2.5,0.1c0,0,0,0,0,0l-0.3-0.9c0,0,0,0-0.1,0l-2.3,0
			c0,0,0,0-0.1,0l-0.3,0.9c0,0,0,0,0,0l-2.5,0c0,0-0.1,0-0.1-0.1c0,0,2.1-6.8,2.1-6.8c0,0,0-0.1,0.1-0.1l3.7,0c0,0,0.1,0,0.1,0.1
			C220.8,129.3,222.9,136.1,222.9,136.1z M219.5,133.2c0,0-0.5-1.8-0.5-1.8c0-0.1,0-0.1,0-0.1l0,0c0,0,0,0,0,0.1
			c0,0-0.5,1.7-0.5,1.8c0,0,0,0.1,0.1,0.1L219.5,133.2C219.5,133.3,219.5,133.3,219.5,133.2z"/>
	</defs>
	<clipPath id="SVGID_00000063622398015898897390000007004165179542685583_">
		<use xlink:href="#SVGID_00000128469654223935791630000017746891480971937159_"  style="overflow:visible;"/>
	</clipPath>
	
		<line style="clip-path:url(#SVGID_00000063622398015898897390000007004165179542685583_);stroke:#000000;stroke-miterlimit:10;" x1="196.5" y1="135.9" x2="236.1" y2="135.9"/>
</g>
<g>
	<defs>
		<path id="SVGID_00000129897293139202340920000008709990153107862442_" d="M351.4,131.2h-7.1v2.2h2.3v8.6h2.4v-8.6h2.3V131.2z
			 M339.8,135.1c-0.7-0.3-1-0.7-1-1.1c0-0.5,0.4-0.9,1.1-0.9c0.6,0,1,0.3,1.4,1.1l2.1-0.9c-0.6-1.4-1.7-2.3-3.6-2.3
			c-2,0-3.4,1.3-3.4,3c0,1.2,0.6,2.1,2,2.9l1.4,0.7c0.8,0.4,1.2,0.7,1.2,1.3c0,0.6-0.5,1.1-1.2,1.1c-0.7,0-1.4-0.4-1.7-1.3l-2.2,0.6
			c0.5,1.8,2,2.8,3.9,2.8c2.1,0,3.6-1.3,3.6-3.2c0-1.5-0.8-2.4-2.3-3.2L339.8,135.1z"/>
	</defs>
	<clipPath id="SVGID_00000127031498931510584630000002202666543585485472_">
		<use xlink:href="#SVGID_00000129897293139202340920000008709990153107862442_"  style="overflow:visible;"/>
	</clipPath>
	
		<line style="clip-path:url(#SVGID_00000127031498931510584630000002202666543585485472_);fill:#261E3C;stroke:#261E3C;stroke-miterlimit:10;" x1="334.8" y1="135.9" x2="352.3" y2="135.9"/>
</g>
<g>
	<defs>
		<path id="SVGID_00000105398624103954474410000003129200226014490027_" d="M327.7,135.7h-4.5c-0.1-1.5-0.3-3-0.6-4.5
			c0-0.2-0.2-0.3-0.3-0.3h-1c-0.1,0-0.2,0-0.2,0.1c-0.1,0.1-0.1,0.2-0.1,0.3c0.3,1.5,0.5,2.9,0.6,4.5h-4.3c-0.2,0-0.4,0.2-0.4,0.4
			v0.9c0,0.2,0.2,0.4,0.4,0.4h4.4c0,0.2,0,0.4,0,0.6c0,1.3-0.1,2.5-0.2,3.7c0,0.1,0,0.2,0.1,0.3c0.1,0.1,0.2,0.1,0.2,0.1h1
			c0.2,0,0.3-0.1,0.4-0.3c0.1-1.3,0.2-2.4,0.2-3.8c0-0.2,0-0.4,0-0.6h4.4c0.2,0,0.4-0.2,0.4-0.4V136
			C328.1,135.8,327.9,135.7,327.7,135.7z"/>
	</defs>
	<clipPath id="SVGID_00000062180490051921110330000017453298099753486504_">
		<use xlink:href="#SVGID_00000105398624103954474410000003129200226014490027_"  style="overflow:visible;"/>
	</clipPath>
	
		<line style="clip-path:url(#SVGID_00000062180490051921110330000017453298099753486504_);fill:#01147B;stroke:#01147B;stroke-miterlimit:10;" x1="313.3" y1="135.9" x2="330.8" y2="135.9"/>
</g>
<g>
	<defs>
		<path id="SVGID_00000151521654261668653750000014920254486514014355_" d="M177,79.4h0.3c1.8,0.2,3.6,0.6,5.3,1.3
			c1.3,0.5,2.3,1.5,2.9,2.7c2.1,3.7,0.8,8.4-2.9,10.4c-0.2,0.1-0.5,0.3-0.8,0.4c-1.5,0.7-3.1,1.2-4.8,1.3c-3.1,0.3-6.3-0.3-9.1-1.6
			c-1.9-0.8-3.5-2.2-4.6-3.9c-0.8-1.3-0.7-2.9,0.2-4.2c1.4-2,4.5-2.4,6.8-2.3c2.2,0.1,4.4,0.5,6.6,1.2c0.9,0.3,1.7,0.7,2.5,1.1
			c0.2,0.2,0.3,0.5,0.2,0.8c-0.4,1.2-3.2,1.8-4,1.9c-2.2,0.3-3.3-0.5-5.8-1.5c-0.7-0.3-1.4-0.5-2.1-0.6c-1.1-0.1-2.5,0.2-2.7,1.4
			c-0.1,0.6,0.6,1.2,1.2,1.5c1.2,0.5,2.4,0.8,3.7,0.8c3.9,0.1,8.2-0.6,11.4-2.8c0.5-0.3,0.8-0.8,0.9-1.3c0-1.2-2-1.9-2-1.9
			c-2.1-0.9-6.1-1.3-8.1-1.5s-5.5-0.5-6.3-0.6c-0.8-0.1-1.7-0.3-2.5-0.6c-0.8-0.4-1.4-1-1.6-1.9c-0.3-1.5,0-3.1,0.9-4.4
			c2.1-3,7.1-4.2,10.8-4.7s9.4-0.4,12.9,1.4c0.5,0.3,0.8,0.6,0.7,1.1c-0.2,1-1,1.8-2,2.1c-1.4,0.3-2.8,0.5-4.2,0.5
			c-4.2,0.2-9.4,0.1-13.5,1.2c-0.4,0.1-0.7,0.2-1,0.4c-0.6,0.7,1.2,0.9,1.6,1h0.3l9,1.1"/>
	</defs>
	<clipPath id="SVGID_00000011024196295985547620000011813314102410991273_">
		<use xlink:href="#SVGID_00000151521654261668653750000014920254486514014355_"  style="overflow:visible;"/>
	</clipPath>
	
		<path style="clip-path:url(#SVGID_00000011024196295985547620000011813314102410991273_);fill:none;stroke:#101C50;stroke-miterlimit:10;" d="
		M188.7,72.9c0,0-26.4-3.4-24.8,6.4c0,0,3.3,1.9,6.9,1.7c3.6-0.3,22,1.3,9.8,11.1c0,0-10.9,4.8-16.8-4c0,0,0.2-6.7,14.7-0.5"/>
</g>
<path class="st14" d="M151.9,60.4L151.9,60.4C151.8,60.4,151.8,60.4,151.9,60.4C151.9,60.4,151.9,60.4,151.9,60.4z"/>
<g>
	<defs>
		<path id="SVGID_00000144301624399668008820000004932377658262793370_" d="M172.5,54.4c-0.2-1.1-0.8-2-1.7-2.7
			c-0.7-0.5-1.5-0.9-2.4-1.1c-0.2,0-0.4-0.1-0.6-0.1c-0.1-0.1-0.2-0.2-0.3-0.4c-0.7-0.8-1.5-1.3-2.5-1.7c-2.4-0.8-5.7-0.2-7.9,0.7
			c-2.3,1-4.4,2.4-6.2,4.2c-1.8,1.6-2.8,3.9-2.8,6.4c0.1,0.9,0.3,1.8,0.7,2.7c0.4,0.5,0.8,1.2,1.1,1.8c0,0.4,0,0.8,0,1.3
			c0,1,0.5,2,1.2,2.6c0,0,0,0,0,0c0.4,0.4,1.1,0.4,1.5,0c0.2-0.2,0.4-0.4,0.5-0.6c0.2-0.4,0.4-0.8,0.7-1.2l0,0c0,0,0.2,0,0.3,0.1
			c0.4,0.2,0.8,0.2,1.2,0.3c0.5,0,1,0.2,1.5,0.2c1.8,0,3.5-0.3,5.2-0.9c3.1-1.2,5.9-3.1,8.1-5.6C171.7,59.1,173,56.6,172.5,54.4z
			 M153.1,58.6c-0.5,0.8-1.2,1.7-1.2,1.8c-0.1-0.1-0.2-0.3-0.2-0.5c-0.7-1.6,0.8-3.5,2.1-4.6c1-0.9,2.2-1.6,3.5-2
			c0.5-0.1,1.3-0.2,1.3-0.2l-1,0.8C155.9,55.3,154.4,56.9,153.1,58.6z M165.1,60.7c-1.8,1-3.8,1.6-5.9,1.8l0,0
			c-0.8,0.1-2.9,0.1-3-0.2c0-0.1,0-0.1,0.3-0.5s0.6-0.9,1-1.4c1.9-2.3,4-4.2,6.5-5.8c0.5-0.3,1.1-0.6,1.8-0.8c0.7-0.3,1.5-0.3,2.2,0
			c0.6,0.3,1.1,0.9,1.2,1.6C169.5,57.8,166.9,59.7,165.1,60.7z"/>
	</defs>
	<clipPath id="SVGID_00000036952514292249905120000003089110817610346116_">
		<use xlink:href="#SVGID_00000144301624399668008820000004932377658262793370_"  style="overflow:visible;"/>
	</clipPath>
	
		<path style="clip-path:url(#SVGID_00000036952514292249905120000003089110817610346116_);fill:none;stroke:#101C50;stroke-miterlimit:10;" d="
		M150.9,70.3c0,0,3.5-19,18.3-18.3c0,0,5.7,4.9-4.7,10.4c-10.4,5.5-15.4,0.2-15-3.9s9-10.9,15.4-8.1s1.3,6.8,1.3,6.8"/>
</g>
<g>
	<defs>
		<path id="SVGID_00000146500396348034855920000017481800237054540972_" d="M156.8,71.3c0.1,0,0.3,0.1,0.4,0.1
			c1,0.5,1.7,1.5,1.9,2.6c0.6,3.6,0.9,7.2,1,10.8c0.1,1.7,0.1,3.4,0.2,5.1c0.1,1.6,0.1,3.1-0.1,4.7c-0.1,0.5-0.4,1-0.9,1.3
			c-0.8,0.3-1.6,0.4-2.4,0.2c-1.6-0.3-2.2-1.4-2.4-3c-0.4-4.9-0.4-9.8,0-14.6c0.2-2,0.5-3.9,1.1-5.9C155.6,72.1,156,71.2,156.8,71.3
			"/>
	</defs>
	<clipPath id="SVGID_00000138536722057975694010000012184395909430584235_">
		<use xlink:href="#SVGID_00000146500396348034855920000017481800237054540972_"  style="overflow:visible;"/>
	</clipPath>
	
		<line style="clip-path:url(#SVGID_00000138536722057975694010000012184395909430584235_);fill:none;stroke:#101C50;stroke-miterlimit:10;" x1="157.2" y1="69.6" x2="157.2" y2="100.2"/>
</g>
<g>
	<defs>
		<path id="SVGID_00000007415555634828729740000006868648773424723332_" d="M151.5,79.5c-0.1-0.7-0.2-1.5-0.3-2.2
			c0,0-0.2-0.7-0.3-1.2c-0.2-0.8-0.5-1.6-0.9-2.3c-0.4-0.8-0.7-1.5-1-2.1c-1.8-3.2-4.1-6.2-6.7-8.8c-1.2-1.2-2.9-2.7-4.2-3.8
			c-0.6-0.5-4.6-3.4-5.3-3.9c-2.7-1.7-5.5-3.3-8.4-4.7c-3.7-1.8-7.6-3.3-11.5-4.5c-6-2-12.3-2.9-18.6-2.8c-3.2,0.2-6.4,0.7-9.6,1.5
			c-1.9,0.4-3.6,1.6-4.5,3.2c-0.6,0.8-0.8,1.8-0.7,2.8c0.2,0.8,1.4,1.1,2.3,1.3c0.9,0.2,3,0.3,3.5-0.4c0.2-0.3,0.2-0.6,0-0.9
			c-0.3-0.4-0.7-0.7-1.2-0.7c-0.6-0.1-1.6-0.2-1.9-0.3l-0.3-0.1l0.1-0.1c0.2-0.1,0.5-0.2,0.8-0.3c0.3-0.1,0.6-0.2,1-0.3
			c3.1-0.6,6.3-0.8,9.4-0.7c8.4,0.3,16.8,2.2,24.5,5.5c7.9,3.2,16.8,8.8,22.1,15.5c2,2.5,4.5,6.7,4.8,10.2c0.3,3.1-0.7,6.2-2.7,8.6
			c-1.6,1.7-3.5,3.1-5.6,4c-4.9,2.3-10.8,2.8-16.2,2.7c-0.7,0-3.4-0.3-4-0.3c-1.1-0.2-2.5-0.4-2.5-0.4l-0.4-16.5
			c0,0,1.7,0.1,2.8,0.1c4.2,0.3,8.3,1.1,12.3,2.4c0.7,0.3,1.3,0.7,1.4,1.3c0,0.5-0.4,0.9-0.8,1.3c-0.2,0.2-0.5,0.4-0.7,0.5
			c-0.5,0.3-1.4,0.8-1.5,0.8c-0.2,0.2-0.2,0.5,0,0.7c0.9,0.5,2,0.7,3,0.7c1.8-0.2,3.4-1.2,4.3-2.8c0.8-1.2,0.9-2.7,0.3-4
			c-0.8-1.8-2.2-3.3-4-4.1c-2.6-1.1-5.4-1.9-8.2-2.3c-1.6-0.3-3.2-0.5-4.8-0.5c-1.6-0.1-4.1,0-4.1,0s-0.1-2.2-0.2-3.7
			c-0.2-2.4-0.8-7.2-3.1-8.6c-0.4-0.3-0.9-0.2-1.2,0.1c-0.5,1-0.8,2.1-1,3.3c-0.2,1-0.7,5.9-0.7,6.6s-0.1,2.8-0.1,2.9l-0.1,0.1
			c-0.1,0-1.5,0.3-2.4,0.4c-2.8,0.6-5.5,1.4-8.1,2.5c-2,0.9-5,2.5-5.9,4.5c-0.6,1.4-0.4,2.9,0.4,4.2c1,1.7,2.3,3.3,3.9,4.6
			c0.5,0.5,2.9,2.5,3.5,2.9c2.1,1.6,4.4,3,6.8,4.1c0.8,0.4,1.8,0.9,1.8,0.9s0.2,1.9,0.4,3c0.3,1.4,0.7,2.6,2,3.1
			c0.8,0.3,1.7,0.3,2.5,0.1c0.6-0.1,1.2-0.4,1.5-1c0.2-0.4,0.3-0.8,0.3-1.2c0.1-0.6,0.1-1.4,0.1-1.4s2,0.5,3.4,0.7
			c4,0.7,8.1,0.8,12.1,0.3c5.6-0.7,12.1-2.7,16.2-6.4c1.5-1.4,2.8-3,3.8-4.7c0.5-0.9,1-1.8,1.4-2.7c0.3-0.9,0.6-1.7,0.8-2.6
			c0.2-1.3,0.3-2.7,0.2-4L151.5,79.5z M104.3,91c-3.2-1.4-6.1-3.2-8.9-5.4c-0.4-0.3-2.1-2-2.4-2.3c-0.6-0.5-0.9-1.2-0.8-1.9
			c0.1-0.7,1.5-1.3,2.2-1.5c2.8-0.9,5.6-1.4,8.5-1.8c1.7-0.2,4.1-0.4,4.1-0.4c0,0.2-0.1,2.5-0.1,4.9c0,4.7,0.1,9.4,0.1,9.4
			S105.3,91.5,104.3,91z"/>
	</defs>
	<clipPath id="SVGID_00000098188864482304566550000015487658405572908984_">
		<use xlink:href="#SVGID_00000007415555634828729740000006868648773424723332_"  style="overflow:visible;"/>
	</clipPath>
	
		<path style="clip-path:url(#SVGID_00000098188864482304566550000015487658405572908984_);fill:none;stroke:#101C50;stroke-miterlimit:10;" d="
		M88,51.1c0,0-11.5,0.8-6.3-3.1c5.3-3.9,60.5-5.6,66.4,35.7c0,0-8.2,27.1-50.7,5.5c0,0-21.9-14.4,16.7-15.3c0,0,32.9,4.7,11.5,10.9
		l-11.5-31.2h-5l0.6,57.5"/>
</g>
<g>
	<defs>
		<path id="SVGID_00000062184162947786424540000009756023868510472586_" d="M231.7,75.8c-3.6,0.6-7.2,0.9-10.8,1.1l-1,3.1
			c2.3-0.2,4.5-0.2,6.8,0c0,0,0.9-0.1,1,1c0,0.7,0,1.5-0.1,2.2c0,0-0.1,0.7-1,0.9s-8.5,0.5-8.5,0.5l-1.2,4c0,0-0.4,0.9,0.5,0.7
			s8.7-1.7,9.7-1.5c1.3,0.4,2.1,1.7,1.9,3c-0.4,1.6-8.1,6.5-12.8,6.2c0,0-2.5,0.2-4.6-3.2c-1.9-3.2,0.7-9.2,0.7-9.2
			s-1.2-2.8-0.3-3.8c0.6-0.4,1.3-0.6,2.1-0.6l1.9-3.9c-1.3,0.1-2.6-0.5-3.4-1.4c-1.2-1.5-1.3-2.2-0.4-2.6s10-2.1,16.1-1.9
			c0,0,2.2-0.2,4,3.5C232.3,73.9,233.2,75.4,231.7,75.8"/>
	</defs>
	<clipPath id="SVGID_00000027592640994302331840000007996684235059388327_">
		<use xlink:href="#SVGID_00000062184162947786424540000009756023868510472586_"  style="overflow:visible;"/>
	</clipPath>
	
		<path style="clip-path:url(#SVGID_00000027592640994302331840000007996684235059388327_);fill:none;stroke:#101C50;stroke-miterlimit:10;" d="
		M210.9,74.1l23.2-1.8l-16.6,2.3c0,0-7.1,19.4-1.5,19.4c5.5,0,13.3-5.4,13.3-5.4l-19.7,4.7l0.9-10.5l18.6-1.3"/>
</g>
<g>
	<defs>
		<path id="SVGID_00000148629209964747742490000005924557118957430968_" d="M208.4,90.7c-0.8,1.9-2.9,3.9-5.5,2.6s-6.6-9.6-6.6-9.6
			s-1.5-3.1-1.9-3c0,0-0.3-0.6-0.5,2.8s0,10-1.3,11c-1,0.9-2.5,0.8-3.4-0.2c-0.1-0.1-0.2-0.2-0.3-0.4c-0.7-1.2-1-4-0.6-9.1
			s1.6-10.4,3.1-12c0.6-0.9,1.8-1.1,2.7-0.5c0.2,0.1,0.3,0.3,0.5,0.5c0,0,2,1.8,5.3,7.1l0.6,1c0,0,3,5,3.3,5c0,0,0.2,0.2,0.5,0.1
			s0.2-1.7,0.2-1.7c-0.7-5-1.8-9.9-3.3-14.7c-0.2-0.7-0.3-1.5-0.1-2.2c0.3-1.1,1.4-0.6,1.4-0.6s4.2,2.1,6.3,9S209.2,88.9,208.4,90.7
			"/>
	</defs>
	<clipPath id="SVGID_00000032615348034147321170000016437943142852523416_">
		<use xlink:href="#SVGID_00000148629209964747742490000005924557118957430968_"  style="overflow:visible;"/>
	</clipPath>
	
		<path style="clip-path:url(#SVGID_00000032615348034147321170000016437943142852523416_);fill:none;stroke:#101C50;stroke-miterlimit:10;" d="
		M191.4,97.7c0,0-2.7-14.5,1.8-22.6L204.4,92c0,0,8.6-12.3-4.5-26.6"/>
</g>
<g>
	<defs>
		<path id="SVGID_00000103245209999237886790000007931180302048991631_" d="M253.1,72.7c-5.1-3.5-13.4,7.7-17,13.3
			c-0.5-2.8,1.4-6.4,1.4-6.4s3.1-5.3,3.5-6.4c0.4-1.1,0.6-3.3,0.1-3.5c-0.5-0.2-1.3,0.5-1.3,0.5c-6.9,6.2-7.9,13.1-7.9,13.1
			c-0.6,2.8-0.2,5.7,1.2,8.1c-3.8,8.2-5.7,15.3-5.2,19.5c0.5,3.2,2.8,5.4,4.2,6c1.4,0.6,1.7-1.1,1.7-1.1c0.9-7,2.7-13.8,5.5-20.3
			c7.2,1.7,12.6-5.4,14.6-8.7l0,0c1.2-2.2,1.8-4.7,1.7-7.2C255.6,76.6,254.8,74,253.1,72.7z M248.4,86.7c-1.9,1.4-4.1,2.3-6.4,2.6
			c2.2-4,4.8-7.8,7.9-11.2c2.2-2.5,2.5-0.2,2.5-0.2l0,0C252.8,82.2,249.7,85.5,248.4,86.7z"/>
	</defs>
	<clipPath id="SVGID_00000051373684710808683320000006807166906458872504_">
		<use xlink:href="#SVGID_00000103245209999237886790000007931180302048991631_"  style="overflow:visible;"/>
	</clipPath>
	
		<path style="clip-path:url(#SVGID_00000051373684710808683320000006807166906458872504_);fill:none;stroke:#101C50;stroke-miterlimit:10;" d="
		M242,66.8c0,0-7.5,10.1-7.9,16.4s2.9,13.9,13.1,7.7c10.2-6.2,5.2-16.4,5.2-16.4s-7.2-1.8-17.7,23.2s-4.8,27.4-4.8,27.4"/>
</g>
<g>
	<defs>
		<path id="SVGID_00000011748726163994772190000012709463928177620919_" d="M293.5,77.4h-13.2c-0.3-4.5-0.9-8.9-1.8-13.3
			c-0.1-0.5-0.5-0.8-1-0.8h-3c-0.5,0-0.9,0.4-0.9,0.9c0,0.1,0,0.1,0,0.2c0.9,4.3,1.4,8.7,1.7,13.1h-12.7c-0.6,0-1.1,0.5-1.1,1.1l0,0
			v2.8c0,0.6,0.5,1.1,1.1,1.1l0,0h12.8c0,0.7,0,1.3,0,1.9c0,3.6-0.2,7.3-0.6,10.9c-0.1,0.5,0.3,1,0.9,1.1c0,0,0.1,0,0.1,0h2.8
			c0.6,0,1-0.4,1.1-1c0.4-3.7,0.6-7.3,0.5-11c0-0.6,0-1.2,0-1.9h13c0.6,0,1.1-0.5,1.1-1.1v-2.8c0-0.6-0.5-1.1-1.1-1.1l0,0"/>
	</defs>
	<clipPath id="SVGID_00000034073978637043084430000006969102418157859992_">
		<use xlink:href="#SVGID_00000011748726163994772190000012709463928177620919_"  style="overflow:visible;"/>
	</clipPath>
	
		<path style="clip-path:url(#SVGID_00000034073978637043084430000006969102418157859992_);fill:none;stroke:#101C50;stroke-miterlimit:10;" d="
		M259.2,80.2l39.2-0.4l-23-19.3c0,0,5,17.4,1.5,42.6"/>
</g>
<g>
	<defs>
		<path id="SVGID_00000124126337200022169120000005186898630887463850_" d="M116.9,40.7c-0.2,0.3-0.2,0.6-0.1,0.9
			c0.1,0.3,0.4,0.6,0.7,0.7l2.4,0.8c0.1,0,0.3,0.1,0.4,0.1c0.4,0,0.8-0.2,1.1-0.6c16-23.6,42.7-37.8,71.3-37.8
			c34.6,0,65.9,20.7,79.4,52.6c0.2,0.5,0.6,0.8,1.1,0.8h2.8c0.6,0,1-0.5,1-1c0-0.1,0-0.2-0.1-0.3c-19-46.5-72.1-68.9-118.6-50
			C141.4,13.7,126.9,25.5,116.9,40.7"/>
	</defs>
	<clipPath id="SVGID_00000031188647643029598990000015787480241223233453_">
		<use xlink:href="#SVGID_00000124126337200022169120000005186898630887463850_"  style="overflow:visible;"/>
	</clipPath>
	
		<linearGradient id="SVGID_00000026132316016430780590000009678078370957515437_" gradientUnits="userSpaceOnUse" x1="279.1842" y1="39.4846" x2="120.8568" y2="18.0804">
		<stop  offset="0" style="stop-color:#101C50"/>
		<stop  offset="0.24" style="stop-color:#0D267A"/>
		<stop  offset="0.5" style="stop-color:#085AA4"/>
		<stop  offset="0.65" style="stop-color:#058BBF"/>
		<stop  offset="1" style="stop-color:#B1FFFF"/>
	</linearGradient>
	
		<path style="clip-path:url(#SVGID_00000031188647643029598990000015787480241223233453_);fill:none;stroke:url(#SVGID_00000026132316016430780590000009678078370957515437_);stroke-miterlimit:10;" d="
		M117.4,44.4c0.4,0,3.7-4.4,3.9-4.8c16-23.6,42.7-37.8,71.3-37.8c34.6,0,66.5,20.8,80,52.7c0.2,0.5,2.3,3.8,3.5,5.4"/>
</g>
<g>
	<g>
		<path class="st23" d="M1457.7-2071.5c6.6-1.5,13.3-1.7,20-2"/>
		<path class="st23" d="M1891-1621.8c3.8,3.2,8.3,1.6,12.5,2"/>
		<path class="st23" d="M-189.2-1362.5c-8.1,12.6-4.7,24.5,2.6,35.9c5,7.8,11.4,14.5,17.4,21.5"/>
		<path class="st23" d="M1087.3-1218.6c0,4.2,0,8.3,0,12.5"/>
		<path class="st23" d="M1185.8-1240.1c-7.5,0-15,0-22.5,0"/>
		<path class="st23" d="M1498.6-2106.5c0.3,10.3,0.7,20.7,1,31"/>
		<path class="st23" d="M1342.7-1467.4c0,7.5,0,15,0,22.5"/>
		<path class="st23" d="M927.9-1260c-8.3,0-16.7,0-25,0"/>
		<path class="st23" d="M581-1225.6c-7,0-14,0-21,0"/>
		<path class="st23" d="M273.1-1360c7.5,0,15,0,22.5,0"/>
	</g>
</g>
<g>
	<defs>
		<path id="SVGID_00000176744085653975930530000018019559387338776714_" d="M370.6,137.6c1.5-0.2,2.8-1.5,2.8-3.2
			c0-2.1-1.5-3.3-3.8-3.3h-3.9V142h2.4v-4.3l2.9,4.3h2.8L370.6,137.6z M369.5,135.8h-1.4v-2.6h1.4c0.9,0,1.4,0.5,1.4,1.2
			C371,135.3,370.4,135.8,369.5,135.8z"/>
	</defs>
	<clipPath id="SVGID_00000032650591383073109200000007156320700467080113_">
		<use xlink:href="#SVGID_00000176744085653975930530000018019559387338776714_"  style="overflow:visible;"/>
	</clipPath>
	
		<line style="clip-path:url(#SVGID_00000032650591383073109200000007156320700467080113_);fill:#261E3C;stroke:#261E3C;stroke-miterlimit:10;" x1="361" y1="135.9" x2="378.5" y2="135.9"/>
</g>
<g>
	<defs>
		<path id="SVGID_00000077318249472304538900000000275184434913330329_" d="M360.5,137.9l1.7,5.1l-4.4-3.2c0,0-0.1,0-0.2,0l-4.4,3.2
			l0.5-1.4c0-0.1,0.1-0.1,0.1-0.2c2.3-2.9,5.7-5.5,5.7-5.5c-2.2,0.6-3.3,1.1-4.5,1.9c0,0-0.1,0-0.2,0l-4.4-3.2h5.4
			c0.1,0,0.1,0,0.1-0.1l1.7-5.1l1.7,5.1c0,0.1,0.1,0.1,0.1,0.1h5.4l-4.4,3.2C360.5,137.8,360.5,137.9,360.5,137.9z"/>
	</defs>
	<clipPath id="SVGID_00000114765559910218681380000012682935581117453711_">
		<use xlink:href="#SVGID_00000077318249472304538900000000275184434913330329_"  style="overflow:visible;"/>
	</clipPath>
	
		<linearGradient id="SVGID_00000110453408816435759970000013120917801938285984_" gradientUnits="userSpaceOnUse" x1="348.9853" y1="135.8749" x2="366.4939" y2="135.8749">
		<stop  offset="0.28" style="stop-color:#FA1660"/>
		<stop  offset="0.78" style="stop-color:#FF6E00"/>
	</linearGradient>
	
		<linearGradient id="SVGID_00000085971487276484826670000014117580447416558992_" gradientUnits="userSpaceOnUse" x1="348.9853" y1="135.8749" x2="366.4939" y2="135.8749">
		<stop  offset="0.28" style="stop-color:#FA1660"/>
		<stop  offset="0.78" style="stop-color:#FF6E00"/>
	</linearGradient>
	
		<line style="clip-path:url(#SVGID_00000114765559910218681380000012682935581117453711_);fill:url(#SVGID_00000110453408816435759970000013120917801938285984_);stroke:url(#SVGID_00000085971487276484826670000014117580447416558992_);stroke-miterlimit:10;" x1="349" y1="135.9" x2="366.5" y2="135.9"/>
</g>
<g>
	<defs>
		<path id="SVGID_00000096779560458193955320000016024406977050240938_" d="M147.4,133.5l-0.6,5.2h1.2L147.4,133.5z M152.7,132.5
			C152.7,132.5,152.7,132.5,152.7,132.5l0,3.9c0.2,0,0.3-0.1,0.5-0.1c0.5-0.2,1-0.9,1-1.9C154.2,132.6,152.9,132.5,152.7,132.5z
			 M147.4,133.5l-0.6,5.2h1.2L147.4,133.5z M152.7,132.5C152.7,132.5,152.7,132.5,152.7,132.5l0,3.9c0.2,0,0.3-0.1,0.5-0.1
			c0.5-0.2,1-0.9,1-1.9C154.2,132.6,152.9,132.5,152.7,132.5z M152.7,132.5C152.7,132.5,152.7,132.5,152.7,132.5l0,3.9
			c0.2,0,0.3-0.1,0.5-0.1c0.5-0.2,1-0.9,1-1.9C154.2,132.6,152.9,132.5,152.7,132.5z M146.8,138.7h1.2l-0.6-5.2L146.8,138.7z
			 M135.6,129.2v14.6h36.2v-14.6H135.6z M166.2,132.6h-2v2.8h2v2.2h-2v2.8h2v2.2H162v-11.1l-1.8,11.1h-2.6c0,0-0.3-2-0.6-3.9
			c-0.3-1.6-0.5-3.2-0.6-3.8c0.1,1.2-0.7,2.4-1.3,2.9l1.4,4.7h-2.2l-1.1-4l-0.5,0.1v4h-4.2l-0.3-1.9h-1.7l-0.3,1.9h-4.3v-5.9l-1,5.9
			h-1.2l-1-5.9v5.9h-2.2v-12.2h2.8l1,6.3l1-6.3h2.8v11.2l1.7-11.2h2.9l1.6,10.8l0-10.8c0,0,2.2,0,2.2,0c2,0,2.9,1.5,3.2,2l-0.2-2
			h2.2l1,7.4l1-7.4h6.2V132.6z M170.6,142.6h-4.1v-12.2h2.2v10h1.9V142.6z M152.7,132.5C152.7,132.5,152.7,132.5,152.7,132.5l0,3.9
			c0.2,0,0.3-0.1,0.5-0.1c0.5-0.2,1-0.9,1-1.9C154.2,132.6,152.9,132.5,152.7,132.5z M146.8,138.7h1.2l-0.6-5.2L146.8,138.7z
			 M147.4,133.5l-0.6,5.2h1.2L147.4,133.5z M152.7,132.5C152.7,132.5,152.7,132.5,152.7,132.5l0,3.9c0.2,0,0.3-0.1,0.5-0.1
			c0.5-0.2,1-0.9,1-1.9C154.2,132.6,152.9,132.5,152.7,132.5z"/>
	</defs>
	<clipPath id="SVGID_00000126319152644779916600000002640864572485693884_">
		<use xlink:href="#SVGID_00000096779560458193955320000016024406977050240938_"  style="overflow:visible;"/>
	</clipPath>
	
		<line style="clip-path:url(#SVGID_00000126319152644779916600000002640864572485693884_);fill:#FF0000;stroke:#FF0000;stroke-miterlimit:10;" x1="134.2" y1="135.9" x2="174.5" y2="135.9"/>
</g>
<g>
	<defs>
		<path id="SVGID_00000098205073968467690750000008176878997830723214_" d="M170.6,140.4v2.2h-4.1v-12.2h2.2v10H170.6z M164.2,132.6
			v2.8h2v2.2h-2v2.8h2v2.2H162v-11.1l-1.8,11.1h-2.6c0,0-0.3-2-0.6-3.9c-0.3-1.6-0.5-3.2-0.6-3.8c0.1,1.2-0.7,2.4-1.3,2.9l1.4,4.7
			h-2.2l-1.1-4l-0.5,0.1v4h-4.2l-0.3-1.9h-1.7l-0.3,1.9h-4.3v-5.9l-1,5.9h-1.2l-1-5.9v5.9h-2.2v-12.2h2.8l1,6.3l1-6.3h2.8v11.2
			l1.7-11.2h2.9l1.6,10.8l0-10.8c0,0,2.2,0,2.2,0c2,0,2.9,1.5,3.2,2l-0.2-2h2.2l1,7.4l1-7.4h6.2v2.2H164.2z M148.1,138.7l-0.6-5.2
			l-0.6,5.2H148.1z M154.2,134.5c0-1.9-1.3-1.9-1.5-1.9c0,0,0,0,0,0v3.9c0.2,0,0.3-0.1,0.5-0.1C153.8,136.1,154.2,135.5,154.2,134.5
			z"/>
	</defs>
	<clipPath id="SVGID_00000114785825066541213950000000700044444008086430_">
		<use xlink:href="#SVGID_00000098205073968467690750000008176878997830723214_"  style="overflow:visible;"/>
	</clipPath>
	
		<line style="clip-path:url(#SVGID_00000114785825066541213950000000700044444008086430_);fill:#FFFFFF;stroke:#FFFFFF;stroke-miterlimit:10;" x1="134.2" y1="135.9" x2="174.5" y2="135.9"/>
</g>
</svg>
