<svg enable-background="new 0 0 373.8 144.8" viewBox="0 0 373.8 144.8" xmlns="http://www.w3.org/2000/svg" xmlns:xlink="http://www.w3.org/1999/xlink"><clipPath id="a"><path d="m191 135.7h-4.5c-.1-1.5-.3-3-.6-4.5 0-.2-.2-.3-.3-.3h-1c-.1 0-.2 0-.2.1-.1.1-.1.2-.1.3.3 1.5.5 2.9.6 4.5h-4.3c-.2 0-.4.2-.4.4v.9c0 .2.2.4.4.4h4.4v.6c0 1.3-.1 2.5-.2 3.7 0 .1 0 .2.1.3s.2.1.2.1h1c.2 0 .3-.1.4-.3.1-1.3.2-2.4.2-3.8 0-.2 0-.4 0-.6h4.4c.2 0 .4-.2.4-.4v-1.1c-.2-.2-.3-.3-.5-.3z"/></clipPath><clipPath id="b"><path d="m58.1 135.7h-4.5c-.1-1.5-.3-3-.6-4.5 0-.2-.2-.3-.3-.3h-1c-.1 0-.2 0-.2.1-.1.1-.1.2-.1.3.3 1.5.5 2.9.6 4.5h-4.3c-.2 0-.4.2-.4.4v.9c0 .2.2.4.4.4h4.3v.6c0 1.3-.1 2.5-.2 3.7 0 .1 0 .2.1.3s.2.1.2.1h1c.2 0 .3-.1.4-.3.1-1.3.2-2.4.2-3.8 0-.2 0-.4 0-.6h4.4c.2 0 .4-.2.4-.4v-1.1c-.1-.2-.2-.3-.4-.3z"/></clipPath><clipPath id="c"><path d="m104.7 136.1c.8-.5 1.4-1.3 1.4-1.9s-.3-1-.9-1.3c-.7-.3-1.8-.3-2.9-.3h-2.3l.1.5c.2 0 .8.1 1.1.1v2.4.6 3.2c-.3.1-.9.1-1 .1l-.1.5c.6-.1 1.3-.1 1.9-.1s1.2 0 1.8.1l-.1-.5c-.3 0-.8-.1-1-.1 0-.5 0-2 0-2.7.2 0 .5 0 .8-.1.4.5 2.9 3.3 3.6 3.6l.7-.1c-1.2-1-2.7-3.4-3.1-4zm-1.1-.2c-.3.1-.6.2-1 .2 0-.7 0-2.4 0-3 1.5 0 2.1.7 2.1 1.3-.1 1-.9 1.4-1.1 1.5zm-5.6 3.6c-.3 0-.6-.1-.9-.1-.3-.6-.8-1.7-1.3-3.3-.3-.8-.8-2.3-1-2.9.2 0 .5-.1.7-.1l.1-.5c-.6 0-1.2 0-1.8 0-.5 0-1 0-1.5-.1v.5c.2 0 .6.1.7.1-.3.8-2 5.4-2.4 6.2-.3.1-.6.1-.9.1l-.1.5c.4 0 .8-.1 1.2-.1.6 0 1.2 0 1.7.1l-.1-.5c-.3 0-.6-.1-.8-.1.1-.7.5-2.2.7-2.6.4 0 1.7-.1 2.1-.1.2.4.7 2 .9 2.7-.3.1-.7.1-.9.1l-.1.5c.6 0 1.2-.1 1.8-.1s1.3 0 1.9.1zm-5.4-3.5c.1-.3.3-.7.4-1.2.1-.4.3-.8.4-1.2.1.4.3 1 .5 1.5.1.4.2.7.3 1zm-17.8 3.9.1-.5c.1 0 .8-.1 1-.1 0-.6 0-2.2 0-3.1v-.6c0-.2 0-1.9 0-2.4-.3 0-.9-.1-1-.1l-.1-.5c.7.1 1.4.1 2.1.1.6 0 1.1 0 1.7-.1l-.1.5c-.1 0-.8.1-1 .1v2.5.6 3.1c.3.1.9.1 1 .1l.1.5c-.7-.1-1.4-.1-2.1-.1-.5 0-1.1 0-1.7 0zm10.7-7.3c.5 0 1 .1 1.5.1.4 0 .8 0 1.1-.1v.5c-.1 0-.6.1-.7.2-.2.1-1.6 1.8-2.1 2.5 1.1 1.5 2.1 3 3.2 4.5l-.7.2c-.8-.6-1.5-1.4-2.2-2.2-.5-.6-1-1.2-1.2-1.5-.4.5-1.2 1.9-1.7 2.7.2 0 .6.1.8.1l.1.5c-.2 0-1 0-1.6 0-.4 0-.9 0-1.3.1l.2-.5c.2 0 .5-.1.7-.1.3-.2 2-2.4 2.5-3.2-.3-.4-.6-.8-1-1.3-.5-.7-1-1.4-1.3-1.7-.1 0-.5-.1-.7-.1l-.1-.5c.5.1 1.1.1 1.6.1h1.8l-.1.5c-.3 0-.6.1-.7.1.3.4 1 1.6 1.4 2 .3-.4 1-1.5 1.3-2-.2 0-.5-.1-.6-.1zm-13.3 3.3c-.7.7-2.1 1-2.5 1l.1-.5c.7-.2 1.7-.6 1.7-1.8 0-.6-.3-1-.7-1.2-.2-.1-.7-.2-1.3-.2v2.4.4 3.3c.3 0 1 .1 1.3.1l.1.5c-.7 0-1.4-.1-2-.1s-1.3 0-1.9.1l.1-.5c.2 0 .8-.1 1-.1 0-.6 0-2.6 0-3.4v-.4c0-.2 0-1.9 0-2.4-.2-.1-.9-.1-1.1-.1l-.1-.5h1.1 1.3c1.4 0 2.2.1 2.7.3 1 .4 1.1 1.1 1.1 1.4-.1.7-.4 1.2-.9 1.7z"/></clipPath><clipPath id="d"><path d="m126.8 135.7h-4.5c-.1-1.5-.3-3-.6-4.5 0-.2-.2-.3-.3-.3h-1c-.1 0-.2 0-.2.1-.1.1-.1.2-.1.3.3 1.5.5 2.9.6 4.5h-4.3c-.2 0-.4.2-.4.4v.9c0 .2.2.4.4.4h4.4v.6c0 1.3-.1 2.5-.2 3.7 0 .1 0 .2.1.3s.2.1.2.1h1c.2 0 .3-.1.4-.3.1-1.3.2-2.4.2-3.8 0-.2 0-.4 0-.6h4.4c.2 0 .4-.2.4-.4v-1.1c-.1-.2-.3-.3-.5-.3z"/></clipPath><clipPath id="e"><path d="m252.3 135.7h-4.5c-.1-1.5-.3-3-.6-4.5 0-.2-.2-.3-.3-.3h-1c-.1 0-.2 0-.2.1-.1.1-.1.2-.1.3.3 1.5.5 2.9.6 4.5h-4.3c-.2 0-.4.2-.4.4v.9c0 .2.2.4.4.4h4.4v.6c0 1.3-.1 2.5-.2 3.7 0 .1 0 .2.1.3s.2.1.2.1h1c.2 0 .3-.1.4-.3.1-1.3.2-2.4.2-3.8 0-.2 0-.4 0-.6h4.4c.2 0 .4-.2.4-.4v-1.1c-.1-.2-.3-.3-.5-.3z"/></clipPath><clipPath id="f"><path d="m269.4 142v-11.1h-6.9v11.1zm-8.3 1.4v-13.9h9.7v13.9z"/></clipPath><clipPath id="g"><path d="m276.6 130.9h.7v4.9h-.6c-.8-1.1-1.6-2.2-2.4-3.5v3.5h-.7v-4.9h.6c.8 1.1 1.6 2.2 2.3 3.5v-3.5zm3.9 4.8-.4-1.3h-1.5l-.4 1.3h-.7l1.7-4.9h.7l1.5 4.9zm-.5-1.9c-.2-.6-.4-1.2-.5-2-.2.7-.4 1.3-.6 2zm2.2 1.9h.8v-4.2h1.3v-.7h-3.4v.7h1.3zm3.2-4.8h-.8v4.9h.8zm.5 2.3c0-1.4.9-2.4 2.1-2.4s2.1 1.1 2.1 2.4c0 1.4-.8 2.6-2.1 2.6s-2.1-1.1-2.1-2.6zm.9 0c0 .9.3 1.9 1.2 1.9s1.2-1 1.2-1.9-.3-1.7-1.2-1.7-1.2.8-1.2 1.7zm4.4-.9c.8 1.3 1.6 2.4 2.4 3.5h.6v-4.9h-.7v3.5c-.8-1.2-1.6-2.3-2.3-3.5h-.6v4.9h.7v-3.5zm3.9 3.4h-.7l1.7-4.9h.7l1.5 4.9h-.9l-.4-1.3h-1.5zm.6-1.9h1.1c-.2-.6-.4-1.2-.5-2-.2.8-.4 1.4-.6 2zm5.3 1.3h-1.6v-4.2h-.8v4.9h2.5v-.7zm-25.1 6.2c-.2.1-.4.1-.6.1-.7 0-1.4-.7-1.4-1.8s.6-1.8 1.5-1.8c.3 0 .7.1.9.3l.3-.6c-.3-.2-.7-.4-1.2-.4-1.5 0-2.4 1.2-2.4 2.5 0 1.4.9 2.5 2.3 2.5.5 0 .9-.1 1.4-.3v-2h-.8zm2.4-1.5h1.4v-.7h-1.4v-1.3h1.4v-.7h-2.2v4.9h2.5v-.7h-1.6v-1.5zm6-.3c0 1.4-.8 2.6-2.1 2.6s-2.1-1.1-2.1-2.6c0-1.4.9-2.4 2.1-2.4 1.3 0 2.1 1.1 2.1 2.4zm-.8 0c0-.9-.3-1.7-1.2-1.7-.8 0-1.2.9-1.2 1.7 0 .9.3 1.9 1.2 1.9s1.2-1 1.2-1.9zm4 1.8c-.2.1-.4.1-.6.1-.7 0-1.4-.7-1.4-1.8s.6-1.8 1.5-1.8c.3 0 .7.1.9.3l.3-.6c-.3-.2-.7-.4-1.2-.4-1.5 0-2.4 1.2-2.4 2.5 0 1.4.9 2.5 2.3 2.5.5 0 .9-.1 1.4-.3v-2h-.8zm3.6-1.3 1 2h-.9l-.8-1.8h-.4v1.8h-.8v-4.9h1.3c.9 0 1.5.5 1.5 1.4-.1.6-.4 1.2-.9 1.5zm0-1.4c0-.5-.3-.8-.8-.8h-.4v1.8h.3c.5-.1.9-.4.9-1zm3.3-1.4 1.5 4.9h-.9l-.4-1.3h-1.5l-.4 1.3h-.7l1.7-4.9zm.1 2.9c-.2-.6-.4-1.2-.5-2-.2.7-.4 1.3-.6 2zm4.5-1.5c0 .8-.6 1.6-1.6 1.6h-.4v1.8h-.8v-4.9h1.3c1 .1 1.5.5 1.5 1.5zm-.8 0c0-.5-.3-.8-.8-.8h-.4v1.8h.3c.5-.1.9-.4.9-1zm3.9.4h-1.7v-1.9h-.8v4.9h.8v-2.3h1.7v2.3h.8v-4.8h-.8zm1.6 3h.8v-4.9h-.8zm3.7-.6c-.8 0-1.5-.7-1.5-1.8s.6-1.8 1.5-1.8c.3 0 .7.1.9.3l.3-.6c-.3-.2-.7-.4-1.1-.4-1.4 0-2.3 1.2-2.3 2.5 0 1.4.9 2.5 2.3 2.5.4 0 .8-.2 1.1-.3l-.2-.6c-.4.1-.7.2-1 .2z"/></clipPath><clipPath id="h"><path d="m16.3 133.6s-.1.2-.1.3c0 0-.1.1-.1.1-.1.1-.2.1-.3 0-.2-.1-.3-.4-.3-.6 0-.1 0-.2 0-.3s-.2-.3-.2-.4c-.1-.2-.2-.4-.2-.6 0-.5.3-1 .6-1.4.4-.4.8-.7 1.4-.9.5-.2 1.2-.3 1.8-.2.2.1.4.2.5.4 0 0 0 .1.1.1h.1c.2 0 .4.2.5.2.2.2.3.3.4.6.1.5-.2 1-.5 1.3-.6.6-1.1 1-1.8 1.2-.3.1-.8.2-1.1.2-.1 0-.2 0-.3 0-.3.1-.5 0-.5 0zm1.1-.9c.5 0 .9-.2 1.3-.4s1-.6.9-1.1c0-.2-.1-.3-.3-.3-.2-.1-.3-.1-.5 0-.2 0-.2.1-.4.2-.5.3-1.1.8-1.4 1.3-.1.1-.2.2-.2.3 0 0-.1.1-.1.1.1-.1.5-.1.7-.1m-1.6-.4s.2-.2.3-.4c.2-.3.7-.8 1-1 .1-.1.2-.2.2-.2s-.2 0-.3 0c-.2 0-.6.3-.8.4-.3.2-.6.7-.5 1 .1.1.1.2.1.2m1.1 2.2c-.2 0-.2.2-.3.3-.1.3-.2 1.1-.2 1.3-.1.7-.1 2.4 0 3.2.1.4.2.6.5.7h.5c.1-.1.2-.2.2-.3.1-.3 0-.7 0-1 0-.4 0-.7 0-1.1 0-.5-.1-1.8-.2-2.4 0-.3-.1-.6-.5-.7zm-1.2 3s-.1.2-.1.3c-.1.2-.2.4-.3.6-.2.3-.6.8-.8 1-.9.8-2.3 1.2-3.6 1.4-.8.1-1.8.1-2.7-.1-.3-.1-.8-.2-.8-.2s0 .2 0 .3-.1.2-.1.3c-.1.1-.2.2-.3.2-.2 0-.4 0-.5 0-.3-.1-.4-.4-.4-.7 0-.2-.1-.7-.1-.7s-.2-.1-.4-.2c-.5-.3-1-.6-1.5-.9-.1-.1-.7-.5-.8-.6-.3-.3-.6-.6-.8-1-.2-.3-.2-.6-.1-.9.2-.5.8-.8 1.3-1 .3-.1 1.4-.5 1.8-.5.2 0 .5-.1.5-.1s0-.5 0-.6c0-.2.1-1.2.2-1.4 0-.1.1-.6.2-.7s.2-.1.3 0c.5.3.6 1.3.7 1.9v.8s.6 0 .9 0 .7.1 1 .1c.4.1 1.3.3 1.8.5.4.2.8.6.9.9s.1.6-.1.9-.6.6-.9.6c-.1 0-.5 0-.7-.1-.1 0 0-.1 0-.2 0 0 .2-.1.3-.2.1 0 .1-.1.2-.1.1-.1.2-.2.2-.3s-.2-.2-.3-.3c-.7-.3-2-.5-2.7-.5-.3 0-.6 0-.6 0l.1 3.6s.3.1.5.1c.1 0 .7.1.9.1 1.2 0 2.5-.1 3.5-.6.5-.2.9-.5 1.2-.9.4-.5.7-1.2.6-1.9-.1-.8-.6-1.7-1-2.2-1.1-1.5-3.1-2.7-4.8-3.4-1.8-.7-3.5-1.1-5.4-1.2-.5 0-1.5 0-2.1.2-.1 0-.2 0-.2.1-.1 0-.1 0-.2.1s0 0 .1 0 .3 0 .4.1c.1 0 .2.1.3.2v.2c-.1.1-.6.1-.8.1s-.5-.1-.5-.3c-.1-.2 0-.4.2-.6.2-.4.5-.6 1-.7.7-.2 1.5-.3 2.1-.3 1.4-.1 2.7.2 4.1.6.8.2 1.8.6 2.5 1 .5.3 1.4.7 1.8 1 .1.1 1 .7 1.2.8.3.2.7.6.9.8.5.5 1.2 1.3 1.5 1.9.1.1.1.3.2.5 0 .1.2.5.2.5 0-.2.3.8 0 1.7zm-9.7-1.6s-.5 0-.9.1c-.5.1-1.3.2-1.9.4-.2.1-.5.2-.5.3 0 .2.1.3.2.4l.5.5c.4.4 1.3.9 1.9 1.2.4.1.7.2.7.2s0-1 0-2c0-.6 0-1.1 0-1.1m15.6.5-2-.2s0 0-.1 0-.5-.1-.3-.2c0 0 .2-.1.2-.1.9-.2 2-.2 3-.3.2 0 .7 0 .9-.1s.4-.2.5-.5c0-.1 0-.2-.2-.3-.8-.4-2.1-.4-2.9-.3s-1.9.4-2.4 1c-.2.3-.3.6-.2 1 0 .2.2.3.4.4s.4.1.5.1c.2 0 .9.1 1.4.1s1.3.1 1.8.3c.2.1.4.2.4.4 0 .1-.1.2-.2.3-.7.5-1.7.6-2.5.6-.3 0-.5 0-.8-.2-.1-.1-.3-.2-.3-.3 0-.3.3-.3.6-.3.1 0 .3.1.5.1.5.2.8.4 1.3.3.2 0 .8-.2.9-.4 0-.1 0-.1-.1-.2s-.4-.2-.5-.2c-.4-.1-1.1-.2-1.5-.3-.5 0-1.2.1-1.5.5-.2.3-.2.6 0 .9.2.4.7.7 1 .9.6.3 1.3.4 2 .4.4 0 .7-.1 1.1-.3.3-.2.7-.5.9-.8.2-.5.2-1.1 0-1.5-.2-.3-.3-.5-.6-.6-.4-.1-.8-.1-1.3-.2zm2.7 3.5c.1.1.2.1.4 0s.2-.2.3-.4c.1-.3.1-.9.1-1.1 0 0 0-1.4.1-1.7 0 0 0-.1.1-.1 0 0 .1 0 .1.1.1.1.6 1.1.9 1.7.1.2.6 1.1.9 1.2.3.2.7 0 .9-.2.1-.1.3-.4.4-.6.2-.5.3-1.2.2-1.7 0-.5-.1-1-.3-1.4 0-.1-.2-.6-.3-.7-.1-.3-.7-1.1-1-1.3-.2-.1-.3 0-.3.2 0 .1 0 .3.1.4.1.4.2.9.4 1.3.1.4.2 1 .3 1.4v.4.6h-.1s-.1-.1-.1-.1c-.3-.4-.6-.8-.8-1.3-.3-.4-.7-1-.9-1.4-.1-.2-.3-.3-.5-.3-.3 0-.4.4-.5.7-.3.9-.6 2.3-.5 3.3-.3.3-.2.9.1 1m5.2.2s.2.1.3.1c.3.1.3.1.7.1.7-.1 1.6-.5 2.1-.9.2-.1.3-.2.3-.4s-.1-.3-.2-.5-.3-.2-.5-.1c-.5.1-1.1.2-1.5.2-.1 0-.2 0-.3 0s-.1 0-.1 0 .1-.3.2-.5c.1-.3.2-.5.2-.5s.1 0 .2 0h1.6c.2 0 .3-.2.3-.5 0-.2-.1-.4-.3-.5-.1 0-.2 0-.3 0-.4 0-1.2 0-1.2 0l.2-.7h.8c.2 0 1.3 0 1.6-.2.2-.1.1-.4 0-.6-.3-.4-.6-.6-1-.6-.3 0-1.3.1-1.5.1s-.5.1-.7.1-.8.1-.9.2c-.2.1-.3.2-.2.4s.2.3.4.3c.2.1.5.1.5.1s-.1.3-.2.6c-.1.2-.1.4-.2.4 0 0 0 0-.1 0-.3 0-.4.2-.4.4 0 .1.1.5.1.6v.1c-.2.4-.2.5-.3.8s-.1.7.1 1c0 0 0 .1.1.1 0 .1.2.3.2.3m5.5.2s-.1.3-.2.6c-.1.4-.4 1.6-.5 2-.1.5-.4 1.9-.4 2 0 0 0 .1-.1.1-.1.1-.2 0-.3 0-.2-.1-.4-.2-.5-.4-.3-.4-.2-1.1-.2-1.5.2-1.5.4-2.1 1-3.6 0 0 0 0 0-.1-.2-.4-.3-.8-.3-1.2 0-1.1.7-2.3 1.4-3.2.1-.1.4-.5.6-.5s.2.2.2.4c-.1.5-.5 1.1-.7 1.5-.3.5-.4.7-.5 1.2 0 .1-.1.4-.1.4v.3s.5-.7.8-1.1c.2-.2.3-.4.4-.5.1-.2.7-.7.9-.9.3-.3.5-.4.8-.6.3-.1.5-.2.8 0 .4.3.6.9.7 1.4.1.6-.1 1.3-.3 1.8-.3.6-.7 1-1.3 1.4s-1.3.7-2 .6c-.1-.1-.2-.1-.2-.1m2.8-4.2c-.3.3-.8.9-1 1.2-.3.4-.6.9-.8 1.2-.1.1-.2.4-.2.4h.3c.4-.1.9-.3 1.1-.5.4-.3.7-.8.8-1.3.1-.2.1-.7-.1-.9 0-.1-.1-.2-.1-.1"/></clipPath><clipPath id="i"><path d="m205.8 143.7-.8-2.6s-.8 2.6-.8 2.6h-2.3s-2.1-6.9-2.1-6.9h2.8l.5 1.8s.5-1.8.5-1.8h2.8l.6 1.8s.5-1.8.5-1.8h2.6s-2.1 6.9-2.1 6.9zm11.7-.1s-.1.1 0 0c-.1.1-2.5.1-2.5.1l-.3-.9s0 0-.1 0h-2.3s0 0-.1 0l-.3.9h-2.5s-.1 0-.1-.1c0 0 2.1-6.8 2.1-6.8s0-.1.1-.1h3.7s.1 0 .1.1c0 0 2.2 6.8 2.2 6.8zm-3.5-2.9s-.5-1.8-.5-1.8c0-.1 0-.1 0-.1v.1s-.5 1.7-.5 1.8c0 0 0 .1.1.1zm15.6-1.7s0 .1 0 0c.1.2.7.8.9 1s.6.6.6 1.5-.5 1.4-.6 1.5-.6.6-1.6.6h-5.3s-.8 0-1.3-.5l-1.4-1.4h-.1v1.9h-2.7v-6.9h4.9s.9 0 1.6.6.7 1.3.7 1.7-.1 1.1-.8 1.6c0 0-.3.2-.5.3 0 0-.1 0-.1.1 0 0 0 .2.4.2h3.4s.1 0 .1-.1c0 0 0 0 0-.1 0 0-.6-.6-.9-.9 0 0-.5-.6-.5-1.4s.5-1.3.8-1.6c.3-.2.9-.5 1.3-.5h4.4v2.3zm-6.9.1c0-.4-.3-.5-.5-.5h-1.4v.1.8.1h1.5c.1 0 .4-.1.4-.5zm-16.5-9.9c-.4 0-1 .2-1.3.5-.3.2-.8.8-.8 1.6s.5 1.4.5 1.4c.2.3.9.9.9.9v.1s0 .1-.1.1h-5.6v2.5h6.7c.9 0 1.4-.5 1.6-.6.1-.1.6-.7.6-1.5 0-.9-.4-1.3-.6-1.5-.1-.2-.7-.8-.9-.9 0 0 0 0 0-.1v-.1h3.2v4.7h2.5v-4.7h3v-2.3h-9.7zm26.9 4.5v2.5h-4.2s-.8 0-1.3-.5l-1.4-1.4h-.1v1.9h-2.7v-6.9h4.9s.9 0 1.6.6.7 1.3.7 1.7-.1 1.1-.8 1.6c0 0-.3.2-.5.3 0 0-.1 0-.1.1 0 0 0 .2.4.2h3.5zm-5-2c0-.4-.3-.5-.5-.5h-1.4v.1.8.1h1.5c0-.1.4-.2.4-.5zm-5.2 4.4c0 .1 0 .1 0 0-.1.1-2.5.1-2.5.1l-.3-.9s0 0-.1 0h-2.3s0 0-.1 0l-.3.9h-2.5s-.1 0-.1-.1c0 0 2.1-6.8 2.1-6.8s0-.1.1-.1h3.7s.1 0 .1.1c.1 0 2.2 6.8 2.2 6.8zm-3.4-2.9s-.5-1.8-.5-1.8c0-.1 0-.1 0-.1v.1s-.5 1.7-.5 1.8c0 0 0 .1.1.1l.9-.1c0 .1 0 .1 0 0z"/></clipPath><clipPath id="j"><path d="m351.4 131.2h-7.1v2.2h2.3v8.6h2.4v-8.6h2.3v-2.2zm-11.6 3.9c-.7-.3-1-.7-1-1.1 0-.5.4-.9 1.1-.9.6 0 1 .3 1.4 1.1l2.1-.9c-.6-1.4-1.7-2.3-3.6-2.3-2 0-3.4 1.3-3.4 3 0 1.2.6 2.1 2 2.9l1.4.7c.8.4 1.2.7 1.2 1.3s-.5 1.1-1.2 1.1-1.4-.4-1.7-1.3l-2.2.6c.5 1.8 2 2.8 3.9 2.8 2.1 0 3.6-1.3 3.6-3.2 0-1.5-.8-2.4-2.3-3.2z"/></clipPath><clipPath id="k"><path d="m327.7 135.7h-4.5c-.1-1.5-.3-3-.6-4.5 0-.2-.2-.3-.3-.3h-1c-.1 0-.2 0-.2.1-.1.1-.1.2-.1.3.3 1.5.5 2.9.6 4.5h-4.3c-.2 0-.4.2-.4.4v.9c0 .2.2.4.4.4h4.4v.6c0 1.3-.1 2.5-.2 3.7 0 .1 0 .2.1.3s.2.1.2.1h1c.2 0 .3-.1.4-.3.1-1.3.2-2.4.2-3.8 0-.2 0-.4 0-.6h4.4c.2 0 .4-.2.4-.4v-1.1c-.1-.2-.3-.3-.5-.3z"/></clipPath><clipPath id="l"><path d="m177 79.4h.3c1.8.2 3.6.6 5.3 1.3 1.3.5 2.3 1.5 2.9 2.7 2.1 3.7.8 8.4-2.9 10.4-.2.1-.5.3-.8.4-1.5.7-3.1 1.2-4.8 1.3-3.1.3-6.3-.3-9.1-1.6-1.9-.8-3.5-2.2-4.6-3.9-.8-1.3-.7-2.9.2-4.2 1.4-2 4.5-2.4 6.8-2.3 2.2.1 4.4.5 6.6 1.2.9.3 1.7.7 2.5 1.1.2.2.3.5.2.8-.4 1.2-3.2 1.8-4 1.9-2.2.3-3.3-.5-5.8-1.5-.7-.3-1.4-.5-2.1-.6-1.1-.1-2.5.2-2.7 1.4-.1.6.6 1.2 1.2 1.5 1.2.5 2.4.8 3.7.8 3.9.1 8.2-.6 11.4-2.8.5-.3.8-.8.9-1.3 0-1.2-2-1.9-2-1.9-2.1-.9-6.1-1.3-8.1-1.5s-5.5-.5-6.3-.6-1.7-.3-2.5-.6c-.8-.4-1.4-1-1.6-1.9-.3-1.5 0-3.1.9-4.4 2.1-3 7.1-4.2 10.8-4.7s9.4-.4 12.9 1.4c.5.3.8.6.7 1.1-.2 1-1 1.8-2 2.1-1.4.3-2.8.5-4.2.5-4.2.2-9.4.1-13.5 1.2-.4.1-.7.2-1 .4-.6.7 1.2.9 1.6 1h.3l9 1.1"/></clipPath><clipPath id="m"><path d="m172.5 54.4c-.2-1.1-.8-2-1.7-2.7-.7-.5-1.5-.9-2.4-1.1-.2 0-.4-.1-.6-.1-.1-.1-.2-.2-.3-.4-.7-.8-1.5-1.3-2.5-1.7-2.4-.8-5.7-.2-7.9.7-2.3 1-4.4 2.4-6.2 4.2-1.8 1.6-2.8 3.9-2.8 6.4.1.9.3 1.8.7 2.7.4.5.8 1.2 1.1 1.8v1.3c0 1 .5 2 1.2 2.6.4.4 1.1.4 1.5 0 .2-.2.4-.4.5-.6.2-.4.4-.8.7-1.2s.2 0 .3.1c.4.2.8.2 1.2.3.5 0 1 .2 1.5.2 1.8 0 3.5-.3 5.2-.9 3.1-1.2 5.9-3.1 8.1-5.6 1.6-1.3 2.9-3.8 2.4-6zm-19.4 4.2c-.5.8-1.2 1.7-1.2 1.8-.1-.1-.2-.3-.2-.5-.7-1.6.8-3.5 2.1-4.6 1-.9 2.2-1.6 3.5-2 .5-.1 1.3-.2 1.3-.2l-1 .8c-1.7 1.4-3.2 3-4.5 4.7zm12 2.1c-1.8 1-3.8 1.6-5.9 1.8-.8.1-2.9.1-3-.2 0-.1 0-.1.3-.5s.6-.9 1-1.4c1.9-2.3 4-4.2 6.5-5.8.5-.3 1.1-.6 1.8-.8.7-.3 1.5-.3 2.2 0 .6.3 1.1.9 1.2 1.6.3 2.4-2.3 4.3-4.1 5.3z"/></clipPath><clipPath id="n"><path d="m156.8 71.3c.1 0 .3.1.4.1 1 .5 1.7 1.5 1.9 2.6.6 3.6.9 7.2 1 10.8.1 1.7.1 3.4.2 5.1.1 1.6.1 3.1-.1 4.7-.1.5-.4 1-.9 1.3-.8.3-1.6.4-2.4.2-1.6-.3-2.2-1.4-2.4-3-.4-4.9-.4-9.8 0-14.6.2-2 .5-3.9 1.1-5.9 0-.5.4-1.4 1.2-1.3"/></clipPath><clipPath id="o"><path d="m151.5 79.5c-.1-.7-.2-1.5-.3-2.2 0 0-.2-.7-.3-1.2-.2-.8-.5-1.6-.9-2.3-.4-.8-.7-1.5-1-2.1-1.8-3.2-4.1-6.2-6.7-8.8-1.2-1.2-2.9-2.7-4.2-3.8-.6-.5-4.6-3.4-5.3-3.9-2.7-1.7-5.5-3.3-8.4-4.7-3.7-1.8-7.6-3.3-11.5-4.5-6-2-12.3-2.9-18.6-2.8-3.2.2-6.4.7-9.6 1.5-1.9.4-3.6 1.6-4.5 3.2-.6.8-.8 1.8-.7 2.8.2.8 1.4 1.1 2.3 1.3s3 .3 3.5-.4c.2-.3.2-.6 0-.9-.3-.4-.7-.7-1.2-.7-.6-.1-1.6-.2-1.9-.3l-.3-.1.1-.1c.2-.1.5-.2.8-.3s.6-.2 1-.3c3.1-.6 6.3-.8 9.4-.7 8.4.3 16.8 2.2 24.5 5.5 7.9 3.2 16.8 8.8 22.1 15.5 2 2.5 4.5 6.7 4.8 10.2.3 3.1-.7 6.2-2.7 8.6-1.6 1.7-3.5 3.1-5.6 4-4.9 2.3-10.8 2.8-16.2 2.7-.7 0-3.4-.3-4-.3-1.1-.2-2.5-.4-2.5-.4l-.4-16.5s1.7.1 2.8.1c4.2.3 8.3 1.1 12.3 2.4.7.3 1.3.7 1.4 1.3 0 .5-.4.9-.8 1.3-.2.2-.5.4-.7.5-.5.3-1.4.8-1.5.8-.2.2-.2.5 0 .7.9.5 2 .7 3 .7 1.8-.2 3.4-1.2 4.3-2.8.8-1.2.9-2.7.3-4-.8-1.8-2.2-3.3-4-4.1-2.6-1.1-5.4-1.9-8.2-2.3-1.6-.3-3.2-.5-4.8-.5-1.6-.1-4.1 0-4.1 0s-.1-2.2-.2-3.7c-.2-2.4-.8-7.2-3.1-8.6-.4-.3-.9-.2-1.2.1-.5 1-.8 2.1-1 3.3-.2 1-.7 5.9-.7 6.6s-.1 2.8-.1 2.9l-.1.1c-.1 0-1.5.3-2.4.4-2.8.6-5.5 1.4-8.1 2.5-2 .9-5 2.5-5.9 4.5-.6 1.4-.4 2.9.4 4.2 1 1.7 2.3 3.3 3.9 4.6.5.5 2.9 2.5 3.5 2.9 2.1 1.6 4.4 3 6.8 4.1.8.4 1.8.9 1.8.9s.2 1.9.4 3c.3 1.4.7 2.6 2 3.1.8.3 1.7.3 2.5.1.6-.1 1.2-.4 1.5-1 .2-.4.3-.8.3-1.2.1-.6.1-1.4.1-1.4s2 .5 3.4.7c4 .7 8.1.8 12.1.3 5.6-.7 12.1-2.7 16.2-6.4 1.5-1.4 2.8-3 3.8-4.7.5-.9 1-1.8 1.4-2.7.3-.9.6-1.7.8-2.6.2-1.3.3-2.7.2-4zm-47.2 11.5c-3.2-1.4-6.1-3.2-8.9-5.4-.4-.3-2.1-2-2.4-2.3-.6-.5-.9-1.2-.8-1.9s1.5-1.3 2.2-1.5c2.8-.9 5.6-1.4 8.5-1.8 1.7-.2 4.1-.4 4.1-.4 0 .2-.1 2.5-.1 4.9 0 4.7.1 9.4.1 9.4s-1.7-.5-2.7-1z"/></clipPath><clipPath id="p"><path d="m231.7 75.8c-3.6.6-7.2.9-10.8 1.1l-1 3.1c2.3-.2 4.5-.2 6.8 0 0 0 .9-.1 1 1 0 .7 0 1.5-.1 2.2 0 0-.1.7-1 .9s-8.5.5-8.5.5l-1.2 4s-.4.9.5.7 8.7-1.7 9.7-1.5c1.3.4 2.1 1.7 1.9 3-.4 1.6-8.1 6.5-12.8 6.2 0 0-2.5.2-4.6-3.2-1.9-3.2.7-9.2.7-9.2s-1.2-2.8-.3-3.8c.6-.4 1.3-.6 2.1-.6l1.9-3.9c-1.3.1-2.6-.5-3.4-1.4-1.2-1.5-1.3-2.2-.4-2.6s10-2.1 16.1-1.9c0 0 2.2-.2 4 3.5 0 0 .9 1.5-.6 1.9"/></clipPath><clipPath id="q"><path d="m208.4 90.7c-.8 1.9-2.9 3.9-5.5 2.6s-6.6-9.6-6.6-9.6-1.5-3.1-1.9-3c0 0-.3-.6-.5 2.8s0 10-1.3 11c-1 .9-2.5.8-3.4-.2-.1-.1-.2-.2-.3-.4-.7-1.2-1-4-.6-9.1s1.6-10.4 3.1-12c.6-.9 1.8-1.1 2.7-.5.2.1.3.3.5.5 0 0 2 1.8 5.3 7.1l.6 1s3 5 3.3 5c0 0 .2.2.5.1s.2-1.7.2-1.7c-.7-5-1.8-9.9-3.3-14.7-.2-.7-.3-1.5-.1-2.2.3-1.1 1.4-.6 1.4-.6s4.2 2.1 6.3 9 .4 13.1-.4 14.9"/></clipPath><clipPath id="r"><path d="m253.1 72.7c-5.1-3.5-13.4 7.7-17 13.3-.5-2.8 1.4-6.4 1.4-6.4s3.1-5.3 3.5-6.4.6-3.3.1-3.5-1.3.5-1.3.5c-6.9 6.2-7.9 13.1-7.9 13.1-.6 2.8-.2 5.7 1.2 8.1-3.8 8.2-5.7 15.3-5.2 19.5.5 3.2 2.8 5.4 4.2 6s1.7-1.1 1.7-1.1c.9-7 2.7-13.8 5.5-20.3 7.2 1.7 12.6-5.4 14.6-8.7 1.2-2.2 1.8-4.7 1.7-7.2 0-3-.8-5.6-2.5-6.9zm-4.7 14c-1.9 1.4-4.1 2.3-6.4 2.6 2.2-4 4.8-7.8 7.9-11.2 2.2-2.5 2.5-.2 2.5-.2.4 4.3-2.7 7.6-4 8.8z"/></clipPath><clipPath id="s"><path d="m293.5 77.4h-13.2c-.3-4.5-.9-8.9-1.8-13.3-.1-.5-.5-.8-1-.8h-3c-.5 0-.9.4-.9.9v.2c.9 4.3 1.4 8.7 1.7 13.1h-12.7c-.6 0-1.1.5-1.1 1.1v2.8c0 .6.5 1.1 1.1 1.1h12.8v1.9c0 3.6-.2 7.3-.6 10.9-.1.5.3 1 .9 1.1h.1 2.8c.6 0 1-.4 1.1-1 .4-3.7.6-7.3.5-11 0-.6 0-1.2 0-1.9h13c.6 0 1.1-.5 1.1-1.1v-2.8c0-.6-.5-1.1-1.1-1.1"/></clipPath><clipPath id="t"><path d="m116.9 40.7c-.2.3-.2.6-.1.9s.4.6.7.7l2.4.8c.1 0 .3.1.4.1.4 0 .8-.2 1.1-.6 16-23.6 42.7-37.8 71.3-37.8 34.6 0 65.9 20.7 79.4 52.6.2.5.6.8 1.1.8h2.8c.6 0 1-.5 1-1 0-.1 0-.2-.1-.3-19-46.5-72.1-68.9-118.6-50-16.9 6.8-31.4 18.6-41.4 33.8"/></clipPath><linearGradient id="u" gradientUnits="userSpaceOnUse" x1="279.1842" x2="120.8568" y1="39.4846" y2="18.0804"><stop offset="0" stop-color="#101c50"/><stop offset=".24" stop-color="#0d267a"/><stop offset=".5" stop-color="#085aa4"/><stop offset=".65" stop-color="#058bbf"/><stop offset="1" stop-color="#b1ffff"/></linearGradient><clipPath id="v"><path d="m370.6 137.6c1.5-.2 2.8-1.5 2.8-3.2 0-2.1-1.5-3.3-3.8-3.3h-3.9v10.9h2.4v-4.3l2.9 4.3h2.8zm-1.1-1.8h-1.4v-2.6h1.4c.9 0 1.4.5 1.4 1.2.1.9-.5 1.4-1.4 1.4z"/></clipPath><clipPath id="w"><path d="m360.5 137.9 1.7 5.1-4.4-3.2s-.1 0-.2 0l-4.4 3.2.5-1.4c0-.1.1-.1.1-.2 2.3-2.9 5.7-5.5 5.7-5.5-2.2.6-3.3 1.1-4.5 1.9 0 0-.1 0-.2 0l-4.4-3.2h5.4c.1 0 .1 0 .1-.1l1.7-5.1 1.7 5.1c0 .1.1.1.1.1h5.4l-4.4 3.2c.1 0 .1.1.1.1z"/></clipPath><linearGradient id="x" gradientUnits="userSpaceOnUse" x1="348.9853" x2="366.4939" y1="135.8749" y2="135.8749"><stop offset=".28" stop-color="#fa1660"/><stop offset=".78" stop-color="#ff6e00"/></linearGradient><clipPath id="y"><path d="m147.4 133.5-.6 5.2h1.2zm5.3-1v3.9c.2 0 .3-.1.5-.1.5-.2 1-.9 1-1.9 0-1.8-1.3-1.9-1.5-1.9zm-5.3 1-.6 5.2h1.2zm5.3-1v3.9c.2 0 .3-.1.5-.1.5-.2 1-.9 1-1.9 0-1.8-1.3-1.9-1.5-1.9zm0 0v3.9c.2 0 .3-.1.5-.1.5-.2 1-.9 1-1.9 0-1.8-1.3-1.9-1.5-1.9zm-5.9 6.2h1.2l-.6-5.2zm-11.2-9.5v14.6h36.2v-14.6zm30.6 3.4h-2v2.8h2v2.2h-2v2.8h2v2.2h-4.2v-11.1l-1.8 11.1h-2.6s-.3-2-.6-3.9c-.3-1.6-.5-3.2-.6-3.8.1 1.2-.7 2.4-1.3 2.9l1.4 4.7h-2.2l-1.1-4-.5.1v4h-4.2l-.3-1.9h-1.7l-.3 1.9h-4.3v-5.9l-1 5.9h-1.2l-1-5.9v5.9h-2.2v-12.2h2.8l1 6.3 1-6.3h2.8v11.2l1.7-11.2h2.9l1.6 10.8v-10.8h2.2c2 0 2.9 1.5 3.2 2l-.2-2h2.2l1 7.4 1-7.4h6.2v2.2zm4.4 10h-4.1v-12.2h2.2v10h1.9zm-17.9-10.1v3.9c.2 0 .3-.1.5-.1.5-.2 1-.9 1-1.9 0-1.8-1.3-1.9-1.5-1.9zm-5.9 6.2h1.2l-.6-5.2zm.6-5.2-.6 5.2h1.2zm5.3-1v3.9c.2 0 .3-.1.5-.1.5-.2 1-.9 1-1.9 0-1.8-1.3-1.9-1.5-1.9z"/></clipPath><clipPath id="z"><path d="m170.6 140.4v2.2h-4.1v-12.2h2.2v10zm-6.4-7.8v2.8h2v2.2h-2v2.8h2v2.2h-4.2v-11.1l-1.8 11.1h-2.6s-.3-2-.6-3.9c-.3-1.6-.5-3.2-.6-3.8.1 1.2-.7 2.4-1.3 2.9l1.4 4.7h-2.2l-1.1-4-.5.1v4h-4.2l-.3-1.9h-1.7l-.3 1.9h-4.3v-5.9l-1 5.9h-1.2l-1-5.9v5.9h-2.2v-12.2h2.8l1 6.3 1-6.3h2.8v11.2l1.7-11.2h2.9l1.6 10.8v-10.8h2.2c2 0 2.9 1.5 3.2 2l-.2-2h2.2l1 7.4 1-7.4h6.2v2.2zm-16.1 6.1-.6-5.2-.6 5.2zm6.1-4.2c0-1.9-1.3-1.9-1.5-1.9v3.9c.2 0 .3-.1.5-.1.6-.3 1-.9 1-1.9z"/></clipPath><path clip-path="url(#a)" d="m176.6 135.9h17.5" fill="#01147b" stroke="#01147b" stroke-miterlimit="10"/><path clip-path="url(#b)" d="m44.8 135.9h16.1" fill="#01147b" stroke="#01147b" stroke-miterlimit="10"/><path clip-path="url(#c)" d="m63.3 135.9h46.1" stroke="#000" stroke-miterlimit="10"/><path clip-path="url(#d)" d="m113.5 135.9h16.1" fill="#01147b" stroke="#01147b" stroke-miterlimit="10"/><path clip-path="url(#e)" d="m237.9 135.9h17.5" fill="#01147b" stroke="#01147b" stroke-miterlimit="10"/><path clip-path="url(#f)" d="m259.7 135.9h12.1" fill="#ffd800" stroke="#ffd800" stroke-miterlimit="10"/><path clip-path="url(#g)" d="m273.1 135.9h37.3" stroke="#000" stroke-miterlimit="10"/><path d="m148.1 138.7h-1.2l.6-5.2zm4.6-6.2v3.9c.2 0 .3-.1.5-.1.5-.2 1-.9 1-1.9 0-1.8-1.3-1.9-1.5-1.9zm19-3.3v14.6h-36.2v-14.6zm-5.5 1.1h-6.2l-1 7.4-1-7.4h-2.2l.2 2c-.3-.5-1.2-2-3.2-2h-2.2v10.8l-1.6-10.8h-3l-1.7 11.2v-11.2h-2.8l-1 6.3-1-6.3h-2.8v12.2h2.2v-5.9l1 5.9h1.2l1-5.9v5.9h4.3l.3-1.9h1.7l.3 1.9h4.2v-4l.5-.1 1.1 4h2.2l-1.4-4.7c.7-.5 1.4-1.7 1.3-2.9.1.5.4 2.1.6 3.8.3 2 .6 3.9.6 3.9h2.6l1.8-11.1v11.1h4.2v-2.2h-2v-2.8h2v-2.2h-2v-2.8h2v-2.2zm4.4 10.1h-1.9v-10h-2.2v12.2h4.1z" fill="none"/><path d="m29.2 139.9s.2.2.2.2" fill="#01147b"/><path clip-path="url(#h)" d="m0 135.9h42.2" fill="#01147b" stroke="#01147b" stroke-miterlimit="10"/><path clip-path="url(#i)" d="m196.5 135.9h39.6" stroke="#000" stroke-miterlimit="10"/><path clip-path="url(#j)" d="m334.8 135.9h17.5" fill="#261e3c" stroke="#261e3c" stroke-miterlimit="10"/><path clip-path="url(#k)" d="m313.3 135.9h17.5" fill="#01147b" stroke="#01147b" stroke-miterlimit="10"/><path clip-path="url(#l)" d="m188.7 72.9s-26.4-3.4-24.8 6.4c0 0 3.3 1.9 6.9 1.7 3.6-.3 22 1.3 9.8 11.1 0 0-10.9 4.8-16.8-4 0 0 .2-6.7 14.7-.5" fill="none" stroke="#101c50" stroke-miterlimit="10"/><path d="m151.9 60.4c-.1 0-.1 0 0 0z" fill="#101c50"/><g stroke-miterlimit="10"><path clip-path="url(#m)" d="m150.9 70.3s3.5-19 18.3-18.3c0 0 5.7 4.9-4.7 10.4s-15.4.2-15-3.9 9-10.9 15.4-8.1 1.3 6.8 1.3 6.8" fill="none" stroke="#101c50"/><path clip-path="url(#n)" d="m157.2 69.6v30.6" fill="none" stroke="#101c50"/><path clip-path="url(#o)" d="m88 51.1s-11.5.8-6.3-3.1c5.3-3.9 60.5-5.6 66.4 35.7 0 0-8.2 27.1-50.7 5.5 0 0-21.9-14.4 16.7-15.3 0 0 32.9 4.7 11.5 10.9l-11.5-31.2h-5l.6 57.5" fill="none" stroke="#101c50"/><path clip-path="url(#p)" d="m210.9 74.1 23.2-1.8-16.6 2.3s-7.1 19.4-1.5 19.4c5.5 0 13.3-5.4 13.3-5.4l-19.7 4.7.9-10.5 18.6-1.3" fill="none" stroke="#101c50"/><path clip-path="url(#q)" d="m191.4 97.7s-2.7-14.5 1.8-22.6l11.2 16.9s8.6-12.3-4.5-26.6" fill="none" stroke="#101c50"/><path clip-path="url(#r)" d="m242 66.8s-7.5 10.1-7.9 16.4 2.9 13.9 13.1 7.7 5.2-16.4 5.2-16.4-7.2-1.8-17.7 23.2-4.8 27.4-4.8 27.4" fill="none" stroke="#101c50"/><path clip-path="url(#s)" d="m259.2 80.2 39.2-.4-23-19.3s5 17.4 1.5 42.6" fill="none" stroke="#101c50"/><path clip-path="url(#t)" d="m117.4 44.4c.4 0 3.7-4.4 3.9-4.8 16-23.6 42.7-37.8 71.3-37.8 34.6 0 66.5 20.8 80 52.7.2.5 2.3 3.8 3.5 5.4" fill="none" stroke="url(#u)"/><path d="m1457.7-2071.5c6.6-1.5 13.3-1.7 20-2" fill="none" stroke="#000" stroke-linecap="round" stroke-linejoin="round" stroke-width="2"/><path d="m1891-1621.8c3.8 3.2 8.3 1.6 12.5 2" fill="none" stroke="#000" stroke-linecap="round" stroke-linejoin="round" stroke-width="2"/><path d="m-189.2-1362.5c-8.1 12.6-4.7 24.5 2.6 35.9 5 7.8 11.4 14.5 17.4 21.5" fill="none" stroke="#000" stroke-linecap="round" stroke-linejoin="round" stroke-width="2"/><path d="m1087.3-1218.6v12.5" fill="none" stroke="#000" stroke-linecap="round" stroke-linejoin="round" stroke-width="2"/><path d="m1185.8-1240.1c-7.5 0-15 0-22.5 0" fill="none" stroke="#000" stroke-linecap="round" stroke-linejoin="round" stroke-width="2"/><path d="m1498.6-2106.5c.3 10.3.7 20.7 1 31" fill="none" stroke="#000" stroke-linecap="round" stroke-linejoin="round" stroke-width="2"/><path d="m1342.7-1467.4v22.5" fill="none" stroke="#000" stroke-linecap="round" stroke-linejoin="round" stroke-width="2"/><path d="m927.9-1260c-8.3 0-16.7 0-25 0" fill="none" stroke="#000" stroke-linecap="round" stroke-linejoin="round" stroke-width="2"/><path d="m581-1225.6c-7 0-14 0-21 0" fill="none" stroke="#000" stroke-linecap="round" stroke-linejoin="round" stroke-width="2"/><path d="m273.1-1360h22.5" fill="none" stroke="#000" stroke-linecap="round" stroke-linejoin="round" stroke-width="2"/><path clip-path="url(#v)" d="m361 135.9h17.5" fill="#261e3c" stroke="#261e3c"/><path clip-path="url(#w)" d="m349 135.9h17.5" fill="url(#x)" stroke="url(#x)"/><path clip-path="url(#y)" d="m134.2 135.9h40.3" fill="#f00" stroke="#f00"/><path clip-path="url(#z)" d="m134.2 135.9h40.3" fill="#fff" stroke="#fff"/></g></svg>